<?xml version="1.0" encoding="UTF-8"?> <svg xmlns="http://www.w3.org/2000/svg" xmlns:xlink="http://www.w3.org/1999/xlink" viewBox="0 0 359.52 500"><defs><style> .cls-1 { clip-path: url(#clippath); } .cls-2 { fill: none; } .cls-2, .cls-3, .cls-4, .cls-5, .cls-6, .cls-7 { stroke-width: 0px; } .cls-8 { clip-path: url(#clippath-1); } .cls-9 { clip-path: url(#clippath-2); } .cls-3 { opacity: .5; } .cls-3, .cls-5 { fill: #231f20; } .cls-10 { isolation: isolate; } .cls-11 { mix-blend-mode: multiply; opacity: .2; } .cls-6 { fill: #026813; } .cls-7 { fill: #00540c; } </style><clipPath id="clippath"><path class="cls-2" d="m291.25,204.36c.09,8.13,48.73,5.8,68.28-12.63-1.48-28.68-6.87-98.58-24.92-117.3-8.76-9.09-25-20.42-41.69-30.94,29.13,20.49,6.91,98.94,6.91,98.94,0,0-8.95,26.4-8.59,61.93Z"></path></clipPath><clipPath id="clippath-1"><path class="cls-2" d="m68.29,204.36c-.08,8.13-48.73,5.8-68.28-12.63,1.47-28.68,6.87-98.58,24.92-117.3,8.76-9.09,24.99-20.42,41.68-30.94-29.13,20.49-6.91,98.94-6.91,98.94,0,0,8.95,26.4,8.59,61.93Z"></path></clipPath><clipPath id="clippath-2"><path id="Body" class="cls-2" d="m238.54,11.7l54.38,31.8c29.13,20.49,6.91,98.94,6.91,98.94,0,0-8.95,26.4-8.59,61.93l11.35,286.08c-81.51,12.91-164.56,12.91-246.07,0l11.77-286.08c.37-35.53-8.59-61.93-8.59-61.93,0,0-22.22-78.45,6.91-98.94l54.21-31.8h117.71Z"></path></clipPath></defs><g class="cls-10"><g id="Laag_1" data-name="Laag 1"><g id="Newcastle"><path id="Jersey_Color" data-name="Jersey Color" class="cls-6" d="m292.92,43.49c16.69,10.52,32.92,21.85,41.69,30.94,18.05,18.72,23.45,88.61,24.92,117.3-19.56,18.44-68.2,20.76-68.28,12.63l11.35,286.08c-81.51,12.91-164.56,12.91-246.07,0l11.77-286.08c-.08,8.13-48.73,5.8-68.28-12.63,1.47-28.68,6.87-98.58,24.92-117.3,8.76-9.09,24.99-20.42,41.68-30.94l53.58-31.43L131.6.13s48.24,21.23,96.19,0l10.74,11.56,54.38,31.8Z"></path><g id="Sleeves"><path class="cls-4" d="m291.25,204.36c.09,8.13,48.73,5.8,68.28-12.63-1.48-28.68-6.87-98.58-24.92-117.3-8.76-9.09-25-20.42-41.69-30.94,29.13,20.49,6.91,98.94,6.91,98.94,0,0-8.95,26.4-8.59,61.93Z"></path><path class="cls-4" d="m68.29,204.36c-.08,8.13-48.73,5.8-68.28-12.63,1.47-28.68,6.87-98.58,24.92-117.3,8.76-9.09,24.99-20.42,41.68-30.94-29.13,20.49-6.91,98.94-6.91,98.94,0,0,8.95,26.4,8.59,61.93Z"></path></g><g class="cls-1"><path class="cls-6" d="m355.32,206.13c-6.21-139.22-55.87-162.64-55.87-162.64l-11.04-2.64v23.8c49.26,62.04,40.82,150.34,40.82,150.34l26.08-8.87Z"></path><path class="cls-6" d="m306.32,248.13c-6.21-139.22-55.87-162.64-55.87-162.64l-11.04-2.64v23.8c49.26,62.04,40.82,150.34,40.82,150.34l26.08-8.87Z"></path></g><g class="cls-8"><path class="cls-6" d="m60.23,43.39S10.57,65.97,4.37,200.26l26.08,8.55s-8.44-85.17,40.82-145.01l.39-23.26-11.42,2.85Z"></path><path class="cls-6" d="m108.58,91.84s-49.66,23.41-55.87,162.64l26.08,8.87s-8.44-88.3,40.82-150.34l.39-24.12-11.42,2.96Z"></path></g><g class="cls-9"><g><rect class="cls-4" x="198.5" y=".5" width="35.49" height="510.83"></rect><rect class="cls-4" x="127.52" y=".5" width="35.49" height="510.83"></rect><rect class="cls-4" x="273.3" y=".5" width="35.49" height="510.83"></rect><rect class="cls-4" x="51.03" y=".5" width="35.49" height="510.83"></rect></g></g><g id="Shading" class="cls-11"><path class="cls-5" d="m67.69,217.79c3.28-42.1-8-75.36-8-75.36,0,0-3.92-13.84-6.31-31.41l29.42,68.13c2.77,6.4,4.43,17.31,3.71,24.25l-29.98,287.04,11.17-272.66Z"></path><path class="cls-5" d="m291.85,217.79c-3.28-42.1,8-75.36,8-75.36,0,0,3.92-13.84,6.31-31.41l-29.42,68.13c-2.77,6.4-4.43,17.31-3.71,24.25l29.57,287.04-10.75-272.66Z"></path><path class="cls-3" d="m50.44,54.11c5.17-3.55,10.65-7.13,16.17-10.62-10.67,7.5-14.45,22.78-14.95,39.13,0,0-8.61-23.09-1.22-28.52Z"></path><path class="cls-3" d="m309.63,54.47c-5.17-3.55-11.18-7.49-16.71-10.98,10.67,7.5,14.61,22.78,15.12,39.13,0,0,8.98-22.73,1.59-28.16Z"></path><path class="cls-3" d="m157.46,35.73c-11.86-11.84-22.89-21.27-25.86-35.6,0,0,7.46,3.28,19.43,5.98,0,0-.96,9.27,6.43,29.62Z"></path></g><g id="Collar"><g id="Collar-2" data-name="Collar"><g><path class="cls-4" d="m227.89,0c-47.95,21.23-96.19,0-96.19,0l-11.4,11.93s17.44,12.57,60.3,12.59c41.56-.02,57.7-11.83,58.66-12.59l-11.36-11.93Z"></path><path class="cls-7" d="m179.76,44.46c-17.16,0-32.32-10.48-40.97-24.93,9.66,2.65,23.39,4.98,41.81,4.98,17.62,0,30.67-2.14,39.93-4.64-8.69,14.27-23.74,24.59-40.77,24.59Z"></path></g><path class="cls-4" d="m227.83,0c-3.51,23.5-23.8,44.46-48.07,44.46S135.21,23.5,131.69,0l-11.43,11.93c8.29,30.12,33.85,45.24,59.49,45.39,25.64-.14,51.2-15.27,59.49-45.39l-11.43-11.93Z"></path></g></g></g></g></g></svg> 