<?xml version="1.0" encoding="UTF-8"?> <svg xmlns="http://www.w3.org/2000/svg" xmlns:xlink="http://www.w3.org/1999/xlink" viewBox="0 0 360 500"><defs><style> .cls-1 { fill: none; } .cls-2 { clip-path: url(#clippath); } .cls-3 { fill: #040301; } .cls-4 { fill: #ef0200; } .cls-5 { fill: #ecb523; } .cls-6 { fill: #fff; } .cls-7 { fill: #fefefd; } .cls-8 { fill: #fee600; } .cls-9 { fill: #fbd000; } .cls-10 { fill: #b70034; } .cls-11 { fill: #e4002c; } .cls-12 { fill: #1e1e1e; } .cls-13, .cls-14 { fill: #231f20; } .cls-15 { clip-path: url(#clippath-1); } .cls-16 { clip-path: url(#clippath-2); } .cls-17 { opacity: .37; } .cls-18 { isolation: isolate; } .cls-19 { mix-blend-mode: multiply; opacity: .2; } .cls-14 { opacity: .5; } </style><clipPath id="clippath"><path id="Body-2" data-name="Body" class="cls-9" d="m238.77,11.56l54.38,31.8c29.13,20.49,6.91,98.94,6.91,98.94,0,0-8.95,26.4-8.59,61.93l11.35,286.08c-81.51,12.91-164.56,12.91-246.07,0l11.77-286.08c.37-35.53-8.59-61.93-8.59-61.93,0,0-22.22-78.45,6.91-98.94l54.21-31.8h117.71Z"></path></clipPath><clipPath id="clippath-1"><path class="cls-1" d="m291.48,204.33c.09,8.13,48.73,5.8,68.28-12.63-1.48-28.68-6.87-98.58-24.92-117.3-8.76-9.09-25-20.42-41.69-30.94,29.13,20.49,6.91,98.94,6.91,98.94,0,0-8.95,26.4-8.59,61.93Z"></path></clipPath><clipPath id="clippath-2"><path class="cls-1" d="m68.52,204.33c-.08,8.13-48.73,5.8-68.28-12.63,1.47-28.68,6.87-98.58,24.92-117.3,8.76-9.09,24.99-20.42,41.68-30.94-29.13,20.49-6.91,98.94-6.91,98.94,0,0,8.95,26.4,8.59,61.93Z"></path></clipPath></defs><g class="cls-18"><g id="Laag_1" data-name="Laag 1"><g id="Mechelen"><path id="Jersey_Color" data-name="Jersey Color" class="cls-6" d="m293.15,43.36c16.69,10.52,32.92,21.85,41.69,30.94,18.05,18.72,23.45,88.61,24.92,117.3-19.56,18.44-68.2,20.76-68.28,12.63l11.35,286.08c-81.51,12.91-164.56,12.91-246.07,0l11.77-286.08c-.08,8.13-48.73,5.8-68.28-12.63,1.47-28.68,6.87-98.58,24.92-117.3,8.76-9.09,24.99-20.42,41.68-30.94l53.58-31.43L131.83,0S180.07,21.23,228.02,0l10.74,11.56,54.38,31.8Z"></path><g id="Jersey_Pattern" data-name="Jersey Pattern"><path id="Body" class="cls-9" d="m238.77,11.56l54.38,31.8c29.13,20.49,6.91,98.94,6.91,98.94,0,0-8.95,26.4-8.59,61.93l11.35,286.08c-81.51,12.91-164.56,12.91-246.07,0l11.77-286.08c.37-35.53-8.59-61.93-8.59-61.93,0,0-22.22-78.45,6.91-98.94l54.21-31.8h117.71Z"></path><g class="cls-2"><rect class="cls-11" x="155.91" y="0" width="48.19" height="500"></rect><rect class="cls-11" x="253.57" y="0" width="48.19" height="500"></rect><rect class="cls-11" x="60.44" y="0" width="48.19" height="500"></rect></g></g><g id="Sleeves"><path class="cls-9" d="m291.48,204.23c.09,8.13,48.73,5.8,68.28-12.63-1.48-28.68-6.87-98.58-24.92-117.3-8.76-9.09-25-20.42-41.69-30.94,29.13,20.49,6.91,98.94,6.91,98.94,0,0-8.95,26.4-8.59,61.93Z"></path><path class="cls-9" d="m68.52,204.23c-.08,8.13-48.73,5.8-68.28-12.63,1.47-28.68,6.87-98.58,24.92-117.3,8.76-9.09,24.99-20.42,41.68-30.94-29.13,20.49-6.91,98.94-6.91,98.94,0,0,8.95,26.4,8.59,61.93Z"></path></g><g id="Shading" class="cls-19"><path class="cls-13" d="m67.92,217.65c3.28-42.1-8-75.36-8-75.36,0,0-3.92-13.84-6.31-31.41l29.42,68.13c2.77,6.4,4.43,17.31,3.71,24.25l-29.98,287.04,11.17-272.66Z"></path><path class="cls-13" d="m292.08,217.65c-3.28-42.1,8-75.36,8-75.36,0,0,3.92-13.84,6.31-31.41l-29.42,68.13c-2.77,6.4-4.43,17.31-3.71,24.25l29.57,287.04-10.75-272.66Z"></path><path class="cls-14" d="m50.67,53.98c5.17-3.55,10.65-7.13,16.17-10.62-10.67,7.5-14.45,22.78-14.95,39.13,0,0-8.61-23.09-1.22-28.52Z"></path><path class="cls-14" d="m309.86,54.34c-5.17-3.55-11.18-7.49-16.71-10.98,10.67,7.5,14.61,22.78,15.12,39.13,0,0,8.98-22.73,1.59-28.16Z"></path><path class="cls-14" d="m157.78,35.17C148.49,26.59,134.75,15.15,131.83,0,131.83,0,139.29,3.28,151.26,5.98c0,0-.87,8.83,6.52,29.19Z"></path></g><g class="cls-15"><path class="cls-11" d="m355.54,206.1c-6.21-139.22-55.87-162.64-55.87-162.64l-11.04-2.64v23.8c49.26,62.04,40.82,150.34,40.82,150.34l26.08-8.87Z"></path><path class="cls-11" d="m306.55,248.1c-6.21-139.22-55.87-162.64-55.87-162.64l-11.04-2.64v23.8c49.26,62.04,40.82,150.34,40.82,150.34l26.08-8.87Z"></path></g><g class="cls-16"><path class="cls-11" d="m60.46,43.47S10.8,66.88,4.6,206.1l26.08,8.87s-8.44-88.3,40.82-150.34l.39-24.12-11.42,2.96Z"></path><path class="cls-11" d="m108.81,91.81s-49.66,23.41-55.87,162.64l26.08,8.87s-8.44-88.3,40.82-150.34l.39-24.12-11.42,2.96Z"></path></g><g><path class="cls-5" d="m169.12,124.87c-.01-.07-.03-.13-.03-.2,0-.09-.03-.13-.13-.13-.73-.04-.9-.3-.68-.99,0-.02,0-.05,0-.07,0,0,.01-.02.02-.03-.01,0-.02.01-.03.02-.43.04-.81-.07-1.03-.48-.26-.48-.04-1.08.48-1.28.08-.03.16-.05.26-.08-.1-.18-.2-.34-.31-.54-.12.34-.31.59-.64.68-.23.07-.45.05-.66-.06-.42-.21-.62-.73-.43-1.16.22-.52.7-.66,1.41-.4-.02-.21-.04-.41-.07-.64-.27.28-.56.44-.94.36-.24-.05-.44-.17-.58-.38-.28-.42-.18-.97.23-1.25.46-.32.98-.17,1.38.4.02-.03.04-.06.05-.09.07-.19.14-.39.21-.59-.76.11-1.21-.14-1.3-.7-.08-.47.23-.94.69-1.03.57-.12.98.2,1.15.9.18-.17.34-.33.54-.52-.31-.06-.57-.17-.74-.43-.17-.27-.19-.56-.07-.85.17-.43.66-.65,1.11-.52.49.15.71.61.57,1.26.21-.08.4-.14.59-.22.15-.07.02-.13-.02-.19-.4-.57-.11-1.3.56-1.44.63-.13,1.2.46,1.04,1.09-.02.06-.03.13-.05.21.34,0,.68.06.89-.32-.32-.14-.57-.36-.63-.73-.04-.21,0-.4.11-.59.21-.38.65-.55,1.06-.43.47.14.68.54.61,1.18.17-.05.34-.1.51-.15-.45-.54-.5-.95-.19-1.35.27-.33.74-.44,1.12-.24.46.24.57.64.36,1.36.23-.01.45-.02.77-.04-.41-.27-.58-.58-.52-.99.03-.24.16-.42.34-.57.37-.3.92-.24,1.23.12.36.41.28.92-.22,1.41.26.02.5.04.74.04.16,0,.33-.2.31-.39-.09-.79.17-1.42.83-1.89.08-.05.11-.12.12-.21.04-.36.08-.72.13-1.08.02-.16-.05-.2-.18-.17-.27.05-.55.1-.82.16-.14.03-.2.02-.2-.14,0-.59,0-1.18,0-1.77,0-.18.07-.19.21-.16.26.05.53.08.8.12.16.03.21-.03.19-.19-.05-.35-.09-.7-.15-1.05-.02-.13,0-.19.14-.18.51,0,1.03,0,1.54,0,.13,0,.15.05.13.17-.07.36-.12.72-.14,1.08-.01.15.03.2.18.17.27-.05.55-.08.82-.12.13-.02.18,0,.18.15,0,.6,0,1.2,0,1.8,0,.15-.06.16-.19.13-.25-.06-.49-.1-.74-.15-.18-.04-.29,0-.26.22.05.33.08.67.12,1,.01.11.07.19.17.26.6.44.87,1.04.78,1.78-.03.31.13.47.44.45.19-.01.38-.03.62-.04-.32-.24-.49-.52-.46-.9.02-.24.13-.43.3-.59.36-.32.93-.3,1.26.05.4.43.33.92-.24,1.47.26.02.5.03.74.05-.25-.65-.15-1.08.3-1.34.37-.22.87-.13,1.15.2.33.4.28.84-.17,1.36.17.05.32.1.51.16-.07-.37-.03-.7.24-.97.14-.14.31-.23.51-.25.43-.05.82.18.97.57.18.47.01.83-.56,1.22.16.34.49.3.78.31.14,0,.07-.1.05-.16-.08-.33-.03-.62.2-.87.32-.35.85-.39,1.22-.1.38.3.48.82.19,1.22-.14.19-.09.24.1.29.14.04.28.1.43.16-.05-.83.17-1.2.76-1.29.45-.07.88.24,1,.7.12.51-.17.92-.86,1.14.1.1.19.18.28.26.08.08.15.17.24.29.19-.77.61-1.09,1.17-.95.46.11.75.59.66,1.08-.11.54-.59.79-1.3.64.08.24.16.46.25.71.19-.32.42-.55.79-.58.26-.02.48.05.68.22.36.31.4.89.1,1.26-.37.43-.89.43-1.46-.04-.02.22-.05.42-.07.63.7-.27,1.19-.13,1.41.39.19.45,0,.97-.45,1.18-.5.24-.96.03-1.3-.62-.1.17-.19.34-.29.51.68.27.94.65.81,1.16-.13.48-.54.73-1.13.67-.02.11.05.19.08.28.12.45-.12.82-.56.81-.3,0-.36.11-.34.35-.49-.24-.88-.23-1.19.05-.44.4-.42.95.05,1.47-.21.11-.22.23-.09.44.24.39.02.77-.4,1.1-1.31,1.03-2.88,1.23-4.45,1.46-1.88.27-3.77.41-5.67.34-2.09-.08-4.17-.26-6.21-.75-.47-.11-.93-.25-1.35-.49-.36-.21-.69-.48-1.03-.71-.35-.24-.42-.62-.2-.96.14-.21.09-.32-.1-.42.43-.48.48-.94.16-1.35-.29-.38-.73-.44-1.29-.19Zm10.56,4.33c1.3,0,2.29-.06,3.28-.14,1.47-.12,2.93-.35,4.35-.73.37-.1.75-.21,1.08-.42.16-.1.17-.2,0-.3-.11-.06-.22-.13-.34-.17-.44-.18-.89-.31-1.35-.41-2.62-.58-5.27-.78-7.96-.68-1.68.06-3.34.24-4.99.58-.64.13-1.28.29-1.89.55-.14.06-.35.1-.35.28,0,.18.21.22.35.28.35.16.73.27,1.1.36,2.3.58,4.65.77,6.71.8Zm-6.9-10.4c.01.73.37,1.68.92,2.57.06.09.12.12.23.11,1.1-.18,2.2-.31,3.31-.39.16-.01.18-.05.11-.2-.9-1.79-1.04-3.6-.16-5.44.07-.15.04-.19-.12-.18-.76.07-1.52.17-2.25.44-1.44.52-2.03,1.33-2.03,3.09Zm9.97-3.54c.05.1.07.14.09.18.33.68.54,1.38.57,2.13.05,1.17-.17,2.28-.74,3.31-.07.13-.07.19.1.2,1.1.07,2.2.21,3.29.38.13.02.2,0,.27-.12.62-1.02.99-2.1.88-3.31-.07-.8-.41-1.45-1.11-1.89-1.01-.63-2.15-.79-3.35-.88Zm-.54,2.6c-.01-1.12-.36-2.13-.92-3.07-.08-.14-.15-.16-.29-.05-.66.48-1.33.48-1.98,0-.12-.09-.19-.1-.27.04-.56.93-.93,1.93-.93,3.03,0,1.05.25,2.05.58,3.04.04.13.12.14.23.14.41-.02.82-.04,1.24-.04.51,0,1.01.02,1.52.04.14,0,.22-.02.26-.16.31-.97.55-1.95.57-2.96Zm-14.02,1.72c-.02.18.02.4.05.63.13.94.51,1.76,1.2,2.42.11.1.19.12.33.05.7-.33,1.43-.6,2.17-.83.07-.02.19-.01.18-.1,0-.14-.12-.24-.2-.34-.07-.07-.12.02-.16.06-.27.21-.57.28-.9.2-.47-.12-.76-.53-.74-1.02.02-.45.36-.85.83-.92.15-.02.18-.06.14-.2-.07-.2-.16-.05-.23-.02-.42.19-.85.11-1.16-.22-.3-.32-.36-.76-.16-1.15.2-.38.61-.59,1.04-.53.06,0,.16.07.18,0,.03-.14.03-.28,0-.42-.01-.09-.11-.06-.17-.05-.29.03-.56.11-.83.2-1.08.38-1.55,1.05-1.55,2.24Zm23.63.27c0-1.49-.47-2.16-1.6-2.53-.19-.06-.39-.11-.58-.16-.38-.09-.41-.05-.39.33,0,.12.03.16.16.14.5-.07.89.13,1.09.54.19.38.11.84-.19,1.15-.3.3-.75.37-1.17.18-.05-.02-.11-.11-.17-.03-.03.04-.05.11-.05.17,0,.1.09.08.15.09.43.1.75.41.81.8.07.42-.1.81-.45,1.02-.38.23-.79.2-1.16-.07-.05-.04-.1-.15-.18-.06-.08.09-.17.2-.2.31-.03.1.11.1.18.12.72.24,1.44.48,2.12.81.18.09.28.05.41-.08.86-.84,1.19-1.88,1.21-2.73Zm-11.82,4.53c.52,0,.93-.41.94-.93,0-.52-.4-.94-.91-.95-.52,0-.96.43-.96.94,0,.51.42.93.93.93Zm-6.54.13c.44.19.83.36,1.22.54.09.04.14,0,.2-.05.28-.24.56-.48.85-.71.1-.09.13-.15-.02-.21-.34-.14-.68-.29-1.02-.44-.09-.04-.16-.03-.23.03-.32.27-.64.54-1,.84Zm11.83.55c.37-.16.76-.33,1.15-.51.11-.05.02-.11-.02-.15-.29-.24-.58-.49-.87-.73-.08-.07-.17-.06-.26-.02-.33.15-.66.29-.99.43-.12.05-.16.1-.04.2.29.24.58.48.87.73.04.03.07.07.16.05Z"></path><path class="cls-5" d="m180.01,130.82c4.92,0,9.85,0,14.77,0,.26,0,.32.06.32.32,0,6.66,0,13.32,0,19.98,0,1.26-.25,2.46-.92,3.55-.36.59-.89.98-1.43,1.38-3.5,2.56-7.07,5.02-10.62,7.5-.65.45-1.3.9-1.95,1.36-.13.09-.22.1-.35,0-3.95-2.74-7.9-5.48-11.8-8.29-.46-.33-.91-.67-1.36-1.01-.82-.63-1.24-1.52-1.52-2.48-.17-.6-.25-1.22-.25-1.85,0-6.73,0-13.45,0-20.18,0-.24.09-.27.3-.27,4.94,0,9.88,0,14.83,0Zm-2.02,31.4c.47.33.93.67,1.4.99.6.42.6.42,1.21,0,.47-.33.96-.63,1.4-1,.07-.03.14-.05.2-.09.92-.64,1.85-1.28,2.76-1.93.35-.25.72-.45,1.03-.76.24-.11.44-.28.65-.43,1.11-.79,2.22-1.58,3.33-2.36.73-.46,1.4-.98,2.09-1.49.39-.28.79-.55,1.07-.95.59-.83.84-1.79.84-2.78.02-4.35,0-8.69.01-13.04,0-.2-.05-.28-.26-.27-1.16.01-2.33,0-3.49,0-.09,0-.19-.03-.26.06-1.33-.05-2.66-.02-3.99-.01-.08-.05-.18-.05-.27-.05-1.15,0-2.3,0-3.46,0-.09,0-.18,0-.27.05-.93,0-1.85-.01-2.78-.01-.4,0-.81.01-1.21.02-.07-.08-.16-.05-.24-.05-1.17,0-2.34,0-3.51,0-.08,0-.17,0-.24.05-1.33,0-2.65,0-3.98,0-.08-.05-.18-.04-.27-.04-1.14,0-2.28,0-3.41,0-.23,0-.3.05-.3.29,0,4.4,0,8.79,0,13.19,0,.32.03.64.11.95.2.77.45,1.53,1.08,2.08.38.33.8.62,1.21.91.52.38,1.05.75,1.58,1.12.23.16.45.32.68.48,1.1.77,2.2,1.54,3.3,2.31.11.09.22.19.33.27.8.56,1.61,1.13,2.42,1.68.41.28.8.6,1.25.84Zm2.03-30.25c-4.56,0-9.12,0-13.69,0-.22,0-.3.04-.3.29.01,1.54.01,3.07,0,4.61,0,.22.06.28.28.28,9.12,0,18.25,0,27.37,0,.25,0,.29-.08.29-.3,0-1.52-.01-3.04,0-4.56,0-.27-.08-.32-.33-.31-4.54,0-9.09,0-13.63,0Z"></path><path class="cls-4" d="m189.75,126.41c-.47-.51-.49-1.07-.05-1.47.31-.28.71-.3,1.19-.05.67.62.31,1.44-.26,1.64-.32.11-.61.04-.89-.12Z"></path><path class="cls-4" d="m169.12,124.87c.57-.25,1-.19,1.29.19.32.41.26.87-.16,1.35-.17.08-.34.18-.54.17-.39,0-.68-.17-.86-.51-.18-.34-.14-.68.08-1,.05-.07.12-.14.18-.21Z"></path><path class="cls-4" d="m179.68,129.2c-2.06-.03-4.4-.23-6.71-.8-.38-.09-.75-.2-1.1-.36-.14-.06-.35-.1-.35-.28,0-.18.21-.22.35-.28.61-.26,1.25-.42,1.89-.55,1.65-.33,3.31-.51,4.99-.58,2.68-.1,5.33.1,7.96.68.46.1.92.22,1.35.41.12.05.23.11.34.17.16.1.16.2,0,.3-.33.21-.71.32-1.08.42-1.43.39-2.88.61-4.35.73-.99.08-1.98.14-3.28.14Z"></path><path class="cls-4" d="m172.77,118.8c0-1.77.59-2.57,2.03-3.09.73-.26,1.48-.37,2.25-.44.16-.01.19.02.12.18-.88,1.84-.75,3.65.16,5.44.07.14.06.19-.11.2-1.11.08-2.21.21-3.31.39-.11.02-.17-.02-.23-.11-.54-.89-.9-1.84-.92-2.57Z"></path><path class="cls-4" d="m182.74,115.26c1.21.09,2.34.25,3.35.88.7.44,1.04,1.08,1.11,1.89.11,1.21-.27,2.3-.88,3.31-.07.11-.14.14-.27.12-1.09-.17-2.18-.3-3.29-.38-.17-.01-.18-.06-.1-.2.57-1.03.79-2.15.74-3.31-.03-.75-.25-1.46-.57-2.13-.02-.04-.04-.09-.09-.18Z"></path><path class="cls-4" d="m182.2,117.87c-.02,1.01-.26,1.99-.57,2.96-.05.14-.13.17-.26.16-.5-.02-1.01-.03-1.52-.04-.41,0-.83.02-1.24.04-.11,0-.19-.01-.23-.14-.33-.99-.59-1.99-.58-3.04,0-1.1.37-2.1.93-3.03.09-.14.15-.14.27-.04.66.48,1.32.49,1.98,0,.14-.1.2-.09.29.05.57.94.91,1.95.92,3.07Zm-1.86-.7c.58-.43.7-.96.33-1.4-.31-.37-.89-.41-1.24-.09-.19.17-.3.39-.31.64,0,.38.22.65.54.84-.68.48-.72,1.06-.13,1.57.13.11.06.14-.02.2-.29.21-.43.49-.37.85.07.42.38.71.78.75.38.04.77-.2.9-.56.14-.38.03-.78-.32-1.03-.15-.1-.13-.14,0-.24.38-.29.47-.7.28-1.1-.09-.2-.26-.32-.44-.43Z"></path><path class="cls-4" d="m168.18,119.58c0-1.19.47-1.86,1.55-2.24.27-.09.55-.17.83-.2.06,0,.16-.04.17.05.02.14.02.29,0,.42-.02.07-.12.01-.18,0-.42-.06-.84.15-1.04.53-.2.38-.14.83.16,1.15.31.33.74.4,1.16.22.07-.03.16-.18.23.02.05.14.01.18-.14.2-.47.08-.81.47-.83.92-.02.49.27.9.74,1.02.33.09.63.02.9-.2.05-.04.1-.13.16-.06.09.1.19.2.2.34,0,.09-.11.08-.18.1-.74.23-1.47.5-2.17.83-.14.07-.22.05-.33-.05-.7-.66-1.08-1.48-1.2-2.42-.03-.23-.07-.45-.05-.63Z"></path><path class="cls-4" d="m191.81,119.86c-.02.86-.35,1.9-1.21,2.73-.13.13-.24.16-.41.08-.68-.34-1.4-.58-2.12-.81-.07-.02-.21-.02-.18-.12.03-.12.12-.22.2-.31.08-.09.13.02.18.06.37.27.78.3,1.16.07.35-.21.52-.6.45-1.02-.06-.39-.37-.7-.81-.8-.06-.01-.15,0-.15-.09,0-.06.01-.12.05-.17.06-.08.12,0,.17.03.42.19.87.12,1.17-.18.3-.3.38-.77.19-1.15-.2-.41-.59-.61-1.09-.54-.13.02-.16-.02-.16-.14-.02-.38.01-.41.39-.33.2.04.39.09.58.16,1.13.37,1.6,1.04,1.6,2.53Z"></path><path class="cls-4" d="m180,124.39c-.51,0-.93-.42-.93-.93,0-.51.44-.95.96-.94.51,0,.92.43.91.95,0,.52-.42.93-.94.93Z"></path><path class="cls-4" d="m173.46,124.51c.36-.3.68-.57,1-.84.07-.06.15-.07.23-.03.34.15.68.29,1.02.44.15.06.12.13.02.21-.29.23-.57.47-.85.71-.06.05-.12.08-.2.05-.39-.17-.78-.34-1.22-.54Z"></path><path class="cls-4" d="m185.29,125.06c-.09.02-.12-.02-.16-.05-.29-.24-.58-.49-.87-.73-.12-.1-.09-.15.04-.2.33-.14.66-.29.99-.43.09-.04.17-.05.26.02.29.25.58.49.87.73.05.04.13.1.02.15-.39.18-.78.35-1.15.51Z"></path><path class="cls-7" d="m168.27,123.46s.02-.01.03-.02c0,0-.01.02-.02.03,0,0-.01-.01-.01-.01Z"></path><path class="cls-4" d="m180.02,131.97c4.54,0,9.09,0,13.63,0,.25,0,.33.05.33.31-.01,1.52-.01,3.04,0,4.56,0,.22-.04.31-.29.3-9.12,0-18.25,0-27.37,0-.22,0-.28-.06-.28-.28.01-1.54.01-3.07,0-4.61,0-.24.08-.29.3-.29,4.56,0,9.12,0,13.69,0Z"></path><path class="cls-4" d="m189.98,156.64c-1.11.79-2.22,1.58-3.33,2.36-.21.15-.41.32-.65.43,0-.12,0-.24,0-.35,0-6.98,0-13.95,0-20.93,1.33-.01,2.66-.03,3.99.01,0,6,0,12,0,18,0,.16,0,.32,0,.48Z"></path><path class="cls-4" d="m170.03,138.15c1.33,0,2.65,0,3.98,0,0,.11,0,.22,0,.33,0,6.87,0,13.73,0,20.6,0,.12,0,.24,0,.35-1.1-.77-2.2-1.54-3.3-2.31-.23-.16-.45-.32-.68-.48,0-.12,0-.24,0-.35,0-4.64,0-9.28,0-13.91,0-1.41,0-2.82,0-4.22Z"></path><path class="cls-8" d="m170.03,138.15c0,1.41,0,2.82,0,4.22,0,4.64,0,9.28,0,13.91,0,.12,0,.24,0,.35-.53-.37-1.06-.74-1.58-1.12-.41-.3-.83-.58-1.21-.91-.62-.55-.88-1.3-1.08-2.08-.08-.31-.11-.63-.11-.95,0-4.4,0-8.79,0-13.19,0-.24.08-.29.3-.29,1.14.01,2.28,0,3.41,0,.09,0,.19-.01.27.04Z"></path><path class="cls-8" d="m189.98,156.64c0-.16,0-.32,0-.48,0-6,0-12,0-18,.07-.08.17-.06.26-.06,1.16,0,2.33,0,3.49,0,.22,0,.26.07.26.27,0,4.35,0,8.69-.01,13.04,0,.99-.25,1.95-.84,2.78-.28.4-.68.67-1.07.95-.69.51-1.37,1.03-2.09,1.49Z"></path><path class="cls-8" d="m185.99,138.16c0,6.98,0,13.95,0,20.93,0,.12,0,.24,0,.35-.3.31-.68.51-1.03.76-.92.65-1.84,1.29-2.76,1.93-.06.04-.14.06-.2.09,0-.04,0-.08,0-.13,0-3.03,0-6.07,0-9.1.01-.14.15-.18.24-.24.75-.51,1.52-1,2.25-1.54.62-.46.97-1.07.96-1.88-.02-2.22,0-4.44,0-6.66,0-.21-.06-.27-.27-.27-1.06,0-2.13,0-3.19,0,0-1.42,0-2.84,0-4.25.08-.05.18-.05.27-.05,1.15,0,2.3,0,3.46,0,.09,0,.19,0,.27.05Z"></path><path class="cls-8" d="m174,159.44c0-.12,0-.24,0-.35,0-6.87,0-13.73,0-20.6,0-.11,0-.22,0-.33.08-.05.16-.05.24-.05,1.17,0,2.34,0,3.51,0,.08,0,.17-.02.24.05,0,1.42,0,2.83,0,4.25-1.05,0-2.11,0-3.16,0-.23,0-.3.05-.3.29,0,2.24,0,4.49,0,6.73,0,.7.33,1.25.86,1.7.48.4,1.02.71,1.53,1.07.36.25.74.47,1.06.76,0,2.39,0,4.78,0,7.16,0,.7,0,1.4,0,2.1-.45-.24-.84-.55-1.25-.84-.81-.55-1.61-1.12-2.42-1.68-.12-.08-.22-.18-.33-.27Z"></path><path class="cls-4" d="m177.99,162.23c0-.7,0-1.4,0-2.1,0-2.39,0-4.78,0-7.16.05.03.11.05.15.08.56.37,1.12.74,1.67,1.13.13.09.23.09.35,0,.51-.35,1.03-.7,1.54-1.05.08-.05.15-.14.27-.12,0,3.03,0,6.07,0,9.1,0,.04,0,.08,0,.13-.44.37-.93.67-1.4,1-.61.42-.61.42-1.21,0-.47-.33-.93-.66-1.4-.99Z"></path><path class="cls-4" d="m178.01,142.41c0-1.42,0-2.83,0-4.25.4,0,.81-.02,1.21-.02.93,0,1.85,0,2.78.01,0,1.42,0,2.84,0,4.25-1.33,0-2.65,0-3.98,0Z"></path><path class="cls-5" d="m180.34,117.17c.18.11.35.23.44.43.19.4.09.81-.28,1.1-.13.1-.15.13,0,.24.35.25.46.65.32,1.03-.13.36-.52.6-.9.56-.4-.04-.71-.33-.78-.75-.06-.36.09-.64.37-.85.08-.06.15-.09.02-.2-.6-.51-.56-1.09.13-1.57-.32-.2-.54-.46-.54-.84,0-.25.11-.47.31-.64.36-.32.94-.28,1.24.09.37.45.25.97-.33,1.4Z"></path><path class="cls-5" d="m178.01,142.41c1.33,0,2.65,0,3.98,0,1.06,0,2.13,0,3.19,0,.21,0,.27.06.27.27,0,2.22-.01,4.44,0,6.66,0,.81-.35,1.42-.96,1.88-.73.54-1.5,1.03-2.25,1.54-.09.06-.23.09-.24.24-.12-.02-.19.06-.27.12-.52.35-1.03.69-1.54,1.05-.13.09-.22.1-.35,0-.55-.38-1.11-.75-1.67-1.13-.05-.03-.1-.05-.15-.08-.32-.29-.7-.51-1.06-.76-.51-.36-1.05-.67-1.53-1.07-.53-.44-.86-.99-.86-1.7,0-2.24,0-4.49,0-6.73,0-.24.07-.29.3-.29,1.05,0,2.11,0,3.16,0Zm4.65,6.08c.31,0,.61.09.92.06.29-.03.51-.16.7-.41-.5-.02-.9-.21-1.28-.51,1-.07,1.58-.36,1.71-.85-.7.04-.86,0-1.06-.26.28,0,.56-.01.83-.11.23-.08.42-.22.48-.48.03-.11.06-.21-.14-.16-.4.09-.74-.08-1.11-.34.31-.07.56-.11.78-.22.18-.09.33-.21.35-.43.02-.15,0-.25-.2-.16-.25.11-.52.11-.81,0,.23-.14.43-.26.58-.44.24-.27.39-.57.28-.95-.05-.17-.13-.26-.32-.11-.62.49-1.31.79-2.12.72-.31-.03-.44.12-.49.43-.04.24,0,.47.05.7.1.46-.05.85-.31,1.21-.08.12-.17.25-.34.23-.17-.02-.22-.17-.27-.3-.14-.38-.2-.76-.13-1.17.05-.31.12-.61.12-.93,0-.42-.18-.69-.51-.78-.42-.11-.84-.05-1.21.11-.2.09-.35.09-.53.06-.34-.06-.42-.02-.54.3-.03.07-.02.14-.15.15-.85.05-1.6-.18-2.26-.71-.2-.16-.3-.12-.35.13-.08.35.06.65.29.9.16.17.35.3.59.44-.3.12-.57.12-.82,0-.2-.09-.22,0-.2.16.03.24.21.36.4.45.21.11.46.13.73.21-.41.29-.8.45-1.26.31,0,.18.04.33.15.44.32.33.76.3,1.21.34-.34.34-.73.29-1.15.24.43.66,1.01.92,1.81.83-.42.34-.83.52-1.34.55.48.58,1.08.41,1.68.32-.08.16-.2.26-.3.37-.06.06-.2.09-.17.19.03.09.16.11.26.13.17.03.34.02.5-.02.36-.09.68-.26.97-.48.16-.12.31-.27.49-.42,0,.25-.12.42-.25.57-.26.33-.57.6-.92.83-.17.11-.35.16-.55.12-.26-.05-.52-.06-.78.02-.3.09-.46.3-.44.58.26-.06.5-.21.78-.16.07.01.17.01.19.1.02.07-.06.12-.11.16-.31.28-.64.52-1.03.7.36.23.69.09,1.02-.04.04.1-.02.18-.03.26-.02.25.05.47.26.62.05.04.15.12.16-.03.02-.57.34-1.02.64-1.46.35-.51.86-.83,1.47-1.07-.11.5-.26.92-.69,1.18-.1.06-.19.14-.28.22-.26.23-.32.57-.15.79.19.23.43.24.75,0,.01,0,.03-.02.04-.03.12-.08.24-.15.37-.03.12.12.15.27.06.42-.06.1-.14.19-.22.28-.31.35-.34.72-.06,1.02.27.29.82.34,1.13.08.36-.29.38-.73.05-1.05-.06-.06-.12-.12-.17-.18-.13-.17-.13-.46,0-.56.18-.14.32-.01.45.09.16.13.33.2.54.1.34-.16.38-.59.07-.89-.14-.14-.32-.25-.47-.38-.33-.26-.43-.63-.52-1.04.65.22,1.26.69,1.59,1.23.23.37.46.75.53,1.19,0,.05-.05.12.02.16.07.03.12-.03.17-.07.17-.14.22-.33.21-.55,0-.09-.02-.18-.04-.3.35.14.67.27,1.03.04-.37-.16-.66-.38-.95-.62-.08-.07-.23-.14-.19-.24.05-.12.22-.11.34-.1.09,0,.18.03.27.06.12.03.23.07.36.11,0-.32-.17-.51-.49-.59-.25-.06-.5-.04-.75,0-.14.02-.27.03-.39-.05-.48-.28-.89-.63-1.19-1.11-.06-.1-.12-.21-.09-.37.39.42.82.72,1.34.87.24.07.48.1.72,0,.14-.05.21-.11.04-.23-.14-.1-.28-.22-.34-.39h0Z"></path><path class="cls-3" d="m182.65,148.5c.06.17.2.29.34.39.17.12.1.17-.04.23-.24.09-.48.07-.72,0-.52-.16-.95-.46-1.34-.87-.04.16.02.27.09.37.3.47.71.83,1.19,1.11.13.07.26.07.39.05.25-.04.5-.06.75,0,.32.08.48.27.49.59-.12-.04-.24-.08-.36-.11-.09-.02-.18-.05-.27-.06-.13-.01-.29-.02-.34.1-.04.1.11.17.19.24.28.24.58.46.95.62-.36.22-.69.09-1.03-.04.02.13.03.21.04.3.02.21-.04.4-.21.55-.05.04-.1.11-.17.07-.07-.03-.02-.1-.02-.16-.06-.45-.3-.82-.53-1.19-.33-.54-.94-1.01-1.59-1.23.09.41.19.78.52,1.04.16.13.33.24.47.38.31.3.27.73-.07.89-.21.1-.37.03-.54-.1-.13-.1-.27-.23-.45-.09-.13.1-.12.39,0,.56.05.07.11.12.17.18.33.32.31.77-.05,1.05-.31.25-.87.21-1.13-.08-.27-.3-.25-.67.06-1.02.08-.09.16-.18.22-.28.08-.15.06-.3-.06-.42-.12-.12-.25-.05-.37.03-.01,0-.03.02-.04.03-.32.23-.57.22-.75,0-.17-.22-.11-.56.15-.79.09-.08.18-.16.28-.22.43-.26.57-.68.69-1.18-.61.24-1.12.56-1.47,1.07-.3.44-.62.89-.64,1.46,0,.15-.1.07-.16.03-.21-.15-.28-.37-.26-.62,0-.08.07-.16.03-.26-.33.13-.66.26-1.02.04.39-.18.72-.42,1.03-.7.05-.04.13-.09.11-.16-.02-.08-.12-.08-.19-.1-.28-.05-.52.1-.78.16-.02-.28.14-.49.44-.58.26-.08.52-.07.78-.02.2.04.38-.01.55-.12.35-.23.66-.5.92-.83.12-.16.24-.32.25-.57-.18.15-.33.3-.49.42-.29.22-.61.39-.97.48-.16.04-.33.05-.5.02-.1-.02-.23-.04-.26-.13-.03-.1.11-.13.17-.19.1-.11.22-.21.3-.37-.6.09-1.2.26-1.68-.32.51-.02.92-.21,1.34-.55-.8.09-1.38-.16-1.81-.83.42.04.8.1,1.15-.24-.45-.04-.89,0-1.21-.34-.11-.11-.16-.25-.15-.44.46.14.85-.02,1.26-.31-.28-.07-.52-.1-.73-.21-.19-.1-.37-.21-.4-.45-.02-.16,0-.25.2-.16.25.11.52.11.82,0-.23-.14-.43-.27-.59-.44-.23-.26-.37-.55-.29-.9.05-.26.15-.29.35-.13.66.53,1.41.76,2.26.71.13,0,.13-.08.15-.15.12-.32.2-.36.54-.3.18.03.34.03.53-.06.37-.16.8-.23,1.21-.11.33.09.51.37.51.78,0,.31-.07.62-.12.93-.07.4-.01.79.13,1.17.05.13.11.28.27.3.17.02.26-.11.34-.23.26-.36.41-.75.31-1.21-.05-.23-.09-.47-.05-.7.05-.31.18-.46.49-.43.82.07,1.5-.23,2.12-.72.19-.15.27-.06.32.11.11.37-.04.68-.28.95-.15.18-.35.3-.58.44.3.12.56.12.81,0,.2-.09.22,0,.2.16-.02.22-.17.34-.35.43-.22.12-.47.15-.78.22.37.26.71.43,1.11.34.2-.05.17.05.14.16-.07.25-.25.39-.48.48-.27.09-.55.1-.83.11.2.26.36.3,1.06.26-.13.49-.71.78-1.71.85.38.31.78.49,1.28.51-.19.25-.41.38-.7.41-.31.03-.62-.05-.92-.06.01-.02,0-.03-.02-.03,0,0-.01,0-.02,0,.01,0,.02.02.03.03Zm-3.76-4.59s0-.05,0-.07c-.23-.04-.45-.09-.68.02-.04.02-.14.01-.09.11.15.26.07.53.04.79-.03.29-.02.57.03.86.05.26.13.57.41.61.41.06.48.28.45.61,0,0,.03.02.04.02.01,0,.03-.01.04-.02.61-.55.67-1.36.14-1.97-.14-.16-.2-.34-.28-.52-.1-.21-.39-.03-.57-.14-.06-.04-.1-.09-.1-.16,0-.1.09-.12.16-.12.13,0,.26,0,.39,0Z"></path><path class="cls-5" d="m178.89,143.9c-.13,0-.26,0-.39,0-.08,0-.16.02-.16.12,0,.07.04.12.1.16.18.11.47-.07.57.14.09.18.15.37.28.52.53.61.47,1.43-.14,1.97-.01.01-.03.02-.04.02-.01,0-.04-.02-.04-.02.03-.34-.04-.56-.45-.61-.28-.04-.36-.35-.41-.61-.05-.28-.06-.57-.03-.86.03-.26.11-.53-.04-.79-.06-.09.05-.09.09-.11.23-.11.45-.06.68-.02,0,.02,0,.05,0,.07Z"></path><path class="cls-5" d="m182.65,148.5s-.02-.02-.03-.03c0,0,.01,0,.02,0,.02,0,.03.01.02.03,0,0,0,0,0,0Z"></path></g><g id="Collar"><g><path class="cls-12" d="m228.13,0c-47.95,21.23-96.19,0-96.19,0l-11.4,11.93s17.44,12.57,60.3,12.59c41.56-.02,57.7-11.83,58.66-12.59l-11.36-11.93Z"></path><path class="cls-17" d="m179.91,49.55c-17.16,0-32.32-13.96-40.98-33.2,9.66,3.53,23.39,6.63,41.81,6.64,17.62,0,30.67-2.84,39.93-6.18-8.69,19-23.74,32.75-40.77,32.75Z"></path></g><path class="cls-10" d="m228.07,0c-3.51,23.5-48.07,51.67-48.07,51.67,0,0-44.55-28.17-48.07-51.67l-11.43,11.93c5.43,19.72,29.25,36.16,45.05,45.17,8.33,4.75,14.44,7.43,14.44,7.43,0,0,51.2-22.48,59.49-52.6L228.07,0Z"></path><polygon class="cls-10" points="180.1 78.76 169.23 78.76 159.81 49.55 180.1 55.39 180.1 78.76"></polygon><polygon class="cls-10" points="180.1 78.76 190.98 78.76 200.39 49.55 180.1 55.39 180.1 78.76"></polygon><polygon points="180.1 78.76 188.46 45.98 171.74 45.98 180.1 78.76"></polygon><path class="cls-12" d="m159.81,36.79s-21.84-16.68-28-36.79l-11.4,11.93s4.37,26.31,27.82,39.62l11.58-14.76Z"></path><path class="cls-12" d="m200.09,36.79S221.93,20.11,228.09,0l11.4,11.93s-4.37,26.31-27.82,39.62l-11.58-14.76Z"></path></g><path d="m.16,192.25c.24-4.71.59-10.54,1.08-17.06,19.03,16.52,61.74,19.35,66.78,12.97.36,5.28.55,10.88.49,16.74-.08,8.13-48.79,5.81-68.36-12.65Z"></path><path d="m359.76,192.31c-.24-4.7-.59-10.5-1.08-17.01-18.97,16.47-61.53,19.29-66.56,12.93-.36,5.26-.55,10.85-.49,16.68.08,8.11,48.62,5.79,68.13-12.61Z"></path></g></g></g></svg> 