<?xml version="1.0" encoding="UTF-8"?>
<svg xmlns="http://www.w3.org/2000/svg" viewBox="0 0 360 500"><defs><style> .cls-1 { fill: none; }  .cls-2 { clip-path: url(#clippath); }  .cls-3 { fill: #eb0122; }  .cls-4 { fill: #fff; }  .cls-5 { fill: #fefefe; }  .cls-6 { fill: #b2022c; }  .cls-7 { fill: #db0024; }  .cls-8 { fill: #c90027; }  .cls-9 { fill: #e22220; }  .cls-10 { fill: #241f20; }  .cls-11, .cls-12 { fill: #231f20; }  .cls-13 { fill: #a50020; }  .cls-14 { isolation: isolate; }  .cls-15 { mix-blend-mode: multiply; opacity: .2; }  .cls-12 { opacity: .5; } </style><clipPath id="clippath"><path id="Body-2" data-name="Body" class="cls-1" d="m306.4,70.7c4.94,30.41-6.86,72.07-6.86,72.07,0,0-8.92,26.28-8.55,61.66l11.3,284.82c-81.15,12.86-163.84,12.86-244.99,0l11.72-284.82c.37-35.38-8.55-61.66-8.55-61.66,0,0-11.79-41.61-6.87-72.02.97-5.99,66.7-35.3,66.7-35.3l121.78.34s63.35,28.88,64.33,34.9Z"></path></clipPath></defs><g class="cls-14"><g id="Laag_1" data-name="Laag 1"><g id="Antwerp"><path id="Jersey_Color" data-name="Jersey Color" class="cls-9" d="m292.65,44.28c16.62,10.47,32.78,21.75,41.5,30.8,17.97,18.64,23.34,88.22,24.81,116.78-19.47,18.36-67.9,20.67-67.98,12.58l11.3,284.82c-81.15,12.86-163.84,12.86-244.99,0l11.72-284.82c-.08,8.09-48.51,5.78-67.98-12.58,1.47-28.56,6.84-98.14,24.81-116.78,8.73-9.05,24.88-20.33,41.5-30.8l53.35-31.3,11.35-11.88s48.03,21.14,95.77,0l10.69,11.51,54.14,31.66Z"></path><path id="Body" class="cls-7" d="m238.51,12.62l54.14,31.66c29,20.4,6.88,98.5,6.88,98.5,0,0-8.92,26.28-8.55,61.66l11.3,284.82c-81.15,12.86-163.84,12.86-244.99,0l11.72-284.82c.37-35.38-8.55-61.66-8.55-61.66,0,0-22.12-78.1,6.88-98.5l53.97-31.66h117.19Z"></path><g id="Jersey_Pattern" data-name="Jersey Pattern"><g class="cls-2"><rect class="cls-7" x="1.04" y="1.11" width="357.93" height="497.79"></rect><g><rect class="cls-4" x="44.06" y="-1.79" width="60.86" height="500.68"></rect><rect class="cls-4" x="255.07" y="-1.79" width="60.86" height="500.68"></rect></g></g></g><g id="Sleeves"><path class="cls-7" d="m290.98,204.43c.08,8.09,48.51,5.78,67.98-12.58-1.47-28.56-6.84-98.14-24.81-116.78-8.73-9.05-24.89-20.33-41.5-30.8,29,20.4,6.88,98.5,6.88,98.5,0,0-8.92,26.28-8.55,61.66Z"></path><path class="cls-7" d="m69.01,204.43c-.08,8.09-48.51,5.78-67.98-12.58,1.47-28.56,6.84-98.14,24.81-116.78,8.73-9.05,24.88-20.33,41.5-30.8-29,20.4-6.88,98.5-6.88,98.5,0,0,8.92,26.28,8.55,61.66Z"></path></g><g id="Cuffs"><g><path class="cls-4" d="m1.04,191.86c.24-4.69.59-10.48,1.08-16.97,18.93,16.43,61.39,19.25,66.41,12.9.36,5.25.55,10.82.49,16.64-.08,8.09-48.51,5.78-67.98-12.58Z"></path><path class="cls-4" d="m358.96,191.86c-.24-4.69-.59-10.48-1.08-16.97-18.93,16.43-61.39,19.25-66.41,12.9-.36,5.25-.55,10.82-.49,16.64.08,8.09,48.51,5.78,67.98-12.58Z"></path><path class="cls-7" d="m358.58,185.24c-19.79,17.79-66.8,20.51-67.61,12.69.01-.72.06-1.89.08-2.6,1.85,7.48,47.69,4.65,67.34-12.81l.19,2.72Z"></path><path class="cls-7" d="m1.16,185.24c19.83,17.79,66.93,20.51,67.74,12.69-.01-.72-.06-1.89-.08-2.6-1.85,7.48-47.78,4.65-67.47-12.81l-.19,2.72Z"></path></g></g><g id="Shading" class="cls-15"><path class="cls-11" d="m68.42,217.8c3.27-41.91-7.96-75.02-7.96-75.02,0,0-3.9-13.78-6.28-31.27l29.29,67.83c2.75,6.37,4.41,17.24,3.69,24.14l-29.85,285.77,11.12-271.45Z"></path><path class="cls-11" d="m291.59,217.8c-3.27-41.91,7.96-75.02,7.96-75.02,0,0,3.9-13.78,6.28-31.27l-29.29,67.83c-2.75,6.37-4.41,17.24-3.69,24.14l29.44,285.77-10.7-271.45Z"></path><path class="cls-12" d="m51.24,54.85c5.15-3.54,10.6-7.1,16.1-10.57-10.62,7.47-14.39,22.68-14.89,38.96,0,0-8.57-22.99-1.21-28.39Z"></path><path class="cls-12" d="m309.29,55.2c-5.15-3.54-11.13-7.46-16.64-10.93,10.62,7.47,14.55,22.68,15.05,38.96,0,0,8.94-22.63,1.58-28.03Z"></path><path class="cls-12" d="m157.79,36.55c-11.81-11.79-22.78-21.17-25.75-35.44,0,0,7.43,3.27,19.35,5.95,0,0-.95,9.23,6.4,29.49Z"></path></g><g id="Collar"><g><path class="cls-13" d="m183.92,37.02s8.27-5.02,18.37-12.59c-6.24.73-13.37,1.18-21.47,1.19-8.81,0-16.54-.54-23.28-1.38,10.26,7.68,18.72,12.79,18.72,12.79l3.73,1.07,3.92-1.07Z"></path><path class="cls-6" d="m228.12,1.11c-47.95,21.23-96.19,0-96.19,0l-11.4,11.93s17.44,12.57,60.3,12.59c41.56-.02,57.7-11.83,58.66-12.59l-11.36-11.93Z"></path></g><g><path class="cls-8" d="m176.27,37.02s-28.5-17.22-44.35-35.92l-11.4,11.93s13.91,27.48,37.37,40.79l18.38-16.8Z"></path><path class="cls-8" d="m183.92,37.02s28.35-17.22,44.2-35.92l11.36,11.93s-13.73,27.48-37.18,40.79l-18.38-16.8Z"></path></g><g id="Bottom"><path class="cls-13" d="m176.58,55.83h-.63v-12.7c0-6.35,7.89-6.42,7.97-6.42v.63c-.3,0-7.34.07-7.34,5.78v12.7Z"></path><path id="Buttom" class="cls-13" d="m183.05,44.46c0-1.6-1.3-2.9-2.9-2.9s-2.9,1.29-2.9,2.9,1.3,2.9,2.9,2.9,2.9-1.3,2.9-2.9Z"></path></g></g><g><path class="cls-3" d="m197.12,101.51c0,2.35,0,4.69-.04,7.04-.03,1.52-.12,3.03-.29,4.53-.5,4.32-1.92,8.32-4.17,12.03-2.35,3.87-5.41,7.06-9.09,9.67-1.08.77-2.2,1.46-3.38,2.07-.1.05-.17.05-.27,0-1.73-.89-3.34-1.98-4.87-3.18-4.23-3.33-7.44-7.46-9.6-12.4-.9-2.05-1.53-4.19-1.92-6.39-.25-1.41-.4-2.83-.48-4.27-.16-3.17-.13-6.33-.12-9.5,0-2.52.08-5.04.15-7.57.01-.44.04-.88.05-1.32,0-.09.02-.12.12-.12,2.05-.07,3.9-.73,5.54-1.96.85-.64,1.45-1.47,1.93-2.4.59-1.13.97-2.33,1.11-3.6.03-.26.04-.53.04-.79,0-.09.03-.13.12-.11.02,0,.05,0,.07,0,5.31,0,10.63,0,15.94,0,.15,0,.19.03.2.19.1,2.27.84,4.31,2.34,6.03.65.74,1.48,1.26,2.36,1.68,1.24.59,2.55.95,3.93.97.09,0,.1.03.11.11.06,1.6.11,3.21.14,4.81.03,1.5.06,2.99.06,4.49Zm-2.06.86c0-2.73-.06-5.46-.15-8.18q0-.23-.22-.27c-1.21-.27-2.36-.7-3.44-1.31-1.4-.78-2.53-1.84-3.36-3.21-.75-1.23-1.27-2.56-1.56-3.97-.02-.11-.06-.13-.16-.13-1.08,0-2.16,0-3.24,0-3.02,0-6.04,0-9.06,0-.14,0-.19.04-.21.18-.21,1.07-.58,2.08-1.06,3.06-.87,1.75-2.13,3.13-3.85,4.08-1.1.61-2.27,1.06-3.5,1.32-.08.02-.16.01-.16.15-.02,1.22-.06,2.44-.09,3.67-.08,3.75-.09,7.5,0,11.25.04,1.88.19,3.76.53,5.61.32,1.78.8,3.51,1.48,5.18,1.38,3.37,3.28,6.4,5.78,9.06,2.09,2.23,4.44,4.12,7.08,5.66.1.06.17.06.27,0,4.4-2.61,8-6.04,10.69-10.42,2.26-3.69,3.6-7.67,4-11.98.12-1.29.18-2.57.2-3.86.03-1.96.04-3.91.04-5.87Z"></path><path class="cls-5" d="m195.06,102.38c0,1.96,0,3.91-.04,5.87-.02,1.29-.09,2.58-.2,3.86-.39,4.31-1.74,8.3-4,11.98-2.68,4.38-6.28,7.81-10.69,10.42-.1.06-.17.06-.27,0-2.64-1.54-4.99-3.44-7.08-5.66-2.49-2.66-4.4-5.69-5.78-9.06-.68-1.67-1.17-3.4-1.48-5.18-.33-1.86-.48-3.73-.53-5.61-.09-3.75-.08-7.5,0-11.25.03-1.22.06-2.44.09-3.67,0-.13.08-.13.16-.15,1.24-.26,2.4-.71,3.5-1.32,1.72-.95,2.98-2.33,3.85-4.08.48-.97.85-1.99,1.06-3.06.03-.13.07-.18.21-.18,3.02,0,6.04,0,9.06,0,1.08,0,2.16,0,3.24,0,.1,0,.14.02.16.13.29,1.41.81,2.74,1.56,3.97.83,1.37,1.97,2.43,3.36,3.21,1.08.61,2.23,1.05,3.44,1.31q.22.05.22.27c.09,2.73.14,5.45.15,8.18Zm-1.8,6c0-7.32-5.93-13.27-13.25-13.27-7.32,0-13.27,5.94-13.27,13.27,0,7.32,5.93,13.26,13.25,13.28,7.31.02,13.27-5.94,13.27-13.27Z"></path><path class="cls-3" d="m193.26,108.37c0,7.33-5.96,13.29-13.27,13.27-7.33-.02-13.26-5.96-13.25-13.28,0-7.33,5.95-13.28,13.27-13.27,7.32,0,13.26,5.95,13.25,13.27Zm-3.16,0c0-5.57-4.5-10.1-10.08-10.11-5.58-.01-10.11,4.5-10.13,10.08-.01,5.58,4.51,10.12,10.09,10.13,5.57.01,10.1-4.52,10.11-10.1Z"></path><path class="cls-5" d="m190.1,108.38c0,5.58-4.55,10.11-10.11,10.1-5.59-.01-10.1-4.55-10.09-10.13.01-5.58,4.55-10.09,10.13-10.08,5.57.01,10.08,4.54,10.08,10.11Zm-18.41,4.42s-.01,0-.02.01c0,0,0,0,0,0,0,0,0-.02.01-.02-.05.06.01.1.03.14.61,1.11,1.41,2.06,2.41,2.84,1.25.99,2.67,1.62,4.24,1.91.13.02.15-.01.15-.13.02-.45,0-.91,0-1.36,0-.17-.06-.23-.22-.27-2.05-.57-4.03-1.32-5.79-2.55-.28-.19-.57-.36-.82-.58Zm7.94-1.59c-.01-.77-.1-1.51-.25-2.24-.02-.08-.04-.11-.13-.12-.26-.02-.52-.04-.77-.08-.66-.09-1.3-.23-1.9-.55-.75-.4-1.37-.94-1.86-1.62-.13-.18-.26-.25-.48-.24-.39.01-.78-.05-1.16-.13-.67-.13-1.28-.42-1.86-.78-.17-.11-.17-.11-.23.09-.15.48-.26.96-.33,1.45-.22,1.54-.08,3.04.43,4.51.02.06.04.1.09.14,1.08.84,2.2,1.61,3.42,2.23,1.17.59,2.41,1.01,3.66,1.38.34.1.34.1.5-.22.62-1.21.86-2.5.88-3.83Zm5.44.06c0-.5-.04-1.01-.09-1.51-.15-1.29-.45-2.54-.93-3.75-.04-.1-.06-.13-.18-.07-1.43.71-2.68,1.67-3.85,2.75-.06.06-.07.11-.05.18.24,1.12.33,2.24.2,3.38-.13,1.17-.44,2.29-1.02,3.32-.04.07-.05.13-.05.21.03.62.07,1.24.02,1.86-.01.14.04.16.15.17,1.66.11,3.25-.16,4.76-.87.09-.04.14-.09.17-.18.63-1.77.88-3.61.88-5.48Zm-4.9-9.71c.16.15.3.31.37.51.03.08.05.17-.02.25-.08.08-.18.09-.27.05-.1-.04-.19-.09-.29-.14-.14-.07-.27-.23-.4-.21-.14.02-.25.17-.38.26,0,0,0,0-.01,0-.08.04-.06.07,0,.13.14.11.27.23.34.4.07.17-.02.29-.19.28-.06,0-.12-.01-.17-.03-.18-.05-.35-.13-.51-.21-.07-.04-.13-.04-.19.02-.12.11-.24.21-.37.31-.07.05-.09.08,0,.15.14.1.27.23.35.39.09.17,0,.31-.18.31-.11,0-.21-.03-.31-.08-.12-.06-.25-.12-.37-.18-.07-.04-.12-.04-.18.02-.09.09-.19.17-.28.26-.68.63-1.33,1.28-1.97,1.95-.04.04-.08.06-.03.13.58.79,1.28,1.42,2.21,1.77.69.26,1.41.32,2.14.38.11,0,.18-.02.26-.1,1.23-1.12,2.55-2.13,4.06-2.84.1-.05.17-.11.22-.21.53-1,1.23-1.84,2.21-2.43.3-.18.61-.36.92-.53,0-.02-.01-.03-.02-.04-.93-1.05-2.03-1.86-3.32-2.42-.07-.03-.13-.02-.19,0-.43.18-.85.38-1.27.6-.25.13-.5.27-.76.41.14.15.27.28.33.46.07.19-.01.3-.22.27-.06,0-.12-.03-.18-.05-.17-.08-.35-.16-.52-.23-.04-.02-.07-.05-.12-.02-.22.14-.44.28-.67.43Zm4.76,14.88s.06-.03.08-.04c1.27-.8,2.31-1.84,3.08-3.12,1.25-2.09,1.64-4.33,1.19-6.72-.27-1.43-.86-2.72-1.73-3.88-.05-.07-.09-.08-.16-.04-.15.1-.31.19-.47.28-1.03.6-1.85,1.4-2.4,2.47-.03.07-.05.12-.02.2.65,1.51,1,3.1,1.12,4.73.12,1.56,0,3.1-.32,4.63-.1.49-.23.98-.38,1.49Zm-2.08-17.06s-.08-.04-.12-.06c-1.61-.48-3.24-.54-4.88-.15-2.03.48-3.71,1.52-5.07,3.11-.6.71-1.09,1.49-1.45,2.34-.02.05-.06.1.02.15.93.63,1.93,1.05,3.07,1.03.08,0,.12-.04.17-.09.69-.73,1.4-1.44,2.14-2.13.04-.04.09-.06.11-.12-.11-.05-.22-.08-.32-.14-.11-.06-.2-.13-.17-.28.03-.14.14-.18.26-.19.24-.03.47.02.69.09.05.02.09.04.15,0,.16-.14.32-.28.49-.43-.05-.03-.09-.06-.13-.08-.18-.11-.27-.26-.23-.38.03-.1.19-.15.39-.12.15.02.3.04.44.09.05.02.09.03.14,0,.15-.11.29-.22.44-.34-.14-.1-.27-.17-.36-.3-.08-.13-.05-.22.09-.27.07-.03.14-.03.22-.03.2.01.39.06.57.12.04.01.08.04.11.02.21-.14.42-.28.63-.42-.11-.07-.2-.14-.26-.23-.07-.09-.13-.2-.07-.31.06-.11.19-.09.29-.08.23.02.46.07.68.15.05.02.08.03.14,0,.58-.34,1.19-.65,1.8-.94Z"></path><path class="cls-10" d="m179.63,111.21c-.02,1.33-.26,2.62-.88,3.83-.16.31-.16.32-.5.22-1.25-.37-2.49-.78-3.66-1.38-1.22-.62-2.34-1.39-3.42-2.23-.05-.04-.07-.09-.09-.14-.51-1.47-.65-2.97-.43-4.51.07-.49.18-.98.33-1.45.06-.2.06-.2.23-.09.58.36,1.19.65,1.86.78.38.08.77.14,1.16.13.22,0,.35.06.48.24.5.68,1.12,1.22,1.86,1.62.6.32,1.24.46,1.9.55.26.03.51.06.77.08.08,0,.11.04.13.12.16.73.24,1.47.25,2.24Z"></path><path class="cls-10" d="m185.07,111.27c0,1.87-.25,3.71-.88,5.48-.03.09-.08.14-.17.18-1.51.71-3.1.98-4.76.87-.12,0-.16-.03-.15-.17.05-.62.01-1.24-.02-1.86,0-.08,0-.14.05-.21.59-1.03.9-2.14,1.02-3.32.12-1.14.04-2.26-.2-3.38-.02-.07,0-.13.05-.18,1.17-1.08,2.41-2.04,3.85-2.75.12-.06.14-.02.18.07.49,1.21.78,2.46.93,3.75.06.5.09,1,.09,1.51Z"></path><path class="cls-10" d="m180.17,101.56c.23-.15.45-.29.67-.43.05-.03.08,0,.12.02.17.08.35.16.52.23.06.02.12.04.18.05.2.03.29-.08.22-.27-.07-.18-.2-.31-.33-.46.26-.14.51-.28.76-.41.42-.22.84-.42,1.27-.6.07-.03.12-.04.19,0,1.29.56,2.39,1.37,3.32,2.42,0,0,0,.02.02.04-.31.17-.62.35-.92.53-.98.59-1.68,1.43-2.21,2.43-.05.1-.12.16-.22.21-1.52.72-2.83,1.72-4.06,2.84-.08.07-.15.1-.26.1-.73-.05-1.45-.12-2.14-.38-.93-.35-1.63-.98-2.21-1.77-.05-.07,0-.09.03-.13.64-.67,1.29-1.32,1.97-1.95.09-.09.19-.17.28-.26.06-.06.11-.06.18-.02.12.07.24.12.37.18.1.05.2.08.31.08.19,0,.27-.14.18-.31-.09-.16-.21-.28-.35-.39-.09-.06-.07-.09,0-.15.13-.1.25-.2.37-.31.07-.06.12-.06.19-.02.16.08.33.16.51.21.06.01.11.03.17.03.18,0,.26-.11.19-.28-.07-.17-.2-.29-.34-.4-.06-.05-.07-.08,0-.13,0,0,0,0,.01,0,.13-.09.24-.24.38-.26.14-.02.27.14.4.21.09.05.19.1.29.14.1.04.19.03.27-.05.07-.08.05-.16.02-.25-.07-.2-.21-.35-.37-.51Z"></path><path class="cls-10" d="m184.93,116.44c.15-.51.28-1,.38-1.49.31-1.53.44-3.07.32-4.63-.12-1.64-.47-3.22-1.12-4.73-.03-.08-.02-.13.02-.2.54-1.07,1.37-1.87,2.4-2.47.16-.09.31-.18.47-.28.08-.05.11-.03.16.04.87,1.16,1.46,2.45,1.73,3.88.45,2.39.06,4.63-1.19,6.72-.77,1.29-1.81,2.32-3.08,3.12-.02.01-.03.02-.08.04Z"></path><path class="cls-10" d="m182.85,99.37c-.62.29-1.22.6-1.8.94-.05.03-.09.01-.14,0-.22-.08-.45-.13-.68-.15-.11,0-.23-.02-.29.08-.06.11,0,.22.07.31.06.09.15.15.26.23-.22.15-.42.28-.63.42-.04.02-.07,0-.11-.02-.19-.06-.37-.11-.57-.12-.07,0-.15,0-.22.03-.14.05-.18.15-.09.27.08.13.22.21.36.3-.15.12-.3.23-.44.34-.05.04-.09.02-.14,0-.14-.05-.29-.07-.44-.09-.2-.02-.36.03-.39.12-.04.12.05.26.23.38.04.03.08.05.13.08-.17.15-.33.28-.49.43-.05.05-.1.02-.15,0-.23-.07-.45-.12-.69-.09-.12.01-.23.05-.26.19-.03.14.06.22.17.28.1.05.21.09.32.14-.02.06-.07.09-.11.12-.74.68-1.45,1.4-2.14,2.13-.05.05-.09.09-.17.09-1.15.02-2.14-.4-3.07-1.03-.08-.05-.04-.09-.02-.15.37-.85.85-1.64,1.45-2.34,1.35-1.58,3.04-2.63,5.07-3.11,1.64-.38,3.26-.33,4.88.15.04.01.09.01.12.06Z"></path><path class="cls-10" d="m171.69,112.8c.25.22.54.39.82.58,1.77,1.22,3.74,1.97,5.79,2.55.16.04.22.1.22.27,0,.45.02.91,0,1.36,0,.12-.03.15-.15.13-1.57-.28-2.98-.92-4.24-1.91-.99-.79-1.79-1.73-2.41-2.84-.02-.04-.08-.08-.03-.14h0Z"></path></g></g></g></g></svg>
