<?xml version="1.0" encoding="UTF-8"?> <svg xmlns="http://www.w3.org/2000/svg" xmlns:xlink="http://www.w3.org/1999/xlink" id="Laag_1" data-name="Laag 1" viewBox="0 0 360 500"><defs><style> .cls-1 { fill: none; } .cls-2 { clip-path: url(#clippath); } .cls-3 { fill: #f5f7f6; } .cls-4 { fill: #fff; } .cls-5 { fill: #ffce00; } .cls-6 { fill: #a70010; } .cls-7 { fill: #db0024; } .cls-8, .cls-9 { fill: #241f20; } .cls-9 { isolation: isolate; opacity: .5; } .cls-10 { opacity: .2; } </style><clipPath id="clippath"><path class="cls-1" d="m275.2,57.51l-48.5-34s-12.9,24-46.8,24c-30.3,0-46.9-23.7-46.9-23.7l-47.6,33.7c-44,31.2-25.5,84.8-25.5,84.8,0,0,8.9,26.4,8.6,61.9l-11.8,286.1c81.5,12.9,164.6,12.9,246.1,0l-11.4-286.1c-.4-35.5,8.6-61.9,8.6-61.9,0,0,19.5-53.5-24.8-84.8Z"></path></clipPath></defs><g id="Luijk"><g id="Laag_1-2" data-name="Laag 1"><g id="Watford-2"><path id="Jersey_Color" data-name="Jersey Color" class="cls-7" d="m293.1,43.41c16.7,10.5,32.9,21.8,41.7,30.9,18,18.7,23.4,88.6,24.9,117.3-19.6,18.4-68.2,20.8-68.3,12.6l11.4,286.1c-81.5,12.9-164.6,12.9-246.1,0l11.8-286.1c-.1,8.1-48.7,5.8-68.3-12.6,1.5-28.7,6.9-98.6,24.9-117.3,8.8-9.1,25-20.4,41.7-30.9l53.6-31.4L131.8.01S180,21.21,228,.01l10.7,11.6,54.4,31.8Z"></path><g id="Raglan_Sleeve" data-name="Raglan Sleeve"><path class="cls-7" d="m131.8.01c1.1,6.7,3.2,13.2,6.3,19.3h0l-10.7,8.4-42,29.8c-44,31.2-25.5,84.8-25.5,84.8,0,0,8.9,26.4,8.6,61.9h0c-.2,8.1-48.8,5.7-68.3-12.7,1.5-28.6,6.9-98.6,24.9-117.3,8.8-9.1,25-20.4,41.7-30.9l53.6-31.4L131.8.01Z"></path><path class="cls-7" d="m228.2.01c-1.1,6.7-3.2,13.2-6.3,19.3h0l10.7,8.4,42,29.8c44,31.2,25.5,84.8,25.5,84.8,0,0-9,26.4-8.6,61.9h0c.2,8.1,48.8,5.7,68.3-12.7-1.5-28.7-6.9-98.6-24.9-117.3-8.8-9.1-25-20.4-41.7-30.9l-53.6-31.4L228.2.01Z"></path></g><g class="cls-2"><g><rect class="cls-4" x="30.71" y="36.63" width="344.6" height="8.22"></rect><rect class="cls-4" x="30.71" y="86.33" width="344.6" height="8.22"></rect><rect class="cls-4" x="22.62" y="137.12" width="344.6" height="8.22"></rect><rect class="cls-4" x="30.71" y="187.9" width="344.6" height="8.22"></rect><rect class="cls-4" x="30.71" y="237.6" width="344.6" height="8.22"></rect><rect class="cls-4" x="22.62" y="288.38" width="344.6" height="8.22"></rect><rect class="cls-4" x="30.71" y="339.17" width="344.6" height="8.22"></rect><rect class="cls-4" x="30.71" y="388.86" width="344.6" height="8.22"></rect><rect class="cls-4" x="22.62" y="439.65" width="344.6" height="8.22"></rect><rect class="cls-4" x="22.62" y="490.44" width="344.6" height="8.22"></rect></g></g><g id="Shading" class="cls-10"><path class="cls-8" d="m67.9,217.61c3.3-42.1-8-75.4-8-75.4-2.8-10.3-4.9-20.8-6.3-31.4l29.4,68.2c2.8,6.4,4.4,17.3,3.7,24.2l-30,287,11.2-272.6Z"></path><path class="cls-8" d="m292.1,217.61c-3.3-42.1,8-75.4,8-75.4,2.8-10.3,4.9-20.8,6.3-31.4l-29.4,68.2c-2.8,6.4-4.4,17.3-3.7,24.2l29.6,287-10.8-272.6Z"></path><path class="cls-9" d="m50.7,54.01c5.2-3.5,10.6-7.1,16.2-10.6-10.7,7.5-14.4,22.8-15,39.1,0,0-8.6-23.1-1.2-28.5Z"></path><path class="cls-9" d="m309.9,54.31c-5.2-3.5-11.2-7.5-16.7-11,10.7,7.5,14.6,22.8,15.1,39.1,0,.1,8.9-22.6,1.6-28.1Z"></path><path class="cls-9" d="m157.1,37.91c-7.4-20.3-5.8-31.9-5.8-31.9-6.6-1.4-13.1-3.4-19.4-6,2.2,15.5,12.5,30.9,25.2,37.9Z"></path></g></g></g><g><path class="cls-4" d="m237.5,90.33c.09.14,2.11,2.44,3.55,4.05,2.16-.77,4.49-1.19,6.91-1.19s4.75.42,6.91,1.19c1.43-1.62,3.46-3.91,3.54-4.05.02-.04.05-.07.07-.11.07-.09.17-.22.15-.33,0-.06-.06-.13-.14-.18-.18-.11-.62.28-.9.54-.07.06-.14.13-.2.18-.04.04-.1.09-.16.15-.31.31-.84.81-1.81,1.16-1.28.46-2.96.3-3.53.16-1.47-.37-3.32-1.49-3.79-4.69,0,0-.02-.14-.14-.14s-.14.14-.14.14c-.48,3.21-2.32,4.32-3.79,4.69-.57.15-2.26.31-3.54-.16-.98-.35-1.5-.86-1.81-1.16-.06-.06-.12-.11-.16-.15-.06-.06-.13-.12-.2-.18-.28-.26-.71-.65-.89-.54-.09.06-.13.12-.14.19-.02.11.08.24.15.33.03.04.06.07.07.1Z"></path><path class="cls-5" d="m232.32,108.22l.21-.22c1.84-1.94,1.27-4.31,1.05-4.99l-.08-.26-.2.19c-1.73,1.69-1.25,4.25-1.06,4.99l.08.3Z"></path><path class="cls-5" d="m263.51,108.19l.07-.29c.19-.74.67-3.28-1.05-4.96l-.19-.19-.09.26c-.22.67-.8,3.03,1.04,4.97l.21.22Z"></path><path class="cls-5" d="m231.28,111.32l.23.16.04-.27c.27-1.95-.59-2.83-.98-3.12l-.22-.16-.05.27c-.35,1.97.57,2.84.98,3.13Z"></path><path class="cls-5" d="m264.32,111.42l.22-.15c.41-.28,1.33-1.15.98-3.11l-.05-.27-.22.16c-.38.29-1.24,1.17-.97,3.1l.04.27Z"></path><path class="cls-5" d="m233.43,108.4l-.23.28c-1.19,1.44-1.04,3.08-.92,3.72l.08.42.23-.35c1.13-1.73,1.01-3.17.91-3.71l-.07-.35Z"></path><path class="cls-5" d="m263.47,112.75l.08-.42c.12-.63.26-2.27-.92-3.7l-.23-.28-.07.35c-.1.54-.21,1.97.91,3.68l.23.35Z"></path><path class="cls-5" d="m230.86,114.76l.24.09-.02-.26c-.17-2.43-1.38-3.38-1.89-3.68l-.24-.14v.28c-.13,2.76,1.43,3.54,1.91,3.72Z"></path><path class="cls-5" d="m264.72,114.77l.24-.09c.48-.17,2.03-.95,1.91-3.69v-.28s-.25.14-.25.14c-.4.23-1.7,1.17-1.88,3.66l-.02.26Z"></path><path class="cls-5" d="m231.85,117.27l.22-.19c1.53-1.32,1.22-3.25,1.08-3.8l-.07-.31-.21.24c-1.37,1.5-1.16,3.27-1.07,3.78l.05.29Z"></path><path class="cls-5" d="m263.98,117.18l.05-.29c.12-.65.25-2.32-1.06-3.76l-.21-.23-.07.31c-.13.56-.45,2.48,1.07,3.78l.22.19Z"></path><path class="cls-5" d="m230.73,119.42l.26.13-.02-.29c-.2-3.03-2-3.75-2.55-3.9l-.2-.05v.21c-.13,2.41,1.89,3.6,2.51,3.91Z"></path><path class="cls-5" d="m264.85,119.16l-.02.29.26-.13c.62-.3,2.62-1.49,2.5-3.88v-.21s-.21.05-.21.05c-.54.15-2.33.86-2.53,3.88Z"></path><path class="cls-5" d="m233.05,117.36c-1.17,1.42-.85,3.25-.66,3.98l.08.31.21-.25c1.54-1.82.88-3.53.64-4.01l-.12-.23-.17.2Z"></path><path class="cls-5" d="m263.14,121.28l.21.25.08-.31c.19-.72.51-2.55-.65-3.95l-.17-.2-.12.23c-.24.48-.9,2.18.64,3.99Z"></path><path class="cls-5" d="m231.86,124.13l.32.11-.1-.32c-.92-3.02-2.45-3.44-2.9-3.49l-.19-.02v.19c-.06,2.31,2.18,3.29,2.87,3.54Z"></path><path class="cls-5" d="m266.64,120.32c-.44.06-1.97.48-2.88,3.47l-.1.32.31-.11c.68-.24,2.91-1.21,2.86-3.52v-.19s-.19.02-.19.02Z"></path><path class="cls-5" d="m234.01,126.36l.16.24.13-.26c1.22-2.48.15-3.91-.2-4.29l-.17-.19-.1.23c-.99,2.25-.11,3.84.19,4.27Z"></path><path class="cls-5" d="m261.55,126.19l.13.26.16-.24c.29-.43,1.17-2.01.19-4.24l-.1-.23-.17.18c-.36.38-1.42,1.8-.2,4.27Z"></path><path class="cls-5" d="m233.71,128.13l-.12-.28c-.92-2.1-3.07-2.62-3.7-2.73l-.33-.06.15.3c1.07,2.18,3.1,2.64,3.7,2.72l.3.04Z"></path><path class="cls-5" d="m262.24,127.85l-.12.28.3-.04c.6-.09,2.63-.55,3.7-2.72l.15-.3-.33.06c-.63.11-2.78.64-3.7,2.73Z"></path><path class="cls-5" d="m235.66,126.19l-.2-.11-.04.23c-.47,2.47,1.09,3.75,1.58,4.08l.23.15.04-.27c.35-2.76-1.13-3.82-1.59-4.08Z"></path><path class="cls-5" d="m260.42,126.31l-.04-.23-.2.11c-.46.26-1.94,1.31-1.6,4.08l.03.27.23-.15c.49-.33,2.05-1.61,1.58-4.08Z"></path><path class="cls-5" d="m236.74,132.13l.25-.02-.11-.23c-.99-2.02-2.91-2.32-3.96-2.32-.3,0-.54.02-.69.04l-.31.04.2.24c1.73,2.03,3.65,2.25,4.4,2.25.09,0,.16,0,.22,0Z"></path><path class="cls-5" d="m262.9,129.57c-1.05,0-2.97.3-3.96,2.32l-.11.23.25.02c.06,0,.13,0,.22,0,.75,0,2.68-.22,4.4-2.25l.2-.24-.31-.04c-.15-.02-.39-.04-.69-.04Z"></path><path class="cls-5" d="m241.33,134.77l-.02-.32c-.19-3.48-2.06-4.46-2.63-4.68l-.23-.09v.24c-.02,2.87,1.98,4.31,2.6,4.68l.27.16Z"></path><path class="cls-5" d="m257.37,129.93v-.24s-.23.09-.23.09c-.57.22-2.44,1.2-2.63,4.68l-.02.32.27-.16c.62-.37,2.62-1.81,2.6-4.68Z"></path><path class="cls-5" d="m235.74,134.04l-.3.06.21.22c1.39,1.42,2.8,1.72,3.74,1.72.63,0,1.1-.13,1.32-.21l.23-.08-.16-.19c-1.17-1.36-2.71-1.65-3.8-1.65-.57,0-1.03.08-1.25.13Z"></path><path class="cls-5" d="m260.38,134.11l-.3-.06c-.22-.05-.68-.13-1.25-.13-1.09,0-2.63.29-3.8,1.65l-.16.19.24.08c.22.08.7.21,1.32.21.94,0,2.35-.3,3.74-1.72l.21-.22Z"></path><path class="cls-5" d="m243.9,139.38c.84,0,1.45-.16,1.74-.26l.32-.11-.28-.19c-1.36-.92-2.75-1.39-4.13-1.39-.93,0-1.6.22-1.92.35l-.31.13.29.17c1.43.86,2.87,1.29,4.28,1.29Z"></path><path class="cls-5" d="m251.92,139.38c1.42,0,2.86-.44,4.28-1.29l.29-.17-.31-.13c-.32-.13-.98-.35-1.91-.35-1.38,0-2.77.47-4.13,1.39l-.28.19.33.11c.29.1.9.26,1.74.26Z"></path><path class="cls-5" d="m247.09,138.38l-.05-.26c-.11-.59-.81-3.58-4.34-4.43l-.29-.07.09.28c.19.6,1.29,3.61,4.34,4.4l.25.07Z"></path><path class="cls-5" d="m253.33,133.91l.09-.28-.29.07c-3.56.85-4.24,3.84-4.34,4.43l-.04.26.25-.07c2.95-.77,4.06-3.56,4.33-4.4Z"></path><path class="cls-4" d="m238.19,126.13c2.22,3.36,5.4,6.07,9.72,8.29,4.33-2.22,7.51-4.93,9.72-8.29,2.15-3.27,2.98-6.6,3.41-8.82.41-2.11.25-6.56-.46-12.9-.49-4.41-1.1-8.32-1.19-8.95h-3.63c-2.46-1.05-5.12-1.6-7.81-1.6s-5.35.55-7.81,1.6h-3.72c-.1.63-.7,4.54-1.19,8.95-.71,6.33-.86,10.79-.45,12.9.43,2.22,1.25,5.55,3.41,8.82Zm9.76-31.08c1.35,0,2.67.14,3.96.42h-7.91c1.29-.28,2.61-.42,3.95-.42Zm-5.05,2.05h15.02c.3,2.07,1.64,11.44,1.64,17.04,0,1.23-.07,2.2-.2,2.87-.94,4.83-3.09,10.95-11.46,15.54-1.9-1.04-3.58-2.23-5-3.52v-31.93Zm-5.01,0h3.05v29.91c-2.94-3.52-3.96-7.18-4.5-10-.13-.68-.19-1.64-.19-2.87,0-4.38.85-11.66,1.64-17.04Z"></path><path class="cls-5" d="m247.83,123.19c-.11.37-.2.66-.25.86-.13.59-.06.98,0,1.07.08-.04.32-.2.57-.36.61-.41,1.54-1.03,2.43-1.48.65-.33,1.36-.64,1.94-.9.57-.25,1.16-.51,1.23-.59.14-.16.41-.82.5-2.12.06-.84-.3-1.57-.5-1.91-.83,2.69-2.14,2.61-2.2,2.6h-.07s-.02-.07-.02-.07c-.37-.87-.98-5.2-.98-7.5,0-2.05.78-9.76.92-11.09l-3.14,1.54c1.1,3.42.63,14.78.38,16.59-.17,1.24-.54,2.46-.81,3.35Z"></path><path class="cls-5" d="m248,111.26c.12-1.1.07-3.36.06-3.68-.21-.25-1.6-1.94-1.46-3.85.09-1.19,1.03-2.63,2.6-2.94,2.56-.5,5.31,1.74,5.84,2.2l2.24-2.66c-2.82-1.81-5.82-2.47-8.93-1.98-2.41.38-4.02,2.31-4.49,3.93-.33,1.13-.62,2.95.68,5.52,1.05,2.09,2.93,3.18,3.46,3.46Z"></path><path class="cls-5" d="m256.13,123.82c1.24-2.31,1.84-4.26,1.84-5.98,0-1.52-.48-2.9-1.47-4.21-1.58-2.1-4.36-3.62-5.04-3.97-.04.62-.15,2.85.04,3.54.33.23,2.87,2.05,3.41,3.84.51,1.66.65,4.21-.45,6.37-.33.65-1.32,2.3-3.28,3.57-1.97,1.28-4.29,1.77-6.87,1.45.39.49,1.62,1.81,4.17,2.66.48-.24,5.22-2.76,7.65-7.27Z"></path><path class="cls-5" d="m245.84,84.09l1.07.78c.08.06.12.19.09.28l-.41,1.26c-.03.1.01.13.09.07l1.07-.78c.08-.06.22-.06.3,0l1.07.78c.08.06.12.03.09-.07l-.41-1.26c-.03-.1.01-.22.09-.28l1.07-.78c.08-.06.07-.11-.04-.11h-1.33c-.1,0-.21-.08-.24-.18l-.41-1.26c-.03-.1-.08-.1-.11,0l-.41,1.26c-.03.1-.14.18-.24.18h-1.33c-.1,0-.12.05-.04.11Z"></path><path class="cls-5" d="m253.46,141.96c-1.68-.55-4.57-1.6-5.55-2.65l-.12-.13-.12.13c-.98,1.04-3.79,2.07-5.48,2.63-1.68-.19-3.33-.45-4.96-.79l-1.44,5.98c3.95.83,8.01,1.26,12.13,1.3,4.12-.03,8.18-.47,12.13-1.3l-1.44-5.98c-1.69.35-3.41.62-5.15.81Zm-5.68-1.92c.42.34,1.66,1.34,3.11,2.14-.99.06-1.98.1-2.98.11-1.08,0-2.15-.05-3.21-.12,1.43-.8,2.66-1.78,3.08-2.12Z"></path><path class="cls-5" d="m237.34,140.55c.61.13,1.22.24,1.83.34l.18-.8-5.46-1.25-1.25,5.19,3.08.71,1.04-4.31.58.12Z"></path><path class="cls-5" d="m256.47,140.1l.18.8c.61-.11,1.22-.22,1.83-.34l.58-.12,1.04,4.31,3.08-.71-1.25-5.19-5.46,1.25Z"></path></g><g id="Shoulder_Stripe" data-name="Shoulder Stripe"><g><path class="cls-4" d="m312.18,61.51c-.13,0-.26-.04-.37-.12-5.9-4.19-12.84-8.8-20.61-13.71l-45.4-26.61-7.94-4.58c-.3-.18-.41-.56-.23-.87.18-.3.56-.41.87-.23l7.94,4.59,45.42,26.62c7.82,4.93,14.77,9.55,20.69,13.76.29.2.35.6.15.88-.12.17-.32.27-.52.27Z"></path><path class="cls-4" d="m47.66,61.16c-.2,0-.39-.09-.52-.27-.2-.29-.13-.68.15-.88,5.83-4.12,12.64-8.65,20.25-13.44l53.16-31.19c.3-.18.69-.08.87.23.18.3.08.69-.23.87l-53.14,31.18c-7.57,4.77-14.36,9.28-20.17,13.39-.11.08-.24.12-.37.12Z"></path><path class="cls-4" d="m312.44,64.81c-.13,0-.26-.04-.37-.12-6.23-4.5-13.69-9.48-22.15-14.82l-45.38-26.6-6.95-4.01c-.3-.18-.41-.56-.23-.87.17-.3.56-.41.87-.23l6.95,4.01,45.4,26.61c8.51,5.36,15.98,10.36,22.24,14.87.28.2.35.6.14.88-.12.17-.32.26-.51.26Z"></path><path class="cls-4" d="m47.35,64.49c-.2,0-.39-.09-.52-.26-.2-.28-.14-.68.14-.88,6.16-4.43,13.53-9.35,21.91-14.62l52.12-30.58c.3-.18.69-.08.87.23.18.3.08.69-.23.87l-52.11,30.57c-8.33,5.25-15.68,10.16-21.82,14.57-.11.08-.24.12-.37.12Z"></path></g></g><g id="Collar"><g><path class="cls-3" d="m228.13,0c-47.95,21.23-96.19,0-96.19,0l-11.4,11.93s17.44,12.57,60.3,12.59c41.56-.02,57.7-11.83,58.66-12.59l-11.36-11.93Z"></path><path class="cls-6" d="m180,51.67s-32.32-17.69-40.98-32.14c9.66,2.65,23.39,4.98,41.81,4.98,17.62,0,30.67-2.14,39.93-4.64-8.69,14.27-40.77,31.8-40.77,31.8Z"></path></g><path class="cls-4" d="m228.07,0c-3.51,23.5-48.07,51.67-48.07,51.67,0,0-44.55-28.17-48.07-51.67l-11.43,11.93c8.29,30.12,59.49,52.6,59.49,52.6,0,0,51.2-22.48,59.49-52.6L228.07,0Z"></path></g></g></svg> 