<?xml version="1.0" encoding="UTF-8"?> <svg xmlns="http://www.w3.org/2000/svg" viewBox="0 0 359.52 500"><defs><style> .cls-1 { opacity: .5; } .cls-1, .cls-2 { fill: #231f20; } .cls-1, .cls-2, .cls-3, .cls-4, .cls-5 { stroke-width: 0px; } .cls-6 { isolation: isolate; } .cls-7 { mix-blend-mode: multiply; opacity: .2; } .cls-3 { fill: #fff; } .cls-4 { fill: #ffce00; } .cls-5 { fill: #f4f4f2; } </style></defs><g class="cls-6"><g id="Laag_1" data-name="Laag 1"><g id="Liverpool"><path id="Jersey_Color" data-name="Jersey Color" class="cls-4" d="m238.54,11.56l54.38,31.8c16.69,10.52,32.92,21.85,41.69,30.94,18.05,18.72,23.45,88.61,24.92,117.3-19.56,18.44-68.2,20.76-68.28,12.63l11.35,286.08c-81.51,12.91-164.56,12.91-246.07,0l11.77-286.08c-.08,8.13-48.73,5.8-68.28-12.63,1.47-28.68,6.87-98.58,24.92-117.3,8.76-9.09,24.99-20.42,41.68-30.94l53.58-31.43,60.3,12.58,58.04-12.95Z"></path><g id="Collar"><g id="Collar-2" data-name="Collar"><g><path class="cls-5" d="m227.8,0c-47.95,21.23-96.19,0-96.19,0l-11.4,11.93s17.44,12.57,60.3,12.59c41.56-.02,57.7-11.83,58.66-12.59l-11.36-11.93Z"></path><path class="cls-4" d="m179.67,44.46c-17.16,0-32.32-10.48-40.97-24.93,9.66,2.65,23.39,4.98,41.81,4.98,17.62,0,30.67-2.14,39.93-4.64-8.69,14.27-23.74,24.59-40.77,24.59Z"></path></g><path class="cls-3" d="m227.73,0c-3.51,23.5-23.8,44.46-48.07,44.46S135.12,23.5,131.6,0l-11.43,11.93c8.29,30.12,33.85,45.24,59.49,45.39,25.64-.14,51.2-15.27,59.49-45.39l-11.43-11.93Z"></path></g></g><g id="Shading" class="cls-7"><path class="cls-2" d="m67.69,217.65c3.28-42.1-8-75.36-8-75.36,0,0-3.92-13.84-6.31-31.41l29.42,68.13c2.77,6.4,4.43,17.31,3.71,24.25l-29.98,287.04,11.17-272.66Z"></path><path class="cls-2" d="m291.85,217.65c-3.28-42.1,8-75.36,8-75.36,0,0,3.92-13.84,6.31-31.41l-29.42,68.13c-2.77,6.4-4.43,17.31-3.71,24.25l29.57,287.04-10.75-272.66Z"></path><path class="cls-1" d="m50.44,53.98c5.17-3.55,10.65-7.13,16.17-10.62-10.67,7.5-14.45,22.78-14.95,39.13,0,0-8.61-23.09-1.22-28.52Z"></path><path class="cls-1" d="m309.63,54.34c-5.17-3.55-11.18-7.49-16.71-10.98,10.67,7.5,14.61,22.78,15.12,39.13,0,0,8.98-22.73,1.59-28.16Z"></path><path class="cls-1" d="m156.82,37.93c-13.27-8-22.9-22.41-25.22-37.93,0,0,7.46,3.28,19.43,5.98,0,0-1.6,11.6,5.79,31.96Z"></path></g></g></g></g></svg> 