<?xml version="1.0" encoding="UTF-8"?> <svg xmlns="http://www.w3.org/2000/svg" xmlns:xlink="http://www.w3.org/1999/xlink" viewBox="0 0 360 500"><defs><style> .cls-1 { clip-path: url(#clippath); } .cls-2 { fill: #f9ed00; } .cls-3 { fill: #fff; } .cls-4 { fill: #fdfdfd; } .cls-5 { fill: #302d23; } .cls-6 { fill: #e0a501; } .cls-7 { fill: #241f20; } .cls-8 { fill: #41246b; } .cls-9 { fill: #7138a9; } .cls-10 { fill: #5c328e; } .cls-11 { fill: #582694; } .cls-12 { fill: #512d84; } .cls-13 { isolation: isolate; } .cls-14 { mix-blend-mode: multiply; opacity: .2; } </style><clipPath id="clippath"><path id="Body-2" data-name="Body" class="cls-9" d="m239.27,11.93l53.76,31.43c29.13,20.49,6.91,98.93,6.91,98.93,0,0-8.95,26.4-8.59,61.93l11.35,286.08c-81.51,12.91-164.56,12.91-246.07,0l11.77-286.08c.37-35.53-8.59-61.93-8.59-61.93,0,0-22.22-78.45,6.91-98.93l53.58-31.43,60.3,12.58,58.66-12.58Z"></path></clipPath></defs><g class="cls-13"><g id="Laag_1" data-name="Laag 1"><g id="Anderlecht"><path id="Jersey_Color" data-name="Jersey Color" class="cls-9" d="m238.65,11.56l54.38,31.8c16.69,10.52,32.92,21.85,41.69,30.94,18.05,18.72,23.45,88.61,24.92,117.3-19.56,18.44-68.2,20.76-68.28,12.63l11.35,286.08c-81.51,12.91-164.56,12.91-246.07,0l11.77-286.08c-.08,8.13-48.73,5.8-68.28-12.63,1.47-28.68,6.87-98.58,24.92-117.3,8.76-9.09,24.99-20.42,41.68-30.94l53.58-31.43,60.3,12.58,58.04-12.95Z"></path><g id="Jersey_Pattern" data-name="Jersey Pattern"><path id="Body" class="cls-9" d="m239.27,11.93l53.76,31.43c29.13,20.49,6.91,98.93,6.91,98.93,0,0-8.95,26.4-8.59,61.93l11.35,286.08c-81.51,12.91-164.56,12.91-246.07,0l11.77-286.08c.37-35.53-8.59-61.93-8.59-61.93,0,0-22.22-78.45,6.91-98.93l53.58-31.43,60.3,12.58,58.66-12.58Z"></path><g class="cls-1"><rect class="cls-3" x="-187.84" y="138.05" width="493.89" height="241.2" transform="translate(-199.62 317.45) rotate(-89.93)"></rect></g></g><g id="Shading" class="cls-14"><path class="cls-7" d="m67.8,217.65c3.28-42.1-8-75.36-8-75.36,0,0-3.92-13.84-6.31-31.41l29.42,68.13c2.77,6.4,4.43,17.31,3.71,24.25l-29.98,287.04,11.17-272.66Z"></path><path class="cls-7" d="m291.96,217.65c-3.28-42.1,8-75.36,8-75.36,0,0,3.92-13.84,6.31-31.41l-29.42,68.13c-2.77,6.4-4.43,17.31-3.71,24.25l29.57,287.04-10.75-272.66Z"></path><path class="cls-7" d="m131.71,0c1.77,11.83,13.93,24.84,25.58,34.85-6.98-10.48-7.23-20.57-5.32-28.68C137.6,2.86,131.71,0,131.71,0Z"></path></g><g id="Collar"><polygon class="cls-10" points="219.61 53.87 140.27 53.87 134.86 17.01 223.45 19.67 219.61 53.87"></polygon><path class="cls-8" d="m228.01,0c-47.95,21.23-96.19,0-96.19,0l-11.4,11.93s17.44,12.57,60.3,12.59c41.56-.02,57.7-11.83,58.66-12.59l-11.36-11.93Z"></path><polygon class="cls-12" points="239.37 11.93 229.94 2.03 206.56 53.87 221.04 53.87 239.37 11.93"></polygon><polygon class="cls-12" points="120.41 11.93 129.84 2.03 153.22 53.87 138.74 53.87 120.41 11.93"></polygon></g><path class="cls-3" d="m68.24,204.35c-.08,8.12-48.7,5.8-68.24-12.62,1.47-28.67,6.87-98.52,24.91-117.22,8.76-9.09,24.98-20.41,41.66-30.92-29.11,20.48-6.91,98.87-6.91,98.87,0,0,8.95,26.38,8.58,61.89Z"></path><g><path class="cls-11" d="m245.83,122.7s-.06.04-.08.06c-.67.87-1.56,1.37-2.62,1.6-1.04.23-2.08.27-3.12-.08-1.9-.63-2.96-1.95-3.26-3.92-.05-.32-.06-.65-.06-.97,0-6.4,0-12.8,0-19.2,0-.17.04-.21.21-.21,2,0,4,0,6,0,.06,0,.12,0,.18,0,.12.27.25.53.37.8.11.24.1.24.32.09.05-.03.1-.09.15,0,.04.09.22.14.11.27-.34.39-.75.66-1.27.76,0-.54,0-1.08,0-1.63,0-.12-.04-.15-.15-.15-.87,0-1.73,0-2.6,0-.12,0-.15.04-.15.15,0,.58,0,1.15,0,1.73,0,.22,0,.45.01.67-.06.05-.11.09-.17.14-.29.23-.54.5-.71.84-.08.16-.07.28.04.42.28.37.58.73.83,1.11,0,.06-.01.12-.01.18,0,5.19,0,10.37,0,15.56,0,.32.03.64.11.95.27,1.04.9,1.75,1.97,2,.7.17,1.41.14,2.11-.06.41-.12.78-.31,1.07-.63.05-.06.12-.11.13-.21-.11,0-.21.02-.31.02-.45,0-.89-.05-1.27-.3-.64-.41-.9-1.03-.91-1.75,0-2.44,0-4.89,0-7.33,0-.12-.03-.2-.12-.27-.26-.22-.5-.44-.76-.66-.08-.07-.09-.11-.02-.2.27-.34.53-.7.79-1.04.08-.1.11-.2.11-.32,0-1.81,0-3.61,0-5.42,0-.06,0-.12,0-.18.04-.03.08-.05.13-.08.46-.18.92-.33,1.41-.39.23-.03.46-.09.67-.2.35-.1.63-.3.93-.5,0,.17,0,.34,0,.51-.26.23-.52.46-.73.74-.7.93-.96,1.97-.76,3.11.18,1.01.68,1.83,1.49,2.47,0,.56,0,1.12,0,1.68,0,.08.04.12.11.15.53.29,1.08.53,1.65.75.11.04.13,0,.16-.09.07-.24.15-.48.22-.72.02-.07.04-.12.14-.08.52.21,1.07.27,1.62.31,1.01.06,2.01.04,2.98-.3.09-.03.12-.01.14.07.07.25.16.49.23.74.03.09.06.12.15.08.57-.22,1.13-.46,1.66-.75.06-.03.09-.07.09-.14,0-.56,0-1.13,0-1.69.23-.21.46-.42.66-.67.73-.94,1-2.01.8-3.18-.17-.99-.68-1.8-1.46-2.43,0-.17,0-.34.01-.5.29.17.56.38.9.47.02.01.05.03.07.04.31.12.64.16.96.22.37.06.71.21,1.07.33.04.03.08.06.12.09,0,.03,0,.06,0,.08,0,1.86,0,3.72,0,5.57,0,.09.03.15.08.21.27.36.55.72.82,1.08.07.09.06.14-.02.21-.24.21-.47.43-.72.63-.12.1-.16.2-.16.35,0,2.43,0,4.87,0,7.3,0,1.14-.76,1.95-1.89,2.02-.2.01-.41,0-.63,0,.22.34.52.56.86.7.82.34,1.67.38,2.53.17.79-.19,1.35-.67,1.7-1.41.22-.46.32-.95.32-1.46,0-5.22,0-10.44,0-15.66,0-.06,0-.11,0-.17.27-.4.58-.78.87-1.17.06-.08.08-.15.04-.24-.08-.18-.17-.34-.29-.49-.17-.23-.41-.39-.62-.58,0-.8,0-1.6.01-2.4,0-.13-.04-.16-.16-.16-.86,0-1.71,0-2.57,0-.13,0-.17.03-.17.17,0,.54,0,1.07,0,1.61-.49-.09-.88-.34-1.23-.68-.14-.13-.05-.22.02-.32.09-.13.17-.05.23.01.13.12.18.07.24-.07.13-.29.27-.58.4-.87.07,0,.14.01.22.01,1.99,0,3.99,0,5.98,0,.13,0,.19.01.19.18,0,6.52,0,13.05,0,19.57,0,1.05-.28,2.03-.89,2.88-.65.92-1.57,1.47-2.65,1.74-1.56.39-3.05.18-4.44-.64-.38-.23-.7-.54-.98-.88-.04-.05-.06-.11-.13-.13-.02-.09-.07-.17-.14-.24-.56-.95-.77-1.99-.74-3.1.05.11.08.2.13.29.15.24.49.23.61-.01.04-.05.06-.12.06-.19,0-1.03,0-2.05,0-3.08v-.84c-.29.14-.58.26-.87.37-.49.17-.99.28-1.51.29-.27,0-.4-.09-.48-.35-.04-.12-.07-.25-.1-.37-.02-.08-.05-.1-.14-.09-.87.15-1.74.15-2.61.06-.15-.02-.33-.12-.43-.03-.1.09-.1.28-.14.42-.08.28-.21.37-.5.36-.53-.01-1.04-.12-1.54-.31-.27-.11-.54-.22-.82-.34v.83c0,1.01,0,2.03,0,3.04,0,.08.02.15.06.22.03.13.12.17.25.18.18,0,.31-.06.4-.22.03-.07.06-.14.09-.24.02.44-.01.85-.08,1.26-.1.66-.33,1.27-.66,1.85-.06.07-.11.14-.13.23Zm-2.21-11.51s-.01-.01-.02-.02c0,0,0,.01,0,.02,0,0,.02,0,.03,0,0,.01,0,.03.01.04.37.33.75.63,1.14.94.06.05.12.04.19.01.41-.15.65-.45.78-.88-.19.02-.37.04-.55.05-.53.03-1.06-.02-1.57-.17Zm4.79,1.86s-.04-.01-.04,0c-.01.02,0,.02.02.03.19.22.39.43.58.65.2.22.24.48.18.77-.05.23-.12.45-.19.68-.03.09,0,.11.08.12.96.16,1.92.16,2.87,0,.11-.02.11-.05.08-.14-.07-.21-.12-.43-.18-.65-.08-.3-.03-.56.18-.8.2-.22.4-.44.61-.68-.16.04-.31.08-.45.1-1.26.22-2.51.21-3.75-.08Zm-.22,3.04c.32,0,.41-.03.46-.22.13-.47.26-.95.39-1.42.06-.24.06-.24-.18-.27-.05,0-.1-.01-.15-.02-1.27-.31-2.46-.82-3.54-1.56-.68-.47-1.3-1.01-1.91-1.56-.05-.05-.08-.11-.16-.01-.36.49-.73.97-1.09,1.45-.06.07-.04.11.02.16.13.11.25.23.38.34,1.14.98,2.33,1.88,3.68,2.53.66.32,1.35.56,2.1.59Zm9.61-5.13c-.23.2-.45.39-.67.58-.98.85-2.03,1.6-3.25,2.08-.59.23-1.17.47-1.8.56-.22.03-.23.03-.17.25.12.46.25.92.38,1.37.07.25.14.29.39.29.64,0,1.24-.18,1.82-.42,1.18-.5,2.22-1.22,3.22-2.01.41-.32.81-.66,1.19-1.01.04-.04.12-.07.05-.16-.39-.51-.78-1.02-1.17-1.53Zm-2.58.34c.13.42.36.72.75.87.1.04.18.03.26-.04.33-.28.67-.55,1.01-.83.04-.03.09-.05.09-.12-.69.23-1.39.21-2.12.12Zm-2.4,1.65c-.11.13-.18.22-.26.31-.18.21-.37.41-.54.62-.04.05-.1.12-.07.18.03.05.11.02.17.01.31-.04.6-.14.89-.23.06-.02.08-.05.06-.11-.08-.24-.15-.48-.25-.78Zm-4.68.05c-.08.25-.16.49-.23.72-.02.06-.01.1.05.12.32.1.64.21.97.24.11.01.13-.03.08-.12-.02-.03-.03-.06-.05-.09-.25-.3-.51-.59-.82-.88Z"></path><path class="cls-5" d="m242.77,101.89c.51-.1.93-.37,1.27-.76.11-.13-.07-.18-.11-.27-.05-.09-.1-.03-.15,0-.21.15-.21.15-.32-.09-.12-.27-.25-.53-.37-.8-.13-.29-.26-.59-.4-.88-.02-.05-.07-.09,0-.14.06-.04.09.02.13.04.44.33.87.66,1.31.99.07.05.14.11.21.16.2.16.2.16,0,.31-.1.07-.1.13-.02.22.2.24.4.5.59.74.33.41.66.82.99,1.23.39.5.78.99,1.17,1.49.04.05.08.06.14.04,1.11-.32,2.17-.19,3.17.39.07.04.12.02.18-.01.72-.42,1.49-.59,2.32-.54.28.02.55.07.82.15.06.02.1.03.15-.03.4-.51.8-1.02,1.2-1.53.04-.05.08-.09.12-.14.46-.58.92-1.16,1.39-1.74.15-.19.16-.19-.03-.34-.11-.08-.1-.15,0-.22.09-.07.18-.14.26-.21.43-.32.86-.65,1.29-.97.05-.03.09-.13.17-.06.07.06,0,.11-.02.16-.12.29-.25.57-.38.85-.13.29-.27.58-.4.87-.06.13-.12.18-.24.07-.06-.06-.14-.14-.23-.01-.07.11-.16.19-.02.32.35.34.74.59,1.23.68.02.01.03.02.05.04-.06.08-.11.16-.17.23-.7.89-1.4,1.79-2.09,2.68-.33-.09-.61-.3-.9-.47-.05-.04-.09-.09-.14-.12-.14-.09-.24-.32-.37-.28-.13.03-.21.24-.32.37,0,0,0,.02-.01.04.3.13.57.3.83.5.78.63,1.29,1.44,1.46,2.43.2,1.17-.06,2.24-.8,3.18-.19.25-.43.46-.66.67-.01,0-.03.02-.04.02-1.43,1-2.91,1.1-4.44.26-.08-.05-.14-.02-.21.02-.61.36-1.27.54-1.98.54-.91,0-1.73-.29-2.46-.83-.8-.64-1.31-1.45-1.49-2.47-.2-1.14.06-2.18.76-3.11.21-.28.47-.51.73-.74.26-.17.52-.35.82-.48-.1-.13-.2-.25-.29-.37-.05-.06-.08-.07-.14-.01-.13.12-.26.24-.4.36-.29.2-.58.4-.93.5-.11-.15-.23-.3-.34-.45-.64-.82-1.28-1.64-1.91-2.46.02-.01.04-.02.07-.04Zm15.25-2.7c-.48.37-.96.74-1.45,1.11.04.03.07.05.09.07q.21.16.04.37c-.75.94-1.51,1.89-2.26,2.83-.18.22-.35.44-.52.66.12.11.19.05.27-.04.86-1.09,1.73-2.18,2.6-3.27q.21-.26.49-.09s.01,0,.02,0c.24-.52.48-1.04.71-1.56.01-.02.04-.06,0-.08,0,0,.01.01.02.02,0,0,0-.01.01-.02,0,0-.02,0-.03,0Zm-8.2,5.93c-.28-.18-.77-.32-1.25-.36-2.45-.18-4.2,2.32-3.2,4.56.74,1.65,2.71,2.39,4.33,1.63.1-.05.14-.08.03-.16-.02-.02-.04-.04-.06-.06-.97-1.07-1.29-2.31-.96-3.71.18-.74.56-1.37,1.11-1.9Zm1.28,5.77c1.25.67,3,.43,4.04-.88,1-1.27.9-3.09-.21-4.25-1.16-1.21-2.87-1.19-3.82-.63,1.63,1.59,1.62,4.17,0,5.77Zm-.5-6.17c.1.08.19.13.26.2.08.08.15.08.25.03.41-.2.85-.32,1.31-.34,1.82-.08,3.34,1.22,3.55,3.03.25,2.14-1.62,4.01-3.76,3.73-1.37-.18-2.35-.93-2.81-2.23-.47-1.31-.18-2.5.77-3.52.19-.2.19-.2-.05-.35-.08-.05-.14-.08-.23,0-.94.97-1.32,2.12-1.06,3.44.4,2.05,2.24,3.34,4.33,3.07,2.15-.28,3.67-2.46,3.19-4.58-.38-1.71-1.74-2.89-3.49-3.03-.8-.06-1.54.12-2.24.54Zm-6.08,3.29c0,.15-.02.29,0,.44.12.91.5,1.69,1.17,2.33,1.16,1.13,3.02,1.39,4.44.61.18-.1.17-.09.02-.23-.13-.12-.25-.16-.43-.06-.31.17-.66.25-1.01.28-1.22.1-2.25-.3-3.03-1.25-1.08-1.33-.99-3.31.23-4.51.81-.81,1.81-1.15,2.94-.97,1.59.24,2.76,1.52,2.88,3.13.07,1.01-.28,1.89-.97,2.62-.18.19-.18.19.04.33,0,0,.02.01.03.02.08.07.14.06.21-.02.69-.7,1.07-1.54,1.13-2.51.04-.73-.12-1.43-.48-2.08-.8-1.45-2.5-2.24-4.13-1.9-1.81.38-3.09,1.99-3.04,3.76Zm7.07,0c-.02-.93-.36-1.73-1.03-2.38-.08-.08-.13-.08-.21,0-1.37,1.27-1.37,3.46,0,4.74.09.09.14.08.23,0,.67-.65,1.01-1.44,1.02-2.36Zm-8.68-8.8s-.02.02-.03.04c.22.49.45.98.67,1.47.05.11.09.14.18.05.12-.13.2-.09.3.04.9,1.14,1.81,2.28,2.71,3.41.06.08.13.12.21.05.08-.07-.02-.11-.06-.15-.88-1.11-1.77-2.22-2.65-3.33q-.19-.24.05-.44s.03-.03.05-.06c-.48-.36-.95-.72-1.42-1.08Z"></path><path class="cls-11" d="m245.89,102.65c-.33-.41-.66-.82-.99-1.23-.2-.25-.39-.5-.59-.74-.08-.09-.08-.15.02-.22.21-.15.21-.15,0-.31-.07-.05-.14-.11-.21-.16.54,0,1.07,0,1.61,0,.13,0,.17.03.17.17,0,.84,0,1.67,0,2.51Z"></path><path class="cls-11" d="m256.79,99.98c-.09.07-.17.14-.26.21-.1.08-.11.14,0,.22.19.14.19.15.03.34-.46.58-.93,1.16-1.39,1.74-.04.05-.08.09-.12.14,0-.84,0-1.67,0-2.51,0-.12.05-.13.15-.13.53,0,1.06,0,1.59,0Z"></path><path class="cls-5" d="m249.91,127.59s-.04-.03-.05-.04c.01-.01.02-.02.03-.03.02.02.04.03.05.05-.01.01-.02.02-.03.03Z"></path><path class="cls-4" d="m242.76,105.5c0,.06,0,.12,0,.18,0,1.81,0,3.61,0,5.42,0,.13-.03.22-.11.32-.27.34-.53.7-.79,1.04-.07.09-.06.13.02.2.26.22.5.45.76.66.09.08.12.15.12.27,0,2.44,0,4.89,0,7.33,0,.73.27,1.35.91,1.75.39.25.82.31,1.27.3.1,0,.2-.01.31-.02,0,.1-.07.15-.13.21-.29.32-.66.51-1.07.63-.7.2-1.4.22-2.11.06-1.07-.26-1.7-.96-1.97-2-.08-.31-.11-.63-.11-.95,0-5.19,0-10.37,0-15.56,0-.06,0-.12.01-.18.5.65.99,1.3,1.51,1.98.24-.76.69-1.3,1.36-1.66Z"></path><path class="cls-4" d="m261.04,105.15c0,.06,0,.11,0,.17,0,5.22,0,10.44,0,15.66,0,.51-.1,1-.32,1.46-.34.73-.91,1.21-1.7,1.41-.86.21-1.71.17-2.53-.17-.35-.14-.64-.36-.86-.7.23,0,.43.02.63,0,1.12-.08,1.88-.88,1.89-2.02,0-2.43,0-4.87,0-7.3,0-.15.04-.26.16-.35.25-.2.48-.42.72-.63.09-.07.09-.12.02-.21-.28-.36-.55-.72-.82-1.08-.05-.06-.08-.13-.08-.21,0-1.86,0-3.72,0-5.57,0-.03,0-.06,0-.08.67.36,1.11.91,1.34,1.65.52-.68,1.02-1.34,1.52-2.01Z"></path><path class="cls-4" d="m245.9,111.15c.73.54,1.55.83,2.46.83.71,0,1.37-.18,1.98-.54.07-.04.13-.06.21-.02,1.53.83,3.02.74,4.44-.26.01,0,.03-.02.04-.02,0,.56,0,1.13,0,1.69,0,.07-.03.11-.09.14-.54.29-1.09.54-1.66.75-.09.03-.13,0-.15-.08-.07-.25-.15-.49-.23-.74-.02-.08-.05-.1-.14-.07-.97.34-1.98.36-2.98.3-.55-.03-1.1-.1-1.62-.31-.1-.04-.11.02-.14.08-.07.24-.15.48-.22.72-.03.09-.05.13-.16.09-.56-.22-1.12-.46-1.65-.75-.06-.03-.11-.07-.11-.15,0-.56,0-1.12,0-1.68Z"></path><path class="cls-4" d="m248.18,116.08c-.75-.02-1.44-.27-2.1-.59-1.36-.65-2.55-1.55-3.68-2.53-.13-.11-.25-.23-.38-.34-.06-.05-.08-.09-.02-.16.37-.48.73-.96,1.09-1.45.08-.1.11-.03.16.01.61.55,1.23,1.09,1.91,1.56,1.08.74,2.26,1.25,3.54,1.56.05.01.1.02.15.02.23.02.24.03.18.27-.12.48-.26.95-.39,1.42-.05.19-.14.23-.46.22Z"></path><path class="cls-4" d="m257.79,110.95c.39.51.77,1.03,1.17,1.53.07.09,0,.12-.05.16-.38.35-.78.69-1.19,1.01-1,.79-2.04,1.51-3.22,2.01-.58.25-1.18.42-1.82.42-.26,0-.33-.04-.39-.29-.13-.46-.26-.91-.38-1.37-.06-.22-.05-.22.17-.25.63-.09,1.22-.33,1.8-.56,1.22-.48,2.27-1.23,3.25-2.08.22-.19.44-.38.67-.58Z"></path><path class="cls-6" d="m242.76,105.5c-.67.36-1.12.9-1.36,1.66-.52-.68-1.01-1.33-1.51-1.98-.26-.39-.55-.75-.83-1.11-.11-.14-.12-.26-.04-.42.17-.34.42-.6.71-.84.06-.05.11-.09.17-.14.21-.12.42-.26.66-.32.02.04.04.08.07.11.76.99,1.51,1.98,2.27,2.97-.04.03-.08.05-.13.08Z"></path><path class="cls-6" d="m261.04,105.15c-.5.66-1.01,1.32-1.52,2.01-.23-.74-.68-1.29-1.34-1.65-.04-.03-.08-.06-.12-.09.03-.05.07-.1.1-.15.74-.97,1.48-1.95,2.22-2.92.24.07.45.2.67.33.21.19.45.35.62.58.11.15.21.31.29.49.04.09.03.16-.04.24-.29.39-.6.76-.87,1.17Z"></path><path class="cls-2" d="m242.89,105.42c-.76-.99-1.51-1.98-2.27-2.97-.03-.04-.05-.08-.07-.11.05-.02.09-.04.14-.06.65-.23,1.34-.29,2.02-.36.64.82,1.28,1.64,1.91,2.46.12.15.23.3.34.45-.21.11-.44.17-.67.2-.49.06-.95.21-1.41.39Z"></path><path class="cls-2" d="m260.38,102.34c-.74.97-1.48,1.95-2.22,2.92-.04.05-.07.1-.1.15-.36-.11-.7-.27-1.07-.33-.33-.05-.65-.1-.96-.22-.03,0-.05-.02-.07-.04.7-.89,1.4-1.79,2.09-2.68.06-.07.11-.15.17-.23.2.02.4.03.6.06.54.07,1.07.15,1.57.36Z"></path><path class="cls-4" d="m248.4,113.05c1.24.29,2.49.31,3.75.08.15-.03.29-.06.45-.1-.21.23-.41.46-.61.68-.21.23-.26.5-.18.8.06.22.11.43.18.65.03.09.03.12-.08.14-.96.16-1.92.16-2.87,0-.09-.01-.11-.03-.08-.12.07-.22.13-.45.19-.68.07-.28.03-.54-.18-.77-.2-.21-.39-.43-.58-.65,0,0,.02-.02.02-.02Z"></path><path class="cls-4" d="m260.38,102.34c-.5-.21-1.04-.29-1.57-.36-.2-.02-.4-.04-.6-.06-.02-.01-.03-.02-.05-.04,0-.54,0-1.07,0-1.61,0-.13.03-.17.17-.17.86,0,1.71,0,2.57,0,.12,0,.16.03.16.16,0,.8,0,1.6-.01,2.4-.21-.12-.42-.26-.67-.33Z"></path><path class="cls-4" d="m242.71,101.92c-.68.07-1.37.13-2.02.36-.05.02-.09.04-.14.06-.24.07-.45.2-.66.32,0-.22-.01-.45-.01-.67,0-.58,0-1.15,0-1.73,0-.11.03-.15.15-.15.87,0,1.73,0,2.6,0,.12,0,.15.03.15.15,0,.54,0,1.08,0,1.63-.02.01-.04.02-.07.04Z"></path><path class="cls-4" d="m245.9,116.38v-.83c.28.11.55.23.82.34.49.19,1.01.3,1.54.31.29,0,.42-.08.5-.36.04-.14.04-.34.14-.42.1-.09.28.01.43.03.87.1,1.74.1,2.61-.06.09-.01.12,0,.14.09.03.12.07.25.1.37.07.26.21.35.48.35.52,0,1.02-.12,1.51-.29.29-.1.58-.23.87-.37v.84c-3.05,0-6.09,0-9.14,0Z"></path><path class="cls-5" d="m245.9,116.38c3.05,0,6.09,0,9.14,0,0,1.03,0,2.05,0,3.08,0,.07-.02.13-.06.19,0-.98,0-1.97,0-2.95,0-.17-.05-.2-.21-.2-2.87,0-5.74,0-8.61,0-.16,0-.2.04-.2.2,0,.98,0,1.97,0,2.95-.05-.07-.06-.14-.06-.22,0-1.01,0-2.03,0-3.04Z"></path><path class="cls-4" d="m255.21,111.3c.73.09,1.43.11,2.12-.12,0,.07-.06.09-.09.12-.34.28-.67.55-1.01.83-.08.07-.16.08-.26.04-.4-.16-.62-.45-.75-.87Z"></path><path class="cls-4" d="m243.61,111.18c.51.15,1.04.2,1.57.17.18-.01.35-.03.55-.05-.13.42-.37.72-.78.88-.06.02-.13.04-.19-.01-.38-.31-.77-.61-1.14-.94,0,0,0-.03-.01-.04h0Z"></path><path class="cls-4" d="m252.8,112.95c.1.3.17.54.25.78.02.06,0,.09-.06.11-.29.09-.59.19-.89.23-.06,0-.14.04-.17-.01-.03-.06.03-.13.07-.18.18-.21.36-.41.54-.62.08-.09.16-.19.26-.31Z"></path><path class="cls-4" d="m248.12,112.99c.31.28.57.57.82.88.02.03.04.06.05.09.05.09.03.13-.08.12-.34-.04-.65-.14-.97-.24-.06-.02-.07-.06-.05-.12.08-.23.15-.47.23-.72Z"></path><path class="cls-4" d="m255.04,104.86c-.26-.19-.53-.37-.83-.5,0-.02,0-.03.01-.04.1-.13.19-.34.32-.37.14-.04.24.19.37.28.05.03.09.08.14.12,0,.17,0,.34-.01.5Z"></path><path class="cls-4" d="m245.89,104.33c.13-.12.27-.23.4-.36.06-.06.09-.05.14.01.09.12.19.24.29.37-.3.13-.56.31-.82.48,0-.17,0-.34,0-.51Z"></path><path class="cls-4" d="m243.62,111.18s-.02,0-.03,0c0,0,0-.01,0-.02,0,0,.01.01.02.02,0,0,0,0,0,0Z"></path><path class="cls-4" d="m248.38,113.07s-.03-.01-.02-.03c0,0,.03,0,.04,0,0,0-.01.02-.02.02Z"></path><path class="cls-4" d="m249.82,105.12c-.54.53-.93,1.16-1.11,1.9-.33,1.4,0,2.64.96,3.71.02.02.04.04.06.06.11.08.06.12-.03.16-1.62.76-3.59.02-4.33-1.63-1-2.24.76-4.74,3.2-4.56.48.03.97.18,1.25.36Z"></path><path class="cls-4" d="m251.1,110.89c1.63-1.59,1.64-4.17,0-5.77.94-.56,2.65-.58,3.82.63,1.12,1.16,1.21,2.98.21,4.25-1.03,1.32-2.79,1.55-4.04.88Z"></path><path class="cls-4" d="m250.6,104.71c.7-.41,1.45-.6,2.24-.54,1.75.14,3.1,1.33,3.49,3.03.48,2.12-1.04,4.3-3.19,4.58-2.09.27-3.93-1.02-4.33-3.07-.25-1.32.12-2.47,1.06-3.44.09-.09.14-.06.23,0,.24.16.24.15.05.35-.95,1.02-1.24,2.21-.77,3.52.46,1.3,1.44,2.06,2.81,2.23,2.15.28,4.01-1.59,3.76-3.73-.21-1.81-1.73-3.11-3.55-3.03-.46.02-.9.13-1.31.34-.1.05-.16.06-.25-.03-.07-.07-.16-.12-.26-.2Z"></path><path class="cls-11" d="m244.52,108c-.04-1.77,1.23-3.38,3.04-3.76,1.62-.34,3.33.45,4.13,1.9.36.65.52,1.34.48,2.08-.06.97-.44,1.81-1.13,2.51-.07.07-.13.09-.21.02,0,0-.02-.01-.03-.02-.22-.15-.22-.14-.04-.33.7-.74,1.04-1.61.97-2.62-.11-1.6-1.29-2.88-2.88-3.13-1.14-.17-2.13.17-2.94.97-1.21,1.2-1.31,3.18-.23,4.51.78.96,1.81,1.35,3.03,1.25.35-.03.7-.11,1.01-.28.17-.09.29-.06.43.06.15.14.16.13-.02.23-1.42.78-3.28.52-4.44-.61-.66-.65-1.05-1.42-1.17-2.33-.02-.14,0-.29,0-.44Z"></path><path class="cls-4" d="m251.6,108c-.02.93-.36,1.72-1.02,2.36-.09.09-.14.09-.23,0-1.36-1.28-1.36-3.47,0-4.74.08-.08.13-.08.21,0,.67.65,1.02,1.44,1.03,2.38Z"></path><path class="cls-4" d="m258.02,99.18s.01.06,0,.08c-.24.52-.48,1.04-.71,1.56-.01,0-.02,0-.02,0q-.28-.17-.49.09c-.87,1.09-1.74,2.18-2.6,3.27-.08.1-.15.16-.27.04.17-.21.35-.44.52-.66.75-.94,1.5-1.89,2.26-2.83q.17-.21-.04-.37s-.05-.04-.09-.07c.49-.38.97-.74,1.45-1.11h0Z"></path><path class="cls-4" d="m242.92,99.2c.47.36.95.72,1.42,1.08-.02.02-.03.04-.05.06q-.24.2-.05.44c.89,1.11,1.77,2.22,2.65,3.33.03.04.14.08.06.15-.08.07-.14.03-.21-.05-.9-1.14-1.81-2.27-2.71-3.41-.1-.13-.18-.16-.3-.04-.09.09-.13.06-.18-.05-.22-.49-.45-.98-.67-1.47.01-.01.02-.02.03-.04Z"></path><path class="cls-4" d="m258.02,99.18s.02,0,.03,0c0,0,0,.01-.01.02,0,0-.01-.01-.02-.02,0,0,0,0,0,0Z"></path><path class="cls-11" d="m243.03,112.15s0,0,0-.01c0,0,0,0,0-.01,0,0,0,.01-.01.02,0,0,0,0,0,0Z"></path><path class="cls-4" d="m243.03,112.15s0,0,0,0c0,0,0-.01.01-.02,0,0,0,0,0,.01,0,0,0,0,0,.01Z"></path><g><polygon class="cls-2" points="231.85 122.6 231.85 122.6 231.85 122.59 231.85 122.6"></polygon><path class="cls-2" d="m235.19,126.64c-.02-.11-.06-.21-.12-.31-.02-.03-.06-.06-.02-.11.12.06.22.16.36.2.2.06.28.02.32-.19.06-.33-.04-.63-.22-.91-.34-.52-.78-.95-1.23-1.37-.02-.01-.04-.04-.05-.04-.08.03-.08-.02-.09-.07-.06-.32-.15-.62-.33-.89-.08-.11-.11-.24-.17-.36-.09-.21-.19-.42-.33-.61,0,0,0,0,0-.01h0s0,0,0,0h0s0,0,0,0c-.04-.04-.04-.09-.03-.14.06-.21.02-.43,0-.64-.03-.45-.21-.87-.3-1.3-.05-.25-.1-.5-.16-.78-.17.39-.26.77-.34,1.15-.08.39-.08.78-.13,1.17-.12-.23-.27-.43-.42-.63-.25-.35-.48-.72-.72-1.09-.03-.04-.04-.08-.1-.07-.07.02-.04.07-.04.11-.01.34,0,.67.04,1,.07.53.21,1.04.5,1.5.12.19.39.31.63.26.18-.04.19-.2.22-.34,0,0,0-.01.02-.03.02.03.03.05.04.07.18.3.5.3.67,0,.02-.04.02-.09.07-.11,0,0,0,0,0,0,0,0,0,0,0,0-.05.53-.08,1.05-.05,1.58,0,.08,0,.17.01.28-.29-.37-.58-.69-.89-.99-.15-.15-.29-.3-.49-.4,0,.15.09.28.1.42.04.6.28,1.12.58,1.62.12.2.3.33.54.35.18.02.29-.07.32-.24.01-.1,0-.2,0-.31.43.41.64.33.79-.29.08.72.19,1.43.76,1.98-.73-.41-1.44-.83-2.25-1.1.1.13.19.24.25.35.29.52.69.95,1.16,1.31.2.16.43.29.69.34.28.05.44-.12.4-.4Z"></path><path class="cls-2" d="m251.89,129.04c.52-.08,1.02-.25,1.49-.5.04-.02.11-.03.08-.1-.02-.07-.08-.04-.13-.04-.12,0-.24.01-.35,0-.34-.03-.51-.24-.47-.58.01-.12.04-.24.07-.38-.06.04-.12.08-.16.11-.57.41-1.14.83-1.79,1.11-.07.03-.12.05-.2.01-.52-.26-1.03-.53-1.49-.89-.15-.12-.31-.21-.49-.34.03.12.05.21.07.3.08.42-.12.66-.54.68-.09,0-.19,0-.29,0-.04,0-.09-.03-.11.03-.03.08.04.08.07.1.3.16.62.28.95.38.37.12.79.1,1.18.35-.67.21-1.23.61-1.93.72.19.08.36.12.54.13.73.06,1.38-.17,1.98-.56.12-.08.2-.08.31,0,.25.17.52.31.81.4.55.19,1.11.24,1.72.03-.71-.12-1.27-.51-1.9-.74.2-.11.38-.19.59-.22Z"></path><path class="cls-2" d="m270.36,114.31c.3-.77.28-1.56.25-2.38-.09.07-.09.19-.21.26,0,0,0,0,0,0,.04-.13.08-.23.11-.33.13-.53.14-1.06.14-1.6,0-.14-.03-.19-.18-.09,0,0,.02,0,.03,0,0,.09-.05.17-.1.24-.14.22-.29.43-.44.65-.23.36-.39.74-.34,1.18.05.36.23.44.54.24.01,0,.02.02.04.03-.17.21-.2.49-.36.71-.13.18-.21.38-.26.59-.05.2-.08.39-.03.59.05.19.15.25.35.23.13-.01.23-.08.33-.14,0,0,0-.01,0-.02,0,0,0,.01,0,.02h0s0,0,0,0h0s0,0,0,0c0,0,0,0,.01.01.05.07-.03.09-.06.13-.45.57-.9,1.14-1.02,1.89.05-.95-.29-1.75-.9-2.46-.02.65-.04,1.3.04,1.94.03.29.14.54.3.77.17.23.38.21.51-.04.01-.02,0-.06.04-.06.03.02.02.05.02.08.04.31.22.39.48.22.13-.08.23-.2.31-.32.35-.49.51-1.04.55-1.63.02-.28.02-.56-.02-.85-.08.06-.07.16-.14.19,0,0,0,0,0,0,0,0-.01,0-.02,0-.02-.02,0-.04,0-.06Zm-.03.07s0,0,0,0c0,0,0,0,0,0Zm-.04.04s0,0,.01,0c0,0-.01,0-.01,0Zm-.03.04s-.01,0-.01.01c0,0,0-.01.01-.01Zm.02-2.12s.02-.02.02-.03h0s-.02.02-.02.03c0,.01-.02.03-.03.04h0s.02-.03.03-.04Zm-.06.08s.02.01.02.02c0,0-.02-.01-.02-.02h0Zm.01,2.06s0,0,0,0c0,0,0,0,0,0Z"></path><path class="cls-2" d="m270.54,107.82s.02-.11-.06-.12c-.08,0-.06.07-.08.11-.04.12-.07.25-.12.36-.17.4-.42.76-.52,1.19,0,0,0,0,0,0,0,0,0,0,0,0-.05-.05-.05-.16-.17-.14-.1.02-.08.11-.11.18.11.08.2.06.28-.04h0c0,.07-.01.14-.02.21-.03.23-.06.46,0,.68.07.27.27.34.49.16.07-.05.12-.12.17-.19.01-.02.02-.06.06-.06.22-.8.1-1.58.08-2.35Z"></path><polygon class="cls-2" points="270.46 110.17 270.46 110.17 270.46 110.17 270.46 110.17"></polygon><path class="cls-2" d="m247.82,129.65c-.02-.17-.15-.25-.29-.29-.17-.06-.34-.06-.51-.03-.4.06-.79.14-1.19.18-.35.03-.7.1-1.07,0-.43-.12-.88-.06-1.32-.04-.26.01-.53.02-.8.07.02.03.03.05.04.07.43.64,1.72,1.04,2.44.77.26-.1.34-.29.22-.56,0,0,.02-.02.03-.03.51.29,1.07.41,1.7.41-.66.35-1.14.84-1.63,1.38.09-.02.14-.03.2-.04.58-.12,1.14-.26,1.67-.54.17-.09.33-.2.42-.38.05-.1.11-.21.07-.33-.03-.11-.13-.15-.25-.19.05-.03.08-.05.1-.07.13-.09.2-.22.18-.37Z"></path><path class="cls-2" d="m253.96,130.19c.64,0,1.2-.11,1.74-.44-.14.39-.03.57.32.66.24.06.48.04.72.02.6-.06,1.13-.26,1.54-.73.04-.05.1-.09.09-.17-.08,0-.16-.02-.24-.03-.6-.04-1.21-.09-1.81-.02-.17.02-.32.09-.5.08-.53-.03-1.05-.13-1.58-.2-.24-.03-.49-.08-.73,0-.15.05-.28.12-.31.29-.03.16.05.29.18.39.02.02.07.02.06.07-.24.11-.28.23-.17.48.11.24.32.37.55.47.55.27,1.13.4,1.76.52-.48-.54-.96-1.03-1.62-1.38Z"></path><path class="cls-2" d="m231.53,119.62c.15.04.24-.01.3-.14.04-.1.05-.21.08-.36.03.1.04.16.06.22.05.14.11.28.28.3.17.02.27-.09.34-.23.11-.2.16-.41.18-.64.02-.25.04-.5.06-.75.03-.51.07-1.02.04-1.54-.72.64-.89,1.51-.95,2.46-.06-.27-.09-.49-.22-.67-.16-.22-.27-.47-.38-.72-.13-.31-.35-.57-.54-.85-.03-.04-.02-.11-.09-.1-.09.01-.06.08-.07.13-.05.48-.03.96.03,1.44.06.47.2.9.55,1.25.1.1.2.17.34.21Z"></path><path class="cls-2" d="m270.36,116.59s-.07,0-.08.04c-.1.23-.31.39-.41.61-.23.54-.6,1.01-.75,1.59-.04-.1-.03-.19-.04-.29-.06-.67-.24-1.29-.65-1.84-.07-.1-.16-.2-.29-.24,0,.83.07,1.65.14,2.46.02.21.09.42.23.58.16.19.39.16.5-.06.04-.08.06-.16.09-.24.04.02.03.06.04.09.07.36.25.44.55.22.04-.03.08-.06.12-.1.23-.24.4-.51.48-.83.06-.25.1-.5.12-.76.03-.38.04-.76-.01-1.14,0-.03,0-.08-.04-.1Z"></path><path class="cls-2" d="m269.89,119.66s-.05,0-.07.04c-.09.24-.31.39-.42.62-.2.42-.56.73-.74,1.16-.02-.8-.13-1.58-.45-2.37-.05.23-.08.41-.12.6-.17.77-.46,1.53-.34,2.34,0,0,0,0,0,0,0,0,0,0,0,0-.03-.02-.05-.08-.09,0-.14.31-.27.63-.44.92-.19.33-.3.68-.35,1.06,0,.02,0,.02-.02,0,0-.04,0-.08-.01-.14-.3.27-.58.52-.83.81-.22.25-.43.51-.59.81-.12.22-.14.46-.12.7.02.21.12.27.32.2.13-.04.23-.13.34-.21.03-.02.05-.08.11-.03-.05.07-.1.13-.14.21-.04.08-.08.16-.09.25-.05.28.12.46.41.4.32-.06.57-.24.82-.44.52-.42.89-.97,1.24-1.54-.38.11-.74.28-1.09.46-.35.18-.69.38-1.04.57l-.04-.04c.24-.23.4-.51.49-.82.1-.31.16-.63.2-.96.08.15.08.36.3.4.2.04.35-.08.49-.22,0,.1,0,.17,0,.24.03.23.14.32.38.29.23-.03.38-.17.5-.35.43-.62.53-1.33.68-2.05-.53.38-.93.89-1.37,1.38.02-.55.03-1.07-.02-1.6,0-.07-.05-.13,0-.2,0,0,0,0,0,0,0,0,0,0,0,0,.05.01.05.06.07.1.18.28.46.28.65,0,.02-.03.02-.08.08-.07.03.24.09.33.23.34.27.02.5-.06.65-.32.37-.64.49-1.34.51-2.06,0-.14,0-.28,0-.42,0-.04-.02-.08-.06-.08Zm-.92,3.24s0,0,0,0c0,0-.01,0-.02.01,0,0,.01,0,.02-.01,0,0,0,0,0,0Zm-.04.02s.02.01.02.02h0s-.02-.01-.02-.02h0Z"></path><path class="cls-2" d="m231.43,117.02c.21.1.35.03.4-.19.02-.07.02-.15.03-.22.02.02.02.04.03.06.04.13.1.24.25.27.15.03.23-.07.3-.17.13-.18.23-.38.27-.61.1-.65.08-1.3.08-1.96,0-.04.02-.09-.04-.13-.56.68-.9,1.44-.9,2.34-.06-.18-.11-.34-.18-.51-.19-.46-.5-.84-.8-1.23-.04-.05-.12-.08-.09-.17,0,0,0,0,0,0,0,0,0,0,0,0,.07,0,.11.06.17.09.31.14.52.03.55-.31,0-.05,0-.1,0-.15-.02-.34-.13-.64-.32-.92-.15-.21-.19-.47-.32-.7.04,0,.06.01.09.03.23.11.38.05.44-.2.02-.06.02-.12.03-.18.02-.45-.16-.84-.41-1.19-.16-.23-.34-.46-.45-.72-.04-.09-.08-.14-.18-.14v.87s.02-.01.03-.02h0c0,.38.07.74.18,1.11-.11,0-.08-.12-.17-.12-.01.38-.02.76,0,1.13.02.42.11.82.22,1.22,0,0,0,0,0,0,0,0,0,0,0,0-.08,0-.05-.11-.12-.12-.06.33-.04.65,0,.98.06.6.24,1.16.64,1.63.08.1.17.18.28.23Zm-.72-2.64s-.02-.01-.03-.01h0s.03,0,.03.01Zm.05.08s0,0,0,0c0,0,0,0,0,0Zm-.08-.14s0,0,0,0c0,0,0,0,0,0Zm-.02-.02s0,0-.01,0c0,0,0,0,.01,0Z"></path><path class="cls-2" d="m237.4,128.5s-.06-.07-.04-.13c.04,0,.08,0,.11.01.26.04.4-.11.34-.38-.03-.12-.09-.23-.16-.33-.18-.25-.4-.45-.65-.62-.33-.23-.67-.45-.96-.73-.04-.03-.07-.11-.14-.06-.07.04-.01.1,0,.15.19.55.46,1.07.85,1.51-.02.01-.03.03-.05.04-.72-.26-1.47-.39-2.26-.53.16.21.34.35.51.5.47.4.97.75,1.58.93.21.06.43.1.65.06.21-.05.3-.22.22-.42Z"></path><path class="cls-2" d="m265.13,126.38s.05-.08,0-.12c-.05-.03-.08,0-.11.03-.29.29-.63.51-.97.74-.23.16-.43.34-.61.55-.09.11-.18.23-.21.38-.08.31.1.5.35.41.03,0,.06,0,.11,0,0,.03-.01.05-.02.06-.13.27-.02.46.28.49.06,0,.12,0,.18,0,.49-.04.91-.26,1.31-.52.42-.27.79-.59,1.16-.98-.82.14-1.6.28-2.36.54.44-.46.7-1.01.91-1.59Zm-.21.16s0,.01-.01.02h0s0-.01.01-.02Zm1.28,1.11h0s-.02-.02-.02-.03c0,0,.02.02.02.03Z"></path><path class="cls-2" d="m231.5,109.42s.03-.03.04-.05c.02.03.01.05,0,.08-.08.23-.18.45-.16.7.03.25.24.4.46.33.13-.04.21-.15.28-.26.17-.27.27-.57.34-.88.1-.45.04-.91.06-1.37,0-.05-.01-.08-.05-.09-.06-.02-.08.04-.1.07-.25.32-.45.66-.62,1.03-.06.13-.12.27-.19.41-.07-.14-.11-.17-.18-.15-.1.03-.1.1-.09.19h0s0,0,0,0c0,0,0,0,0,0,0,0,0,0,0,0,0,0,0,0,0,0,.07.04.13.07.21,0Z"></path><path class="cls-2" d="m239.89,130.08c-.1-.13-.23-.21-.38-.27-.73-.3-1.49-.46-2.33-.47.55.54,1.09.99,1.79,1.21.24.07.48.13.72.07.27-.06.36-.32.19-.54Z"></path><path class="cls-2" d="m261.54,129.8c-.16.06-.3.15-.4.29-.16.21-.07.47.19.53.23.06.46.01.68-.05.53-.15.98-.45,1.39-.81.15-.12.29-.25.42-.41-.03,0-.05-.01-.06-.01-.77.01-1.51.17-2.22.45Z"></path><path class="cls-2" d="m245.28,130.56c-.17-.05-.34-.06-.52-.04-.73.1-1.4.37-2.07.74.35.09.67.14.99.18.46.05.91.09,1.37-.02.16-.04.31-.1.42-.23.22-.26.13-.54-.19-.64Z"></path><path class="cls-2" d="m241.99,130.45c-.76-.1-1.48.09-2.21.27.7.38,1.44.6,2.24.6.12,0,.24-.02.36-.08.24-.13.28-.41.08-.6-.13-.12-.29-.17-.46-.19Z"></path><path class="cls-2" d="m232.19,110.46c-.34.51-.68,1.03-.63,1.69.01.15.04.28.19.34.15.06.28.03.41-.07.03-.02.04-.1.1-.07-.03-.03.01-.06.03-.08.08-.12.14-.24.18-.38.17-.62.21-1.25.17-1.89,0-.04,0-.08-.05-.09-.06-.01-.08.03-.1.07-.09.17-.2.32-.3.48Z"></path><path class="cls-2" d="m232.29,112.36s-.01,0-.02-.01c0,0,0,0,.02.01h0Z"></path><path class="cls-2" d="m258.73,130.54c-.2.09-.31.25-.29.41.02.18.15.3.38.35.23.05.46.02.68,0,.62-.07,1.19-.27,1.78-.58-.57-.15-1.1-.25-1.64-.29-.31-.02-.62-.02-.91.11Z"></path><path class="cls-2" d="m255.79,130.55c-.15.04-.3.09-.34.26-.04.18.03.33.17.45.15.12.32.17.51.2.73.1,1.45-.03,2.16-.2-.49-.28-1-.52-1.56-.64-.31-.07-.62-.15-.94-.07Z"></path><path class="cls-2" d="m269.56,108.86c.18,0,.28-.12.35-.27.06-.15.07-.3.08-.48-.03-.67-.28-1.32-.33-2,0-.04-.02-.06-.06-.06-.05,0-.06.04-.06.08-.02.13-.04.27-.05.4-.04.36-.22.68-.27,1.04-.04.35-.08.69.05,1.03.05.14.14.27.31.27Z"></path><path class="cls-2" d="m239.2,129.5c.2.14.42.24.66.28.23.04.36-.06.41-.28.03-.12-.01-.23-.07-.33-.11-.19-.27-.33-.45-.44-.55-.33-1.17-.49-1.84-.63.37.57.76,1.06,1.29,1.42Z"></path><path class="cls-2" d="m230.8,110.43c.22.16.41.09.48-.17.04-.18.03-.37.02-.55,0-.1-.06-.2,0-.29-.07-.02-.05-.09-.07-.14-.06-.21-.13-.42-.24-.6-.16-.28-.29-.56-.37-.87-.01-.04,0-.09-.07-.09-.06,0-.06.05-.06.1,0,.19-.02.38-.03.57,0,.47-.04.94.02,1.41.04.25.11.49.33.65Z"></path><path class="cls-2" d="m261.22,129.76c.89-.24,1.37-.95,1.86-1.65-.74.17-1.48.3-2.07.82-.09.08-.16.18-.21.3-.07.16-.06.31.05.44.1.13.24.12.38.09Z"></path><path class="cls-2" d="m231.46,108.87c.15,0,.23-.1.29-.22.09-.19.11-.4.11-.6,0-.2-.02-.4-.06-.6-.06-.35-.23-.66-.26-1.02,0-.08-.02-.16-.03-.23,0-.05.01-.12-.07-.13-.08,0-.05.07-.06.11-.02.09-.03.18-.04.26-.09.47-.19.94-.27,1.41-.04.27-.04.54.08.79.06.14.17.23.32.23Z"></path><polygon class="cls-2" points="269.48 109.4 269.49 109.4 269.48 109.4 269.48 109.4"></polygon><path class="cls-2" d="m269.39,109.21c-.2-.46-.43-.89-.74-1.29-.02-.03-.04-.09-.1-.06-.04.02-.04.06-.04.1,0,.34,0,.68.01,1.02.03.45.17.88.41,1.26.08.12.17.23.33.24.26.02.41-.17.39-.46-.01-.22-.13-.41-.17-.62-.06-.05-.07-.12-.09-.18Z"></path><path class="cls-2" d="m268.52,111.78c.05.24.15.47.34.64.22.2.56.1.58-.17.03-.28.02-.55-.08-.82-.2-.54-.58-.97-.85-1.47-.02-.04-.05-.04-.08-.04-.06,0-.05.05-.05.09,0,.16,0,.31,0,.42-.03.5.05.93.14,1.36Z"></path><polygon class="cls-2" points="232.29 112.36 232.28 112.36 232.29 112.36 232.29 112.36"></polygon><path class="cls-2" d="m232.26,112.44c-.23.34-.4.72-.55,1.1-.08.2-.14.41-.1.64.03.14.08.27.23.32.16.05.29-.03.4-.15.19-.23.31-.5.35-.78.07-.46.08-.93.09-1.4,0-.05.03-.11-.03-.13-.06-.02-.09.04-.13.08-.07.08-.12.19-.23.24.02.04-.01.06-.03.08Z"></path><path class="cls-2" d="m242.56,129.72c-.16-.16-.36-.25-.57-.3-.53-.13-1.08-.18-1.63-.21,0,.03,0,.04,0,.04,0,.02.02.04.03.06.45.68,1.06,1.09,1.91,1.08.17,0,.34-.02.41-.2.07-.18-.01-.34-.14-.47Z"></path><path class="cls-2" d="m268.35,112.37c.01.25.03.49.04.74.02.36.07.72.26,1.04.07.12.15.24.27.31.19.11.39.05.47-.15.06-.16.06-.32.02-.48-.15-.54-.39-1.03-.71-1.48-.07-.1-.14-.19-.22-.28-.03-.03-.06-.05-.1-.04-.04.01-.02.06-.03.09,0,.08,0,.17,0,.25Z"></path><path class="cls-2" d="m260.68,129.21c-.54.02-1.05.08-1.56.19-.28.06-.55.16-.73.41-.19.27-.08.54.23.58.77.1,1.73-.45,2.06-1.18Z"></path><polygon class="cls-2" points="269.49 109.4 269.49 109.4 269.48 109.4 269.49 109.4"></polygon><path class="cls-2" d="m231.83,122.6s.01,0,.02,0c0,0,0-.01-.01-.02,0,0,0,.01,0,.02Z"></path><polygon class="cls-2" points="231.85 122.6 231.85 122.59 231.85 122.6 231.85 122.6"></polygon></g></g></g></g></g></svg> 