<?xml version="1.0" encoding="UTF-8"?> <svg xmlns="http://www.w3.org/2000/svg" xmlns:xlink="http://www.w3.org/1999/xlink" viewBox="0 0 360 500"><defs><style> .cls-1 { fill: none; } .cls-2 { clip-path: url(#clippath); } .cls-3 { fill: #040404; } .cls-4 { fill: #010101; } .cls-5 { fill: #02509e; } .cls-6 { fill: #0082ca; } .cls-7 { fill: #fdfdfc; } .cls-8 { fill: #c09704; } .cls-9, .cls-10 { fill: #241f20; } .cls-11 { fill: #1e1e1e; } .cls-12 { fill: #141414; } .cls-13 { fill: url(#Naamloos_verloop_22-2); } .cls-14 { fill: url(#Naamloos_verloop_22-3); } .cls-15 { fill: url(#Naamloos_verloop_22-4); } .cls-16 { isolation: isolate; } .cls-17 { fill: url(#Naamloos_verloop_22); } .cls-18 { mix-blend-mode: multiply; opacity: .2; } .cls-10 { opacity: .5; } </style><clipPath id="clippath"><path id="Body-2" data-name="Body" class="cls-1" d="m238.77,11.59l54.38,31.8c29.13,20.49,6.91,98.94,6.91,98.94,0,0-8.95,26.4-8.59,61.93l11.35,286.08c-81.51,12.91-164.56,12.91-246.07,0l11.77-286.08c.37-35.53-8.59-61.93-8.59-61.93,0,0-22.22-78.45,6.91-98.94l54.21-31.8h117.71Z"></path></clipPath><linearGradient id="Naamloos_verloop_22" data-name="Naamloos verloop 22" x1="267.42" y1="5.83" x2="267.42" y2="414.93" gradientTransform="translate(358.74 512.45) rotate(-180)" gradientUnits="userSpaceOnUse"><stop offset="0" stop-color="#2774dc"></stop><stop offset=".35" stop-color="#2673da"></stop><stop offset=".47" stop-color="#256fd3"></stop><stop offset=".56" stop-color="#2369c7"></stop><stop offset=".64" stop-color="#2060b6"></stop><stop offset=".7" stop-color="#1c54a0"></stop><stop offset=".75" stop-color="#174685"></stop><stop offset=".8" stop-color="#113564"></stop><stop offset=".85" stop-color="#0b213f"></stop><stop offset=".89" stop-color="#030b16"></stop><stop offset=".91" stop-color="#000"></stop></linearGradient><linearGradient id="Naamloos_verloop_22-2" data-name="Naamloos verloop 22" x1="209.07" y1="5.83" x2="209.07" y2="414.93" xlink:href="#Naamloos_verloop_22"></linearGradient><linearGradient id="Naamloos_verloop_22-3" data-name="Naamloos verloop 22" x1="148.4" y1="5.83" x2="148.4" y2="414.93" xlink:href="#Naamloos_verloop_22"></linearGradient><linearGradient id="Naamloos_verloop_22-4" data-name="Naamloos verloop 22" x1="90.05" x2="90.05" xlink:href="#Naamloos_verloop_22"></linearGradient></defs><g class="cls-16"><g id="Laag_1" data-name="Laag 1"><g id="Brentford"><path id="Jersey_Color" data-name="Jersey Color" d="m293.15,43.39c16.69,10.52,32.92,21.85,41.69,30.94,18.05,18.72,23.45,88.61,24.92,117.3-19.56,18.44-68.2,20.76-68.28,12.63l11.35,286.08c-81.51,12.91-164.56,12.91-246.07,0l11.77-286.08c-.08,8.13-48.73,5.8-68.28-12.63,1.47-28.68,6.87-98.58,24.92-117.3,8.76-9.09,24.99-20.42,41.68-30.94l53.58-31.43L131.83.02S180.07,21.25,228.03.02l10.74,11.56,54.38,31.8Z"></path><path id="Body" d="m238.77,11.59l54.38,31.8c29.13,20.49,6.91,98.94,6.91,98.94,0,0-8.95,26.4-8.59,61.93l11.35,286.08c-81.51,12.91-164.56,12.91-246.07,0l11.77-286.08c.37-35.53-8.59-61.93-8.59-61.93,0,0-22.22-78.45,6.91-98.94l54.21-31.8h117.71Z"></path><g class="cls-2"><rect class="cls-17" x="75.93" y="89.48" width="30.77" height="422.16"></rect><rect class="cls-13" x="134.28" y="89.48" width="30.77" height="422.16"></rect><rect class="cls-14" x="194.95" y="89.48" width="30.77" height="422.16"></rect><rect class="cls-15" x="253.3" y="89.48" width="30.77" height="422.16"></rect><g id="Shading" class="cls-18"><path class="cls-9" d="m67.92,217.68c3.28-42.1-8-75.36-8-75.36,0,0-3.92-13.84-6.31-31.41l29.42,68.13c2.77,6.4,4.43,17.31,3.71,24.25l-29.98,287.04,11.17-272.66Z"></path><path class="cls-9" d="m292.08,217.68c-3.28-42.1,8-75.36,8-75.36,0,0,3.92-13.84,6.31-31.41l-29.42,68.13c-2.77,6.4-4.43,17.31-3.71,24.25l29.57,287.04-10.75-272.66Z"></path><path class="cls-10" d="m50.67,54c5.17-3.55,10.65-7.13,16.17-10.62-10.67,7.5-14.45,22.78-14.95,39.13,0,0-8.61-23.09-1.22-28.52Z"></path><path class="cls-10" d="m309.86,54.36c-5.17-3.55-11.18-7.49-16.71-10.98,10.67,7.5,14.61,22.78,15.12,39.13,0,0,8.98-22.73,1.59-28.16Z"></path><path class="cls-10" d="m157.69,35.62C145.83,23.79,134.81,14.35,131.83.02c0,0,7.46,3.28,19.43,5.98,0,0-.96,9.27,6.43,29.62Z"></path></g></g><g id="Collar"><g><path class="cls-11" d="m228.03.02C180.07,21.25,131.83.02,131.83.02l-11.4,11.93s17.44,12.57,60.3,12.59c41.56-.02,57.7-11.83,58.66-12.59L228.03.02Z"></path><path d="m179.9,51.69s-32.32-17.69-40.98-32.14c9.66,2.65,23.39,4.98,41.81,4.98,17.62,0,30.67-2.14,39.93-4.64-8.69,14.27-40.77,31.8-40.77,31.8Z"></path></g><path class="cls-12" d="m227.96.02c-3.51,23.5-48.07,51.67-48.07,51.67,0,0-44.55-28.17-48.07-51.67l-11.43,11.93c5.43,19.72,29.25,36.16,45.05,45.17,8.33,4.75,14.44,7.43,14.44,7.43,0,0,51.2-22.48,59.49-52.6L227.96.02Z"></path><polygon class="cls-12" points="180 78.79 169.12 78.79 159.71 49.57 180 55.41 180 78.79"></polygon><polygon class="cls-12" points="180 78.79 190.88 78.79 200.29 49.57 180 55.41 180 78.79"></polygon><polygon points="180 78.79 188.36 44.76 171.64 44.76 180 78.79"></polygon></g><g><path class="cls-4" d="m220.71,119.71c.03-4.6,1.43-8.75,4.26-12.38,2.21-2.84,5-4.94,8.34-6.29.15-.06.18-.1.07-.24-.55-.64-.9-1.38-1.03-2.21-.21-1.4.03-2.67,1.1-3.69.6-.57,1.33-.88,2.15-.98.97-.13,1.91.01,2.82.36.11.04.14.03.15-.09.11-1.18,1.03-2.04,2.21-2.08,1.17-.04,2.24.93,2.3,2.08,0,.12.02.14.14.1.79-.3,1.62-.45,2.46-.4,1.82.11,3.4,1.27,3.63,3.31.15,1.33-.17,2.54-1.03,3.58-.02.02-.03.04-.04.06-.11.1-.07.15.06.2,1.7.68,3.29,1.57,4.74,2.7,3.6,2.8,6.02,6.39,7.21,10.79.38,1.38.59,2.79.65,4.22.2,4.8-1.1,9.16-3.98,13-2.88,3.85-6.69,6.35-11.36,7.5-1.06.26-2.13.42-3.22.5-1.08.09-2.16.08-3.24-.01-3.89-.35-7.4-1.7-10.5-4.08-3.1-2.38-5.32-5.42-6.67-9.09-.46-1.24-.78-2.52-.98-3.83-.15-1-.24-2.01-.23-3.03Zm15.55-17.75c-8.22,2.1-14.84,10.17-13.61,20.11,1.01,8.1,7.66,15.21,16.8,15.91,8.66.66,16.71-4.91,19.03-13.5,1.14-4.2.83-8.33-.99-12.29-2.43-5.28-6.53-8.64-12.11-10.25.37-.34.71-.69,1.03-1.07.79-.9,1.29-1.91,1.16-3.15-.06-.61-.29-1.14-.78-1.53-.68-.54-1.46-.67-2.3-.53-.17.03-.33.12-.52.06-.86-.28-1.69-.17-2.48.26-.1.05-.13.06-.2-.05-.27-.48-.72-.49-.99,0-.06.11-.1.12-.21.06-.79-.43-1.61-.54-2.47-.26-.06.02-.11.03-.17.01-.45-.12-.91-.17-1.38-.1-.84.13-1.72.64-1.98,1.7-.18.74-.08,1.45.2,2.15.26.65.72,1.18,1.17,1.69.24.27.49.51.78.77Zm5.27-7.37s0-.06,0-.09c.02-.14-.04-.2-.18-.18-.03,0-.07,0-.11,0-.16.03-.19-.04-.19-.19,0-.32.05-.28-.28-.29-.02,0-.04,0-.05,0-.14-.02-.17.04-.17.17,0,.3,0,.3-.3.3-.05,0-.14-.04-.16.04-.03.14-.04.29,0,.42.03.08.16.04.23.03.19-.03.25.05.23.23,0,.07-.04.19.02.22.13.06.28.04.42.01.1-.02.05-.13.05-.2,0-.26,0-.25.25-.26.25,0,.22.03.22-.23Z"></path><path class="cls-8" d="m242.48,90.47c-.54-.36-1.04-.69-1.54-1.03-.11-.07-.18-.08-.3,0-.5.34-1.01.67-1.53,1.01-.03-.1.02-.17.04-.23.14-.5.29-.99.44-1.49.03-.11.02-.18-.08-.26-.49-.4-.97-.81-1.49-1.24.1,0,.16,0,.22-.01.57,0,1.15-.01,1.72,0,.15,0,.22-.04.26-.19.17-.59.37-1.17.57-1.8.08.25.14.45.21.66.12.4.25.8.37,1.2.03.1.08.14.19.14.65,0,1.3,0,1.96,0-.02.09-.08.11-.12.15-.44.37-.89.74-1.33,1.11-.09.08-.12.14-.08.26.16.53.31,1.06.47,1.59,0,.03.02.07.04.15Z"></path><path class="cls-7" d="m236.27,101.96c-.29-.26-.54-.51-.78-.77-.46-.52-.91-1.04-1.17-1.69-.28-.69-.37-1.41-.2-2.15.26-1.07,1.14-1.57,1.98-1.7.47-.07.92-.03,1.38.1.06.02.11,0,.17-.01.86-.28,1.69-.17,2.47.26.11.06.14.05.21-.06.27-.48.72-.48.99,0,.06.11.1.11.2.05.79-.43,1.61-.54,2.48-.26.19.06.35-.04.52-.06.84-.14,1.62,0,2.3.53.49.39.72.92.78,1.53.13,1.24-.37,2.25-1.16,3.15-.33.37-.67.73-1.03,1.07,5.58,1.61,9.68,4.97,12.11,10.25,1.82,3.96,2.13,8.09.99,12.29-2.32,8.59-10.38,14.17-19.03,13.5-9.13-.7-15.79-7.81-16.8-15.91-1.24-9.94,5.39-18.01,13.61-20.11Zm4.56,4.94c-7.07,0-12.8,5.71-12.8,12.79,0,7.07,5.71,12.79,12.79,12.81,7.04.02,12.79-5.72,12.8-12.78.01-7.07-5.72-12.81-12.78-12.82Zm1.44-6.15c.21.02.39,0,.55.06.44.15.71-.08.98-.39.49-.57.92-1.16,1.06-1.91.13-.66-.05-1.53-.9-1.88-.26-.11-.53-.18-.81-.2-.36-.02-.7.05-1.05.22.08.03.13.04.18.06.81.29,1.22.89,1.16,1.7-.03.4-.15.78-.33,1.14-.21.43-.5.81-.83,1.19Zm-2.74-4.09s-.04-.04-.06-.05c-.41-.16-.83-.24-1.26-.14-.57.12-1.07.35-1.32.92-.22.52-.17,1.04.01,1.55.26.75.79,1.32,1.34,1.87.03.03.06.05.11.04.33-.04.66-.07.99-.11,0-.07-.06-.1-.1-.15-.45-.54-.82-1.12-.98-1.82-.22-.97.16-1.69,1.07-2.05.06-.03.13-.05.2-.08Zm5.76,5.86c0-.08.02-.15.02-.22,0-.07,0-.14.02-.21.01-.1-.02-.12-.12-.15-1.21-.31-2.44-.48-3.68-.52-1.64-.06-3.27.09-4.87.46-.37.09-.36.08-.34.48.01.16.06.17.19.13,1.7-.45,3.42-.64,5.17-.54,1.21.07,2.41.26,3.6.58Zm-.59,1.16c-.87-.52-7.14-.51-7.75,0,.74.41,7,.41,7.75,0Zm-8.26-7.21c-.1,0-.17.01-.24.02-.69.09-1.15.51-1.26,1.19-.11.68.04,1.31.4,1.9.29.46.66.86,1.02,1.27.22.25.43.32.74.21.15-.05.12-.07.04-.16-.36-.42-.71-.85-.92-1.37-.28-.68-.44-1.37-.27-2.11.08-.35.25-.65.49-.95Zm7.96,4.55c.18.04.33.06.48.1.07.02.12,0,.17-.05.41-.39.78-.82,1.12-1.28.41-.58.6-1.22.56-1.93-.06-.97-.82-1.37-1.51-1.37.02.02.03.04.04.06.35.42.51.92.5,1.46-.01.8-.26,1.53-.71,2.19-.19.28-.41.54-.65.82Zm-3.58-2.19c.48,0,.86-.38.86-.86,0-.48-.38-.86-.86-.86-.48,0-.86.39-.86.86,0,.48.38.86.86.86Zm.47.91c0-.26-.21-.46-.47-.46-.27,0-.47.21-.47.48,0,.26.21.47.47.47.26,0,.47-.22.47-.48Zm-4.05,2.88c-.19,0-.33.14-.33.32,0,.18.13.32.31.33.18,0,.34-.14.34-.32,0-.18-.14-.33-.32-.33Zm3.58.3c.19,0,.33-.14.33-.33,0-.18-.15-.33-.33-.32-.17,0-.31.15-.32.32,0,.19.14.33.32.33Zm3.91.03c0-.18-.14-.33-.32-.33-.18,0-.32.14-.32.31,0,.18.13.33.32.34.18,0,.33-.14.33-.32Zm-1.93-.27c0-.14-.11-.26-.25-.27-.15,0-.28.12-.28.27,0,.14.12.26.26.27.15,0,.27-.12.27-.27Zm-3.44,0c0-.14-.12-.26-.26-.26-.15,0-.27.12-.27.27,0,.14.12.26.26.26.15,0,.27-.12.27-.27Z"></path><path class="cls-7" d="m241.53,94.58c0,.27.03.23-.22.23-.25,0-.24,0-.25.26,0,.07.05.18-.05.2-.14.02-.29.05-.42-.01-.06-.03-.03-.15-.02-.22.02-.18-.03-.26-.23-.23-.08.01-.2.05-.23-.03-.05-.13-.03-.28,0-.42.01-.08.1-.04.16-.04.3,0,.31,0,.3-.3,0-.13.03-.19.17-.17.02,0,.04,0,.05,0,.33,0,.29-.04.28.29,0,.15.02.23.19.19.03,0,.07,0,.11,0,.14-.02.2.03.18.18,0,.03,0,.06,0,.09Z"></path><path class="cls-4" d="m240.82,106.9c7.06,0,12.79,5.75,12.78,12.82-.01,7.06-5.75,12.8-12.8,12.78-7.08-.02-12.8-5.74-12.79-12.81,0-7.08,5.73-12.8,12.8-12.79Zm-11.25,12.82c0,6.19,5.04,11.23,11.23,11.24,6.19,0,11.25-5.04,11.25-11.24,0-6.21-5.04-11.25-11.25-11.25-6.2,0-11.24,5.05-11.23,11.25Z"></path><path class="cls-4" d="m242.26,100.75c.33-.38.62-.76.83-1.19.18-.36.31-.74.33-1.14.06-.81-.35-1.41-1.16-1.7-.05-.02-.1-.03-.18-.06.34-.17.69-.24,1.05-.22.28.01.55.09.81.2.85.35,1.03,1.22.9,1.88-.14.76-.57,1.34-1.06,1.91-.27.31-.53.53-.98.39-.16-.05-.34-.04-.55-.06Z"></path><path class="cls-4" d="m239.52,96.66c-.08.03-.14.05-.2.08-.91.35-1.29,1.08-1.07,2.05.16.7.53,1.28.98,1.82.04.04.09.07.1.15-.33.04-.66.07-.99.11-.05,0-.08-.01-.11-.04-.55-.55-1.08-1.12-1.34-1.87-.18-.52-.23-1.03-.01-1.55.25-.58.75-.8,1.32-.92.43-.09.85-.02,1.26.14.02,0,.04.03.06.05Z"></path><path class="cls-3" d="m245.29,102.52c-1.19-.32-2.38-.52-3.6-.58-1.76-.1-3.48.09-5.17.54-.13.04-.18.03-.19-.13-.03-.39-.04-.39.34-.48,1.6-.37,3.23-.52,4.87-.46,1.24.05,2.47.22,3.68.52.1.02.13.05.12.15-.01.07-.01.14-.02.21,0,.07-.01.14-.02.22Z"></path><path class="cls-3" d="m244.7,103.68c-.75.42-7.01.42-7.75,0,.61-.52,6.88-.53,7.75,0Z"></path><path class="cls-3" d="m236.43,96.47c-.24.3-.41.6-.49.95-.17.74,0,1.43.27,2.11.21.52.56.95.92,1.37.08.09.1.11-.04.16-.31.11-.52.03-.74-.21-.36-.41-.73-.8-1.02-1.27-.36-.58-.51-1.22-.4-1.9.11-.68.57-1.1,1.26-1.19.07,0,.14-.01.24-.02Z"></path><path class="cls-3" d="m244.4,101.02c.25-.28.46-.54.65-.82.45-.66.69-1.39.71-2.19,0-.54-.15-1.03-.5-1.46-.01-.02-.02-.04-.04-.06.69,0,1.45.4,1.51,1.37.04.71-.15,1.35-.56,1.93-.33.46-.71.88-1.12,1.28-.05.05-.1.07-.17.05-.15-.04-.3-.06-.48-.1Z"></path><path class="cls-4" d="m240.81,98.83c-.48,0-.86-.38-.86-.86,0-.48.39-.86.86-.86.48,0,.86.39.86.86,0,.48-.38.86-.86.86Z"></path><path class="cls-3" d="m241.28,99.74c0,.26-.21.48-.47.48-.25,0-.46-.21-.47-.47,0-.27.2-.48.47-.48.26,0,.47.2.47.46Z"></path><path class="cls-3" d="m237.23,102.62c.18,0,.33.15.32.33,0,.18-.16.32-.34.32-.18,0-.31-.15-.31-.33,0-.19.14-.33.33-.32Z"></path><path class="cls-3" d="m240.81,102.92c-.19,0-.33-.14-.32-.33,0-.17.14-.32.32-.32.18,0,.33.14.33.32,0,.18-.14.33-.33.33Z"></path><path class="cls-3" d="m244.72,102.95c0,.18-.15.32-.33.32-.18,0-.32-.15-.32-.34,0-.18.15-.31.32-.31.18,0,.33.15.32.33Z"></path><path class="cls-3" d="m242.79,102.68c0,.15-.13.27-.27.27-.14,0-.26-.13-.26-.27,0-.15.13-.27.28-.27.14,0,.25.12.25.27Z"></path><path class="cls-3" d="m239.36,102.67c0,.15-.12.27-.27.27-.14,0-.26-.12-.26-.26,0-.15.12-.27.27-.27.14,0,.26.12.26.26Z"></path><path class="cls-7" d="m229.57,119.71c0-6.2,5.04-11.25,11.23-11.25,6.21,0,11.26,5.04,11.25,11.25,0,6.2-5.06,11.25-11.25,11.24-6.19,0-11.23-5.05-11.23-11.24Zm.85-2.76s-.03.02-.03.04c-.11.32-.16.66-.22.99-.16.98-.18,1.96-.07,2.94.05.45.12.91.25,1.35.22.91.55,1.77,1,2.58.19.35.38.71.65,1.01-.01.06.03.09.06.12.35.49.74.95,1.17,1.37.43.42.89.83,1.4,1.16,1.09.78,2.3,1.32,3.6,1.64.5.15,1.02.22,1.54.27.89.08,1.77.07,2.65-.07.37-.06.75-.11,1.11-.25.04,0,.07,0,.11-.02,3.42-1,5.82-3.16,7.19-6.45.16-.38.31-.77.37-1.19.04-.05.06-.12.07-.18.18-.74.28-1.48.3-2.24.03-.98-.06-1.95-.31-2.9-.22-.95-.58-1.86-1.07-2.71-.17-.31-.34-.62-.58-.89-.1-.22-.26-.39-.41-.58-.64-.79-1.36-1.49-2.2-2.07-.14-.09-.27-.19-.41-.28-1-.63-2.06-1.1-3.22-1.37-1.19-.3-2.39-.38-3.6-.26-.57.05-1.13.14-1.68.31-.04,0-.07,0-.11.02-3.42,1-5.82,3.16-7.19,6.45-.16.39-.31.78-.38,1.2h0Z"></path><path class="cls-7" d="m253.18,128.99s.01.03.02.04c-.01,0-.03,0-.04,0,0-.01.02-.02.02-.03Z"></path><path class="cls-4" d="m234.64,128.51c-.51-.33-.96-.73-1.4-1.16-.43-.42-.82-.88-1.17-1.37-.03-.04-.07-.07-.06-.12.06-.05.12-.1.17-.15,4.89-4.89,9.78-9.78,14.67-14.67.05-.05.1-.1.16-.15.84.58,1.57,1.28,2.2,2.07.15.18.31.36.41.58-.08.02-.11.08-.16.13-4.67,4.68-9.35,9.35-14.02,14.03-.27.27-.54.54-.8.82Z"></path><path class="cls-6" d="m234.64,128.51c.27-.27.53-.55.8-.82,4.67-4.68,9.34-9.35,14.02-14.03.05-.05.09-.12.16-.13.24.27.41.58.58.89.48.85.84,1.75,1.07,2.71-.05.04-.1.08-.15.13-4.29,4.3-8.59,8.59-12.88,12.89-1.31-.32-2.51-.86-3.6-1.64Z"></path><path class="cls-6" d="m247.01,110.89c-.05.05-.11.09-.16.15-4.89,4.89-9.78,9.78-14.67,14.67-.05.05-.12.1-.17.15-.27-.31-.46-.66-.65-1.01-.45-.82-.78-1.68-1-2.58.04-.03.08-.07.12-.1,4.26-4.26,8.53-8.52,12.79-12.78.04-.04.1-.07.11-.14,1.15.27,2.22.74,3.22,1.37.14.09.27.19.41.28Z"></path><path class="cls-4" d="m243.38,109.24c-.01.06-.07.1-.11.14-4.26,4.26-8.53,8.52-12.79,12.78-.04.04-.08.07-.12.1-.13-.44-.2-.89-.25-1.35-.11-.98-.09-1.96.07-2.94.05-.33.11-.67.22-.99.02,0,.03-.02.03-.04h0s.08-.05.11-.08c2.49-2.49,4.98-4.98,7.47-7.47.03-.03.06-.07.09-.11.55-.17,1.11-.26,1.68-.31,1.21-.11,2.42-.04,3.6.26Z"></path><path class="cls-4" d="m238.24,130.15c4.29-4.3,8.59-8.59,12.88-12.89.05-.05.1-.09.15-.13.25.95.34,1.92.31,2.9-.02.76-.12,1.5-.3,2.24-.02.06-.03.13-.07.18-.08.03-.12.1-.17.15-2.46,2.46-4.91,4.91-7.37,7.37-.04.04-.08.09-.12.13-.36.14-.73.19-1.11.25-.88.14-1.77.15-2.65.07-.52-.05-1.04-.12-1.54-.27Z"></path><path class="cls-6" d="m238.1,109.28s-.06.07-.09.11c-2.49,2.49-4.98,4.98-7.47,7.47-.03.03-.07.06-.11.09.07-.42.21-.82.38-1.2,1.37-3.29,3.77-5.44,7.19-6.45.03,0,.07-.01.11-.02Z"></path><path class="cls-6" d="m243.54,130.11s.08-.09.12-.13c2.46-2.46,4.91-4.91,7.37-7.37.05-.05.1-.12.17-.15-.06.41-.21.8-.37,1.19-1.37,3.29-3.76,5.44-7.19,6.45-.03,0-.07.01-.11.02Z"></path><path class="cls-6" d="m230.42,116.95s0,.03-.03.04c0-.02,0-.04.03-.04Z"></path></g><path class="cls-5" d="m359.76,191.86c-19.95,17.9-67.33,20.64-68.15,12.77.01-.72.06-1.9.08-2.61,1.86,7.53,48.07,4.68,67.87-12.88l.19,2.73Z"></path><path class="cls-5" d="m.24,191.86c19.95,17.9,67.33,20.64,68.15,12.77-.01-.72-.06-1.9-.08-2.61-1.86,7.53-48.07,4.68-67.87-12.88l-.19,2.73Z"></path></g></g></g></svg> 