<?xml version="1.0" encoding="UTF-8"?> <svg xmlns="http://www.w3.org/2000/svg" xmlns:xlink="http://www.w3.org/1999/xlink" viewBox="0 0 360 500"><defs><style> .cls-1 { fill: none; } .cls-2 { clip-path: url(#clippath); } .cls-3 { fill: #f2f2f2; } .cls-4 { fill: #033687; } .cls-5 { fill: #02509e; } .cls-6 { fill: #eaeaea; } .cls-7 { fill: #fafbfc; } .cls-8 { fill: #fcfcfc; } .cls-9 { fill: #fff; } .cls-10, .cls-11 { fill: #241f20; } .cls-12 { isolation: isolate; } .cls-13 { mix-blend-mode: multiply; opacity: .2; } .cls-11 { opacity: .5; } </style><clipPath id="clippath"><path id="Body" class="cls-1" d="m238.77,11.58l54.38,31.8c29.13,20.49,6.91,98.94,6.91,98.94,0,0-8.95,26.4-8.59,61.93l11.35,286.08c-81.51,12.91-164.56,12.91-246.07,0l11.77-286.08c.37-35.53-8.59-61.93-8.59-61.93,0,0-22.22-78.45,6.91-98.94l54.21-31.8h117.71Z"></path></clipPath></defs><g class="cls-12"><g id="Laag_1" data-name="Laag 1"><g id="Gent"><path id="Jersey_Color" data-name="Jersey Color" class="cls-5" d="m293.15,43.37c16.69,10.52,32.92,21.85,41.69,30.94,18.05,18.72,23.45,88.61,24.92,117.3-19.56,18.44-68.2,20.76-68.28,12.63l11.35,286.08c-81.51,12.91-164.56,12.91-246.07,0l11.77-286.08c-.08,8.13-48.73,5.8-68.28-12.63,1.47-28.68,6.87-98.58,24.92-117.3,8.76-9.09,24.99-20.42,41.68-30.94l53.58-31.43L131.83.01S180.07,21.24,228.03.01l10.74,11.56,54.38,31.8Z"></path><g class="cls-2"><g><rect class="cls-9" x="162.05" y=".38" width="35.49" height="510.83"></rect><rect class="cls-9" x="91.07" y=".38" width="35.49" height="510.83"></rect><rect class="cls-9" x="233.03" y=".38" width="35.49" height="510.83"></rect></g></g><g id="Shading" class="cls-13"><path class="cls-10" d="m67.92,217.67c3.28-42.1-8-75.36-8-75.36,0,0-3.92-13.84-6.31-31.41l29.42,68.13c2.77,6.4,4.43,17.31,3.71,24.25l-29.98,287.04,11.17-272.66Z"></path><path class="cls-10" d="m292.08,217.67c-3.28-42.1,8-75.36,8-75.36,0,0,3.92-13.84,6.31-31.41l-29.42,68.13c-2.77,6.4-4.43,17.31-3.71,24.25l29.57,287.04-10.75-272.66Z"></path><path class="cls-11" d="m50.67,53.99c5.17-3.55,10.65-7.13,16.17-10.62-10.67,7.5-14.45,22.78-14.95,39.13,0,0-8.61-23.09-1.22-28.52Z"></path><path class="cls-11" d="m309.86,54.35c-5.17-3.55-11.18-7.49-16.71-10.98,10.67,7.5,14.61,22.78,15.12,39.13,0,0,8.98-22.73,1.59-28.16Z"></path><path class="cls-11" d="m157.69,35.61C145.83,23.77,134.81,14.34,131.83.01c0,0,7.46,3.28,19.43,5.98,0,0-.96,9.27,6.43,29.62Z"></path></g><g id="Collar"><path class="cls-3" d="m185.35,42.08s11.06-8.36,24.58-20.96c-8.35,1.22-17.89,1.97-28.72,1.97-11.78,0-22.13-.9-31.14-2.3,13.73,12.78,25.04,21.29,25.04,21.29l4.99,1.77,5.24-1.77Z"></path><g id="Collar-2" data-name="Collar"><path class="cls-9" d="m216.61,6.07c-2.61,17.48-36.61,31.56-36.61,31.56,0,0-33.14-14.64-35.75-32.12l-8.5,2.56c36.41,38.76,44.25,46.25,44.25,46.25,0,0,29.14-29.08,44.25-46.25l-7.64-1.99Z"></path></g><path class="cls-6" d="m228.12-.01C180.17,21.22,131.92-.01,131.92-.01l-11.4,11.93s17.44,12.57,60.3,12.59c41.56-.02,57.7-11.83,58.66-12.59L228.12-.01Z"></path><path class="cls-8" d="m165.18,28.62S147.77,18.69,131.92-.01l-11.4,11.93s5.34,18.12,28.79,31.43l15.87-14.73Z"></path><path class="cls-8" d="m194.82,28.62S212.23,18.69,228.08-.01l11.4,11.93s-5.34,18.12-28.79,31.43l-15.87-14.73Z"></path></g><g><path class="cls-4" d="m209.7,106.89c0-12.16,9.9-22.06,22.06-22.06,12.15,0,21.99,9.9,22,22.1.01,12.11-9.91,22.02-22.05,22.01-12.13-.01-22.01-9.92-22.01-22.05Zm38.16.41c.29-8.63-6.76-16.2-15.28-16.54-9.08-.37-16.49,6.55-16.94,15.27-.46,9.05,6.47,16.55,15.22,16.95,9.22.42,16.68-6.53,16.99-15.67Z"></path><path class="cls-7" d="m247.86,107.3c-.31,9.14-7.77,16.09-16.99,15.67-8.76-.4-15.69-7.9-15.22-16.95.45-8.72,7.86-15.64,16.94-15.27,8.52.35,15.57,7.92,15.28,16.54Zm-25.27,6.86s.05.07.08.1c-.63.81-.83,1.79-1.18,2.78.71-.23,1.37-.39,1.98-.67.36-.17.51.29.8.14.08.19-.05.33-.09.5-.1.55-.3,1.08-.25,1.69.5-.12.89-.42,1.33-.61.1-.04.26-.19.3-.09.23.55.42.05.55-.03.46-.27.81-.72,1.39-.98-.26.82-.83,1.35-1.11,2.05-.02.02-.05.03-.07.05.02,0,.03.01.05.02,0-.03.01-.05.02-.08.41.11.83,0,1.19-.13.78-.27,1.64-.03,2.38-.47.3-.18.59-.42.99-.44-.07.31-.31.45-.49.6-.43.36-.52.73-.19,1.21.2.29.35.6.53.91.44.77.45.77,1.02.12.85-.95,1.62-1.96,2.4-3.13.05.67.1,1.19.13,1.72.02.26.06.51.25.69.42.41.78.86,1.07,1.41.24-.47.5-.88.73-1.29.24-.41.61-.73.67-1.3.09-.89.09-1.77.13-2.66.32.68.61,1.37.88,2.06.31.79,1.27.76,1.67,1.44.08-.97.54-1.83.32-2.76-.11-.46.07-.83.29-1.19.04-.07.09-.14.13-.21.48-1,1.33-1.47,2.38-1.68.27-.05.53-.12.79-.2.8-.28,1.15-.81.93-1.62-.14-.51-.23-.92.23-1.29.07-.06.1-.24.06-.33-.26-.6.11-1.24-.14-1.85-.11-.27.05-.37.33-.36.56.02.71-.3.61-.79-.26-1.22-.77-2.32-1.67-3.2-.13-.13-.27-.15-.06-.38.44-.46.17-1.44-.44-1.79-.08.09.04.13.06.19.12.38.49.78.2,1.14-.28.35-.76.16-1.15.09-.06-.01-.11-.02-.17-.03-.29-.03-.58-.06-.9.07.21.27.66.03.66.33,0,.33-.37.46-.65.6-.23.11-.51.12-.66.38.5.32,1.49-.38,1.48.8.39-.03.62-.26.77-.62.29-.66.67-.71,1.1-.1.48.69.86,1.43,1.12,2.23.19.62-.02.88-.65.71-.4-.11-.72-.09-1.02.18-.16.14-.36.3-.57.16-.26-.17-.12-.41-.04-.63.02-.04,0-.1,0-.25-.59.31-.99.76-1.44,1.14-.73.6-.73.64-.58,1.56.14-.89.55-1.42,1.55-1.96.21.45.53.56,1.03.34.61-.27.81-.15.86.52.04.57-.23.88-.87.92-.43.02-.87-.04-1.37-.06.18.38.32.58.74.39.33-.15.71-.23,1.08-.13.52.13.59.37.24.77-.2.22-.48.37-.63.68.31.02.51.12.59.41.23.85-.17,1.47-1.04,1.5-.89.03-1.79.01-2.69-.05-.85-.06-1.43-.55-1.76-1.33-.19-.45-.34-.93-.61-1.32-.34-.48-.36-.82.1-1.21.15-.13.27-.35.32-.55.13-.52.34-.89,1.12-.67-.32-.35-.55-.56-.71-.81-.22-.33-.53-.68-.3-1.11.3-.55.5-1.13.67-1.73.07-.25.2-.36.48-.39.44-.06.88-.19,1.32-.55-.37,0-.63,0-.9,0-.44,0-.52-.16-.32-.57.4-.84,1.18-1.28,1.87-1.8.75-.56.76-.54,1.31.2.03.05.07.04.11-.09-.19-.22-.05-.47.1-.72.11-.18.23-.43.05-.6-.61-.57-1.17-1.19-1.85-1.69-.51-.38-1.19-.65-.99-1.5.03-.13-.1-.15-.14-.22-.18-.28-.14-.76-.66-.73,0,0-.03-.11-.04-.16-.02-.13-.08-.15-.2-.1-.53.23-.96-.06-1.36-.31-2.13-1.29-4.21-2.67-6.87-2.58-.97.03-1.95-.02-2.92-.02-1.37,0-2.58.64-3.88.96.25.13.5.2.67.41-1.15.26-2.19.78-3.3,1.27.54.23,1.08.17,1.68.49-1.52.11-2.43.99-3.48,1.89.9.06,1.64.11,2.56.18-.33.11-.52.17-.74.25.09.03.16.04.2.07.15.11,0,.1-.05.11-.21.05-.41.11-.63.14-1.28.18-1.84,1.21-2.65,2.21h2.32c.02.28-.28.32-.24.54.14.01.27.03.4.04-1.53.29-2.42,1.4-3.35,2.51.57.33,1.21.18,1.79.41-.62.89-1.56,1.5-1.97,2.51.6.27,1.25.1,1.85.27-.22.47-.44.92-.82,1.29-.29.28-.61.58-.74,1,.64.11,1.24.22,1.86.33-1.12,1.25-1.32,1.59-1.45,2.52.51,0,1.01,0,1.51,0,.11,0,.35-.09.28.14-.1.36.11.18.23.16.13-.03.21-.22.39-.13-.03.23-.19.35-.31.5-.56.68-.56,1.51-.61,2.32-.01.23.08.44.33.2.7-.63,1.57-.92,2.4-1.29Z"></path><path class="cls-4" d="m226.39,119.03c.28-.69.86-1.23,1.11-2.05-.58.26-.92.71-1.39.98-.14.08-.33.59-.55.03-.04-.1-.2.05-.3.09-.44.19-.83.49-1.33.61-.05-.61.15-1.14.25-1.69.03-.17.17-.31.09-.5-.29.15-.44-.31-.8-.14-.61.28-1.27.44-1.98.67.35-.98.55-1.97,1.18-2.78.02-.03.04-.07.07-.1-.05,0-.1,0-.14,0-.83.37-1.7.66-2.4,1.29-.26.23-.35.02-.33-.2.05-.81.05-1.64.61-2.32.12-.14.29-.27.31-.5-.18-.1-.26.1-.39.13-.12.02-.33.2-.23-.16.06-.23-.18-.14-.28-.14-.5-.01-1.01,0-1.51,0,.14-.93.33-1.27,1.45-2.52-.62-.11-1.22-.22-1.86-.33.14-.43.45-.72.74-1,.38-.37.6-.82.82-1.29-.6-.17-1.25,0-1.85-.27.41-1.01,1.35-1.62,1.97-2.51-.58-.23-1.22-.09-1.79-.41.93-1.11,1.82-2.22,3.35-2.51-.13-.01-.26-.03-.4-.04-.04-.22.27-.26.24-.54h-2.32c.81-1,1.37-2.02,2.65-2.21.21-.03.42-.09.63-.14.05-.01.2,0,.05-.11-.04-.03-.1-.04-.2-.07.22-.07.41-.14.74-.25-.91-.06-1.66-.12-2.56-.18,1.05-.89,1.96-1.78,3.48-1.89-.6-.32-1.15-.26-1.68-.49,1.11-.49,2.16-1.01,3.3-1.27-.17-.2-.42-.28-.67-.41,1.3-.32,2.51-.96,3.88-.96.97,0,1.95.06,2.92.02,2.65-.09,4.74,1.29,6.87,2.58.41.25.83.54,1.36.31.12-.05.18-.03.2.1,0,.06.03.16.04.16.52-.03.48.45.66.73.05.07.17.09.14.22-.19.85.48,1.12.99,1.5.67.5,1.24,1.12,1.85,1.69.18.17.06.41-.05.6-.15.26-.3.5-.1.72-.04.13-.07.14-.11.09-.55-.74-.56-.76-1.31-.2-.69.52-1.47.95-1.87,1.8-.2.41-.12.57.32.57.26,0,.53,0,.9,0-.44.36-.88.5-1.32.55-.28.04-.41.14-.48.39-.17.6-.38,1.18-.67,1.73-.23.42.08.78.3,1.11.16.25.4.45.71.81-.78-.22-.99.15-1.12.67-.05.2-.17.42-.32.55-.46.39-.44.73-.1,1.21.28.39.42.87.61,1.32.33.78.91,1.27,1.76,1.33.89.06,1.79.07,2.69.05.87-.02,1.27-.65,1.04-1.5-.08-.3-.28-.39-.59-.41.15-.31.43-.46.63-.68.36-.39.28-.64-.24-.77-.38-.09-.75-.01-1.08.13-.42.19-.56-.01-.74-.39.5.03.94.09,1.37.06.65-.04.92-.35.87-.92-.05-.67-.24-.79-.86-.52-.49.22-.82.11-1.03-.34-.99.54-1.41,1.07-1.55,1.96-.16-.91-.15-.96.58-1.56.45-.37.86-.82,1.44-1.14,0,.14.02.2,0,.25-.09.22-.22.46.04.63.22.14.41-.02.57-.16.31-.28.63-.29,1.02-.18.63.17.84-.08.65-.71-.25-.8-.64-1.55-1.12-2.23-.42-.61-.81-.56-1.1.1-.15.35-.38.58-.77.62.01-1.18-.98-.48-1.48-.8.15-.26.44-.27.66-.38.28-.13.65-.27.65-.6,0-.3-.45-.07-.66-.33.31-.13.61-.1.9-.07.06,0,.12.02.17.03.4.07.88.26,1.15-.09.28-.36-.09-.76-.2-1.14-.02-.06-.13-.1-.06-.19.61.35.87,1.33.44,1.79-.21.22-.07.25.06.38.9.89,1.41,1.98,1.67,3.2.11.49-.05.82-.61.79-.28-.01-.44.09-.33.36.25.61-.12,1.25.14,1.85.04.09,0,.27-.06.33-.45.37-.36.78-.23,1.29.22.81-.13,1.34-.93,1.62-.26.09-.52.15-.79.2-1.05.21-1.9.68-2.38,1.68-.03-.03-.07-.06-.1-.09.16-.68.6-1.18,1.14-1.68-.85-.1-1.62-.19-2.27-.65-.03,0-.06-.02-.09-.03,0,.02.01.03.02.05.03-.01.05-.03.08-.04.01.87.24,1.7.52,2.53.18.53.3.26.48.04l.1.08c-.23.37-.41.73-.29,1.19.23.93-.24,1.79-.32,2.76-.4-.68-1.36-.65-1.67-1.44-.27-.7-.56-1.38-.88-2.06-.04.9-.04,1.78-.13,2.66-.06.57-.43.89-.67,1.3-.24.41-.49.82-.73,1.29-.29-.55-.65-1-1.07-1.41-.19-.19-.24-.44-.25-.69-.03-.52-.08-1.04-.13-1.72-.78,1.18-1.56,2.18-2.4,3.13-.58.65-.59.65-1.02-.12-.17-.3-.33-.62-.53-.91-.32-.48-.24-.85.19-1.21.19-.15.42-.29.49-.6-.41.02-.7.26-.99.44-.74.44-1.61.2-2.38.47-.37.13-.78.24-1.19.13h0Zm5.71.81c.23,0,.33-.19.44-.34.35-.44.7-.88,1.02-1.34.91-1.28.84-1.32-.65-1.57-.03,0-.06.03-.11.05.17.54.48,1.03.57,1.62-.62.02-1.14-.27-1.74-.29.11.67.53,1.22.48,1.88-.58,0-1.04-.46-1.7-.46.32.53.6,1,.92,1.52.27-.42.72-.61.77-1.08Zm-6.2-19.74c.06.08.07.1.08.1.17,0,.35,0,.52,0,2.7.04,5.41-.16,8.04.71.44.14.71-.14.6-.58-.07-.27-.12-.49.25-.53.34-.04.25-.25.21-.47-.06-.28-.3-.32-.52-.4-1.31-.48-2.68-.62-4.05-.8-1.2-.16-2.41-.26-3.62-.38.6.46,1.23.83,1.78,1.32.09.08.33.19.12.35-.37.28-.66.68-1.24.64-.71-.05-1.42-.08-2.17.02Zm-.8,3.06c.78.31,1.44.56,2.1.82-.26.48-.58.79-1.13.75.34.11.65.04.96,0,2.14-.25,4.28-.61,6.45-.32.43.06.67-.23.55-.64-.03-.12-.06-.18.03-.31.28-.39.14-.71-.32-.78-.39-.05-.77-.11-1.16-.13-1.74-.11-3.46.14-5.18.31-.72.07-1.46.07-2.3.29Zm.66-2.65c.73.41,1.5.73,2.09,1.25-.24.28-.46.54-.69.82.06.02.11.05.16.05,2.24-.22,4.47-.57,6.73-.16.27.05.65.03.45-.46-.06-.15-.05-.24.11-.33.37-.2.13-.4-.06-.5-.26-.13-.55-.18-.83-.25-2.62-.65-5.29-.44-7.95-.43Zm3.83-2.77c1.98.29,3.98.37,5.89,1.04.41.14.64-.12.52-.5-.08-.25-.05-.37.23-.36.13,0,.27-.02.37-.04.08-.52-.21-.74-.63-.91-1.34-.56-2.76-.79-4.18-1.03-.92-.16-1.84-.37-2.92-.4.39.28.65.46.91.66q1.19.92-.19,1.55Zm-4.77,9.72c.83.16,1.65.31,2.53.48-.23.35-.41.62-.59.9.26.13.48.03.7-.02,1.61-.38,3.2-.86,4.87-.87.49,0,.8-.05.79-.64,0-.28.15-.56.28-.97-2.93-.07-5.73.64-8.57,1.12Zm7.91-14.32c.28.5.72.74.76,1.18.03.27.15.3.33.36.77.25,1.55.49,2.31.78.33.13.71.25.92.69-1.35-.74-5.35-2-6.06-1.91.45.39.89.77,1.19,1.29-.14.08-.3-.06-.4.11.75.14,1.48.28,2.21.43.92.19,1.8.48,2.65.86.31.14.7.2.93-.03.17-.16-.07-.44-.29-.62.23,0,.41.02.58,0,.18-.02.38.08.56-.13-1.57-1.57-3.62-2.18-5.71-3.01Zm10.27,11.09c-.52-.4-.66.14-.99.4.46.07.6-.49.99-.4Z"></path><path class="cls-4" d="m240.49,115.6c-.04.07-.09.14-.13.21-.03-.03-.07-.06-.1-.08.04-.07.09-.15.13-.22.03.03.07.06.1.09Z"></path><path class="cls-4" d="m226.38,119.03s-.01.05-.02.08c-.02,0-.03-.01-.05-.02.02-.02.05-.03.07-.05,0,0,0,0,0,0Z"></path><path class="cls-7" d="m227.97,112.52c.17-.1.28-.25.27-.42-.01-.18-.23-.17-.37-.23-.53-.2-1.09-.28-1.81-.36,1.55-.69,3.04-1.12,4.63-1.71-.38-.09-.57.05-.76.11-1.5.47-3.03.86-4.44,1.57-.19.1-.39.12-.49.46-.1.37-.42.08-.64-.14.81-.36,1.61-.73,2.41-1.07.24-.1.43-.22.41-.49-.02-.28-.29-.21-.46-.26-.45-.12-.9-.22-1.37-.42,1.06-.26,2.13-.5,3.18-.77,1.28-.33,2.58-.57,3.91-.65.33-.02.64-.06.72.43.08.51-.35.35-.54.5-.04.03-.09.05-.14.08.25.28,1.14-.58.91.52h.01c-.24-.14-.34.1-.46.2-1.76,1.38-3.8,2.26-5.76,3.29"></path><path class="cls-7" d="m232.51,113.51c.22-.2.51-.33.58-.68-1.04.75-2.08,1.5-3.28,2.05-.06-.35.04-.65.14-.92.16-.48-.02-.63-.45-.68-.47-.06-.94-.16-1.51-.25.33-.16.58-.3.84-.41,1.46-.66,2.8-1.5,4.09-2.45.18-.13.39-.26.49-.48,0,0-.01.01-.01.01.19-.13.31-.02.44.11.14.15.27.34.5.36h0c.21.2.24.4.11.69-.24.56-.65,1.02-1.02,1.62.48-.11.56-.52.89-.73-.09,1.76-.97,3.11-1.97,4.43.02-.41.03-.83.06-1.24.02-.29-.09-.37-.37-.33-.4.07-.79.17-1.2.09"></path><path class="cls-7" d="m234.34,110.17c.14-.14,0-.19-.08-.26-1.13-1.16-1.28-2.16-.54-3.56.03-.05.02-.11.04-.17h0c.47-.38.92-.8,1.55-.94,1.15-.26,2.3.2,2.91,1.19.62,1.01.51,2.29-.27,3.18-.77.87-2,1.13-3.08.68-.16-.07-.3-.33-.53-.13,0,0,0,0,0,0Z"></path><path class="cls-7" d="m225.9,100.09c.75-.1,1.46-.07,2.17-.02.59.04.87-.36,1.24-.64.21-.16-.02-.26-.12-.35-.55-.49-1.18-.86-1.78-1.32,1.21.13,2.42.23,3.62.38,1.37.18,2.74.31,4.05.8.22.08.46.12.52.4.05.21.14.43-.21.47-.37.04-.32.26-.25.53.11.44-.17.72-.6.58-2.63-.87-5.34-.67-8.04-.71-.17,0-.35,0-.52,0-.01,0-.02-.03-.08-.1Z"></path><path class="cls-7" d="m225.1,103.16c.85-.22,1.58-.22,2.3-.29,1.72-.17,3.44-.41,5.18-.31.39.02.77.08,1.16.13.46.06.6.38.32.78-.09.12-.06.19-.03.31.12.4-.12.69-.55.64-2.17-.29-4.31.07-6.45.32-.31.04-.63.11-.96,0,.55.04.86-.27,1.13-.75-.66-.26-1.31-.51-2.1-.82Z"></path><path class="cls-7" d="m225.77,100.51c2.67-.02,5.33-.22,7.95.43.28.07.58.12.83.25.19.1.43.3.06.5-.16.08-.17.17-.11.33.2.48-.18.5-.45.46-2.26-.41-4.49-.06-6.73.16-.05,0-.1-.03-.16-.05.23-.28.46-.54.69-.82-.59-.52-1.35-.84-2.09-1.25Z"></path><path class="cls-7" d="m229.6,97.74q1.38-.62.19-1.55c-.26-.2-.52-.38-.91-.66,1.08.03,2,.24,2.92.4,1.42.24,2.84.47,4.18,1.03.42.18.7.39.63.91-.11.01-.24.04-.37.04-.29,0-.32.11-.23.36.13.39-.11.65-.52.5-1.91-.67-3.91-.75-5.89-1.04Z"></path><path class="cls-7" d="m233.76,106.18c-2.24-.31-4.41.31-6.78.5.5-.26.4-.42.11-.58-.62-.33-1.27-.57-1.94-.87,1.01-.13,2.02-.28,3.03-.39,1.66-.18,3.32-.45,5-.19.81.12,1.06.61.6,1.27-.05.08-.2.16-.02.27,0,0,0,0,0,0Z"></path><path class="cls-7" d="m224.83,107.45c2.84-.48,5.63-1.2,8.57-1.12-.13.42-.28.7-.28.97,0,.59-.3.64-.79.64-1.67,0-3.26.49-4.87.87-.22.05-.44.15-.7.02.18-.28.36-.55.59-.9-.88-.17-1.71-.32-2.53-.48Z"></path><path class="cls-7" d="m232.74,93.13c2.09.83,4.14,1.44,5.71,3.01-.18.21-.39.11-.56.13-.17.02-.35,0-.58,0,.22.18.45.46.29.62-.23.22-.62.16-.93.03-.85-.38-1.73-.68-2.65-.86-.73-.15-1.47-.28-2.21-.43.1-.17.26-.03.4-.11-.3-.52-.75-.91-1.19-1.29.71-.08,4.71,1.17,6.06,1.91-.21-.44-.59-.56-.92-.69-.76-.29-1.54-.53-2.31-.78-.19-.06-.31-.08-.33-.36-.04-.43-.48-.67-.76-1.18Z"></path><path class="cls-7" d="m232.12,119.85c.05-.66-.37-1.21-.48-1.88.6.01,1.12.31,1.74.29-.09-.59-.4-1.08-.57-1.62.05-.02.08-.06.11-.05,1.49.25,1.56.29.65,1.57-.33.46-.68.9-1.02,1.34-.12.15-.21.33-.44.34h.01Z"></path><path class="cls-7" d="m240.39,115.5c-.04.07-.09.15-.13.22-.18.22-.3.49-.48-.04-.28-.83-.5-1.65-.52-2.53v.02c.65.46,1.42.55,2.27.65-.55.5-.98,1-1.14,1.68Z"></path><path class="cls-7" d="m232.1,119.83c-.06.47-.5.65-.77,1.08-.31-.52-.6-.99-.92-1.52.67,0,1.12.47,1.7.46,0,0-.01-.01-.01-.01Z"></path><path class="cls-7" d="m243,104.23c-.38-.09-.53.47-.99.4.33-.26.46-.8.99-.4Z"></path><path class="cls-7" d="m222.59,114.16s.1,0,.14,0c-.02.03-.04.07-.07.1-.03-.03-.05-.07-.08-.1Z"></path><path class="cls-7" d="m239.26,113.16s-.05.03-.08.04c0-.02-.01-.03-.02-.05.03,0,.06.02.09.03,0,0,0-.02,0-.02Z"></path></g></g></g></g></svg> 