<?xml version="1.0" encoding="UTF-8"?> <svg xmlns="http://www.w3.org/2000/svg" xmlns:xlink="http://www.w3.org/1999/xlink" viewBox="0 0 360 500"><defs><style> .cls-1 { fill: none; } .cls-2 { clip-path: url(#clippath); } .cls-3 { fill: #f2f2f2; } .cls-4 { fill: #f9f9f9; } .cls-5 { fill: #004e9b; } .cls-6 { fill: #0036a3; } .cls-7 { fill: #0550c9; } .cls-8 { fill: #fff; } .cls-9, .cls-10 { fill: #241f20; } .cls-11 { fill: #1b7ebe; } .cls-12 { fill: #5a99ff; } .cls-13 { isolation: isolate; } .cls-14 { mix-blend-mode: multiply; opacity: .2; } .cls-10 { opacity: .5; } </style><clipPath id="clippath"><path id="Body" class="cls-1" d="m238.77,11.56l54.38,31.8c29.13,20.49,6.91,98.94,6.91,98.94,0,0-8.95,26.4-8.59,61.93l11.35,286.08c-81.51,12.91-164.56,12.91-246.07,0l11.77-286.08c.37-35.53-8.59-61.93-8.59-61.93,0,0-22.22-78.45,6.91-98.94l54.21-31.8h117.71Z"></path></clipPath></defs><g class="cls-13"><g id="Laag_1" data-name="Laag 1"><g id="Genk"><path id="Jersey_Color" data-name="Jersey Color" class="cls-8" d="m293.15,43.36c16.69,10.52,32.92,21.85,41.69,30.94,18.05,18.72,23.45,88.61,24.92,117.3-19.56,18.44-68.2,20.76-68.28,12.63l11.35,286.08c-81.51,12.91-164.56,12.91-246.07,0l11.77-286.08c-.08,8.13-48.73,5.8-68.28-12.63,1.47-28.68,6.87-98.58,24.92-117.3,8.76-9.09,24.99-20.42,41.68-30.94l53.58-31.43L131.83,0S180.07,21.23,228.02,0l10.74,11.56,54.38,31.8Z"></path><g class="cls-2"><rect class="cls-7" x=".24" y="0" width="358.76" height="500"></rect><rect class="cls-12" x="217.23" y="-.8" width="59.09" height="502.91"></rect><rect class="cls-12" x="206.46" y="-.8" width="3.91" height="502.91"></rect><rect class="cls-12" x="282.09" y="-.8" width="3.91" height="502.91"></rect><rect class="cls-12" x="83.4" y="-.8" width="59.09" height="502.91"></rect><rect class="cls-12" x="72.63" y="-.8" width="3.91" height="502.91"></rect><rect class="cls-12" x="148.27" y="-.8" width="3.91" height="502.91"></rect></g><path id="Sleeve" class="cls-7" d="m334.84,74.3c-8.76-9.09-25-20.42-41.69-30.94l-54.38-31.8h-117.71l-54.21,31.8c-16.69,10.52-32.92,21.85-41.68,30.94C7.11,93.02,1.71,162.91.24,191.6c19.55,18.44,68.2,20.76,68.28,12.63.37-35.53-8.59-61.93-8.59-61.93,0-78.62,94.77-90.07,94.77-90.07h50.6s94.76,11.45,94.76,90.07c0,0-8.95,26.4-8.59,61.93.09,8.13,48.73,5.8,68.28-12.63-1.48-28.68-6.87-98.58-24.92-117.3Z"></path><path class="cls-4" d="m.24,191.6c.24-4.71.59-10.52,1.08-17.04,19.01,16.51,61.67,19.33,66.71,12.96.36,5.27.55,10.87.49,16.72-.08,8.13-48.73,5.8-68.28-12.63Z"></path><path class="cls-4" d="m359.76,191.6c-.24-4.71-.59-10.52-1.08-17.04-19.01,16.51-61.67,19.33-66.71,12.96-.36,5.27-.55,10.87-.49,16.72.08,8.13,48.73,5.8,68.28-12.63Z"></path><g id="Shading" class="cls-14"><path class="cls-9" d="m67.92,217.65c3.28-42.1-8-75.36-8-75.36,0,0-3.92-13.84-6.31-31.41l29.42,68.13c2.77,6.4,4.43,17.31,3.71,24.25l-29.98,287.04,11.17-272.66Z"></path><path class="cls-9" d="m292.08,217.65c-3.28-42.1,8-75.36,8-75.36,0,0,3.92-13.84,6.31-31.41l-29.42,68.13c-2.77,6.4-4.43,17.31-3.71,24.25l29.57,287.04-10.75-272.66Z"></path><path class="cls-10" d="m50.67,53.98c5.17-3.55,10.65-7.13,16.17-10.62-10.67,7.5-14.45,22.78-14.95,39.13,0,0-8.61-23.09-1.22-28.52Z"></path><path class="cls-10" d="m309.86,54.34c-5.17-3.55-11.18-7.49-16.71-10.98,10.67,7.5,14.61,22.78,15.12,39.13,0,0,8.98-22.73,1.59-28.16Z"></path><path class="cls-10" d="m151.17,40.84c-13.17-15.42-20.78-28.41-18.35-40.43,0,0,7.45,3.84,19.35,5.77,0,0-4.64,13.32-1.01,34.66Z"></path></g><g id="Collar"><g><path class="cls-3" d="m228.04,0C180.09,21.23,131.84,0,131.84,0l-11.4,11.93s17.44,12.57,60.3,12.58c41.56-.02,57.88-11.83,58.84-12.58L228.04,0Z"></path><path class="cls-6" d="m179.91,44.46c-17.16,0-32.32-10.49-40.98-24.93,9.66,2.65,23.39,4.98,41.81,4.98,17.62,0,30.67-2.14,39.93-4.64-8.69,14.27-23.74,24.59-40.77,24.59Z"></path></g><path class="cls-8" d="m228.04,0c-3.51,23.5-23.86,44.46-48.13,44.46S135.36,23.5,131.84,0l-11.43,11.93c8.29,30.12,33.85,45.24,59.49,45.39,25.64-.14,51.38-15.27,59.68-45.39L228.04,0Z"></path></g><g><path class="cls-5" d="m265.99,107.45c-.04-.18-.04-.32-.07-.51-.08-.53-.33-1.01-.73-1.37-.47-.41-.99-.76-1.54-1.04-1.5-.75-3.06-1.36-4.67-1.82-1.65-.54-3.34-1.01-5.03-1.4-.94-.21-1.87-.43-2.84-.61l-1.87-.32c-.43-.07-.83-.11-1.26-.14h-1.37c-.21.04-.39.04-.61.07-.64.05-1.28.13-1.9.25-1.01.14-2.01.36-2.98.58-1.04.25-2.08.5-3.13.79-1.76.46-3.5,1.02-5.21,1.65-1.16.44-2.27,1.01-3.31,1.69-.74.48-1.19,1.3-1.19,2.19v22.03c0,.56.1,1.12.29,1.65.25.78.58,1.54.97,2.27.31.59.65,1.15,1.04,1.69.58.83,1.19,1.65,1.82,2.44.54.68,1.15,1.29,1.72,1.94.53.58,1.09,1.12,1.69,1.62.47.43.94.83,1.4,1.22.92.76,1.88,1.47,2.88,2.12.9.61,1.8,1.15,2.77,1.69.37.21.76.4,1.15.58.26.15.54.28.83.39.64.28,1.32.49,2.01.61.2,0,.41,0,.61-.04.4-.07.79-.18,1.19-.29.84-.29,1.65-.64,2.44-1.04,1.19-.65,2.37-1.33,3.49-2.08,1.52-1.05,2.96-2.2,4.32-3.45.21-.18.39-.39.58-.58l.04-.04.03-.04.04-.03.04-.04.04-.04.04-.04.04-.04.04-.04.32-.32.03-.04.04-.03.04-.04c.36-.4.75-.79,1.11-1.19.54-.61,1.09-1.22,1.58-1.87.9-1.14,1.68-2.37,2.34-3.67.19-.37.35-.75.47-1.15.22-.6.35-1.23.4-1.87-.07-.07-.07-22.25-.11-22.32h.03Z"></path><path class="cls-11" d="m257.33,113.42v7.44h-2.88v-8.3l2.88.86Zm0,12.44v7.33c-.26.36-.55.69-.86,1.01-.65.68-1.3,1.37-2.01,2.01v-10.35h2.88Zm-7.73-4.81c.65,1.29,1.3,2.59,1.94,3.85.03.03.04.07.04.11v13.55c-.9.65-1.83,1.26-2.8,1.82h-.03v-29.13l2.87.58v9.02h-1.87q-.21.03-.15.21Zm-9.38-8.49v24.01c-.43-.39-.86-.79-1.29-1.22-.53-.53-1.04-1.08-1.51-1.65l-.07-.04v-20.24l2.87-.86Zm5.72-1.29v29.37l-.07-.04c-.79-.4-1.55-.86-2.27-1.37-.17-.11-.34-.23-.5-.36v-27.02l2.85-.58Z"></path><path class="cls-8" d="m259.81,115.82l1.18.36,3.09.9.61.18v-9.73c0-.45-.22-.87-.58-1.15-.57-.4-1.18-.75-1.82-1.05-1.87-.8-3.79-1.46-5.75-1.98-1.94-.54-3.88-1.01-5.83-1.4-.7-.15-1.41-.25-2.12-.32-.47-.07-.94-.07-1.4-.11-.31-.01-.63.01-.93.07-1.15.11-2.3.32-3.45.54-3.09.62-6.13,1.46-9.1,2.52-1.18.38-2.31.93-3.34,1.62-.47.28-.75.79-.73,1.33v21.78c0,.33.03.65.11.97.28.93.66,1.82,1.15,2.66.29.54.65,1.05.97,1.58l.03.07v.04c.18.25.36.47.54.73,2.62,3.45,5.85,6.38,9.53,8.66,1.24.8,2.57,1.46,3.95,1.98.39.17.8.27,1.22.29.37-.03.74-.12,1.09-.25,1.14-.4,2.23-.91,3.28-1.51,3.93-2.25,7.38-5.24,10.17-8.81.94-1.16,1.75-2.43,2.41-3.77.43-.82.65-1.73.65-2.66v-8.25q0-.21-.21-.21h-14.81q-.18,0-.11.18c.65,1.3,1.3,2.59,1.94,3.85.04.03.04.07.07.14.11.21.21.4.32.61.04.16.2.26.36.22,0,0,0,0,0,0h7.31c.07,0,.11,0,.11.11v3.45c-.03.24-.12.48-.25.68-.52,1.03-1.16,1.99-1.9,2.87-.08.08-.15.16-.22.25-.26.36-.55.7-.86,1.01-.64.68-1.29,1.37-2.01,2.01-.58.54-1.19,1.09-1.8,1.58-.36.29-.68.54-1.04.79-.9.67-1.85,1.28-2.84,1.82h-.04c-.5.29-1.58.83-1.58.83-.43-.18-.85-.38-1.26-.61-.79-.4-1.55-.85-2.27-1.37-.21-.14-.4-.29-.61-.43-.6-.4-1.17-.83-1.73-1.29-.32-.29-.68-.54-1.01-.86-.48-.4-.94-.84-1.37-1.3-.53-.53-1.04-1.08-1.51-1.65l-.54-.64c-.52-.64-1-1.31-1.43-2.01-.32-.49-.6-1-.83-1.54-.04-.1-.06-.21-.07-.32v-19.45c0-.11.04-.14.11-.14.43-.15.83-.32,1.26-.47,2.76-.91,5.57-1.67,8.41-2.27.94-.2,1.89-.33,2.84-.39.56,0,1.11.07,1.65.18,1.81.3,3.6.71,5.36,1.22,1.82.46,3.6,1.02,5.35,1.69.04.04.11.04.15.07t.07,0v6.19c-.02-.07.01-.07.05-.07Z"></path></g></g></g></g></svg> 