<?xml version="1.0" encoding="UTF-8"?> <svg xmlns="http://www.w3.org/2000/svg" xmlns:xlink="http://www.w3.org/1999/xlink" viewBox="0 0 360 505.78"><defs><style> .cls-1 { clip-path: url(#clippath); } .cls-2 { fill: none; } .cls-2, .cls-3, .cls-4, .cls-5, .cls-6, .cls-7, .cls-8, .cls-9, .cls-10, .cls-11 { stroke-width: 0px; } .cls-3 { opacity: .5; } .cls-3, .cls-6 { fill: #241f20; } .cls-12 { isolation: isolate; } .cls-13 { mix-blend-mode: multiply; opacity: .2; } .cls-5 { fill: #f9f9f9; } .cls-7 { fill: #d00; } .cls-8 { fill: #fff; } .cls-9 { fill: #eaeaea; } .cls-10 { fill: #fcfcfc; } .cls-11 { fill: #00ce6b; } </style><clipPath id="clippath"><path id="Body" class="cls-2" d="m238.77,17.41l54.38,31.8c29.13,20.49,6.91,98.94,6.91,98.94,0,0-8.95,26.4-8.59,61.93l11.35,286.08c-81.51,12.91-164.56,12.91-246.07,0l11.77-286.08c.37-35.53-8.59-61.93-8.59-61.93,0,0-22.22-78.45,6.91-98.94l54.21-31.8h117.71Z"></path></clipPath></defs><g class="cls-12"><g id="Laag_1" data-name="Laag 1"><g id="Newcastle"><path id="Jersey_Color" data-name="Jersey Color" class="cls-10" d="m293.15,49.21c16.69,10.52,32.92,21.85,41.69,30.94,18.05,18.72,23.45,88.61,24.92,117.3-19.56,18.44-68.2,20.76-68.28,12.63l11.35,286.08c-81.51,12.91-164.56,12.91-246.07,0l11.77-286.08c-.08,8.13-48.73,5.8-68.28-12.63,1.47-28.68,6.87-98.58,24.92-117.3,8.76-9.09,24.99-20.42,41.68-30.94l53.58-31.43,11.4-11.93s48.24,21.23,96.19,0l10.74,11.56,54.38,31.8Z"></path><g class="cls-1"><rect class="cls-7" x="143.53" y="-194.16" width="20.08" height="302.72"></rect><rect class="cls-4" x="169.96" y="-194.16" width="20.08" height="302.72"></rect><rect class="cls-11" x="196.37" y="-194.16" width="20.08" height="302.72"></rect><rect class="cls-7" x="143.53" y="249.65" width="20.08" height="302.72"></rect><rect class="cls-4" x="169.96" y="249.65" width="20.08" height="302.72"></rect><rect class="cls-11" x="196.37" y="249.65" width="20.08" height="302.72"></rect></g><g id="Shading" class="cls-13"><path class="cls-6" d="m67.92,223.5c3.28-42.1-8-75.36-8-75.36,0,0-3.92-13.84-6.31-31.41l29.42,68.13c2.77,6.4,4.43,17.31,3.71,24.25l-29.98,287.04,11.17-272.66Z"></path><path class="cls-6" d="m292.08,223.5c-3.28-42.1,8-75.36,8-75.36,0,0,3.92-13.84,6.31-31.41l-29.42,68.13c-2.77,6.4-4.43,17.31-3.71,24.25l29.57,287.04-10.75-272.66Z"></path><path class="cls-3" d="m50.67,59.83c5.17-3.55,10.65-7.13,16.17-10.62-10.67,7.5-14.45,22.78-14.95,39.13,0,0-8.61-23.09-1.22-28.52Z"></path><path class="cls-3" d="m309.86,60.19c-5.17-3.55-11.18-7.49-16.71-10.98,10.67,7.5,14.61,22.78,15.12,39.13,0,0,8.98-22.73,1.59-28.16Z"></path><path class="cls-3" d="m157.69,41.45c-11.86-11.84-22.89-21.27-25.86-35.6,0,0,7.46,3.28,19.43,5.98,0,0-.96,9.27,6.43,29.62Z"></path></g><g id="Collar"><g id="Collar-2" data-name="Collar"><g><path class="cls-5" d="m228.12,5.72c-47.95,21.23-96.19,0-96.19,0l-11.4,11.93s17.44,12.57,60.3,12.59c41.56-.02,57.7-11.83,58.66-12.59l-11.36-11.93Z"></path><path class="cls-9" d="m179.99,50.18c-17.16,0-32.32-10.48-40.97-24.93,9.66,2.65,23.39,4.98,41.81,4.98,17.62,0,30.67-2.14,39.93-4.64-8.69,14.27-23.74,24.59-40.77,24.59Z"></path></g><path class="cls-8" d="m228.06,5.72c-3.51,23.5-23.8,44.46-48.07,44.46s-44.55-20.96-48.07-44.46l-11.43,11.93c8.29,30.12,33.85,45.24,59.49,45.39,25.64-.14,51.2-15.27,59.49-45.39l-11.43-11.93Z"></path></g></g></g></g></g></svg> 