<?xml version="1.0" encoding="UTF-8"?> <svg xmlns="http://www.w3.org/2000/svg" viewBox="0 0 360 500"><defs><style> .cls-1 { fill: #f4b602; } .cls-2 { fill: #042b99; } .cls-3 { fill: #fff; } .cls-4 { fill: #fcd200; } .cls-5, .cls-6 { fill: #231f20; } .cls-7 { fill: #0b109f; } .cls-8 { fill: #06215e; } .cls-9 { isolation: isolate; } .cls-10 { mix-blend-mode: multiply; opacity: .2; } .cls-6 { opacity: .5; } </style></defs><g class="cls-9"><g id="Laag_1" data-name="Laag 1"><g id="Villareal"><path id="Jersey_Color" data-name="Jersey Color" class="cls-1" d="m293.05,43.55c16.67,10.51,32.89,21.83,41.65,30.91,18.04,18.7,23.43,88.53,24.9,117.19-19.54,18.42-68.14,20.74-68.22,12.62l11.34,285.83c-81.44,12.9-164.42,12.9-245.85,0l11.76-285.83c-.08,8.12-48.68,5.8-68.22-12.62,1.47-28.66,6.86-98.49,24.9-117.19,8.76-9.08,24.97-20.4,41.64-30.91l53.53-31.41L131.87.23s48.2,21.21,96.11,0l11.35,11.92,53.71,31.41Z"></path><path id="Body" class="cls-4" d="m239.34,12.14l53.71,31.41c29.11,20.47,6.91,98.85,6.91,98.85,0,0-8.95,26.37-8.58,61.88l11.34,285.83c-81.44,12.9-164.42,12.9-245.85,0l11.76-285.83c.37-35.5-8.58-61.88-8.58-61.88,0,0-22.2-78.38,6.91-98.85l53.53-31.41h118.85Z"></path><g id="Sleeves"><g><path class="cls-4" d="m291.38,204.27c.08,8.12,48.68,5.8,68.22-12.62-1.47-28.66-6.86-98.49-24.9-117.19-8.76-9.08-24.97-20.4-41.65-30.91,29.11,20.47,6.91,98.85,6.91,98.85,0,0-8.95,26.37-8.58,61.88Z"></path><path class="cls-4" d="m68.62,204.27c-.08,8.12-48.68,5.8-68.22-12.62,1.47-28.66,6.86-98.49,24.9-117.19,8.76-9.08,24.97-20.4,41.64-30.91-29.1,20.47-6.91,98.85-6.91,98.85,0,0,8.95,26.37,8.58,61.88Z"></path><path class="cls-2" d="m343.25,201.55s10.97-4.45,16.35-9.9l-.59-10.05s-5.42,5.81-9.28,8.07l-2.23,8.62-4.61,2.33.35.93Z"></path><path class="cls-2" d="m16.75,201.55s-10.97-4.45-16.35-9.9l.59-10.05s5.42,5.81,9.28,8.07l2.23,8.62,4.61,2.33-.35.93Z"></path></g></g><g id="Shading" class="cls-10"><path class="cls-5" d="m68.02,217.68c3.28-42.06-7.99-75.29-7.99-75.29,0,0-3.91-13.83-6.3-31.38l29.39,68.07c2.76,6.39,4.43,17.3,3.7,24.22l-29.96,286.78,11.16-272.41Z"></path><path class="cls-5" d="m291.98,217.68c-3.28-42.06,7.99-75.29,7.99-75.29,0,0,3.91-13.83,6.3-31.38l-29.39,68.07c-2.76,6.39-4.43,17.3-3.71,24.22l29.54,286.78-10.74-272.41Z"></path><path class="cls-6" d="m50.79,54.16c5.17-3.55,10.64-7.12,16.16-10.61-10.66,7.5-14.44,22.76-14.94,39.1,0,0-8.6-23.07-1.22-28.49Z"></path><path class="cls-6" d="m309.74,54.51c-5.17-3.55-11.17-7.48-16.69-10.97,10.66,7.5,14.6,22.76,15.1,39.1,0,0,8.97-22.71,1.59-28.13Z"></path><path class="cls-6" d="m157.07,34.73c-10.98-10.56-20.73-18.07-25.2-34.51,0,0,7.45,3.28,19.41,5.97,0,0-1.6,8.2,5.78,28.53Z"></path></g><g id="Collar"><g><path class="cls-8" d="m228.07.23c-47.95,21.23-96.19,0-96.19,0l-11.4,11.93s17.44,12.57,60.3,12.59c41.56-.02,57.7-11.83,58.66-12.59L228.07.23Z"></path><path class="cls-4" d="m180.6,59.06c-.33-.17-36.44-19.01-54.53-43.77,12.95,3.5,31.22,6.54,55.63,6.55,23.32,0,40.67-2.78,53.07-6.09-18.2,24.53-53.85,43.13-54.18,43.3Z"></path></g><path class="cls-2" d="m144.21,52.59c-13.63-12.4-21.38-29.07-23.82-40.78L131.88.23c0,27.18,37.38,52.28,37.54,52.37h-25.21Z"></path><path class="cls-2" d="m215.97,52.59c13.63-12.4,21.16-28.59,23.6-40.3L228.21.36c0,27.18-37.28,52.14-37.44,52.23h25.21Z"></path><polygon class="cls-3" points="180.09 52.59 190.77 52.59 185.43 64.72 180.09 76.85 174.75 64.72 169.41 52.59 180.09 52.59"></polygon></g></g><path id="path6" class="cls-7" d="m233.62,91.82v31.56c0,4.75,3.17,6.12,7.32,6.26,1.99.07,3.85.25,5.43.59,1.53.33,2.83.87,3.78,1.55.96-.68,2.24-1.22,3.78-1.55,1.57-.35,3.44-.52,5.43-.59,4.14-.14,7.31-1.51,7.31-6.26v-31.56h-33.04Z"></path><path id="path10" class="cls-4" d="m234.87,93.16v30.12c.04,4.77,5.79,4.51,8.96,4.63,2.1.08,4.43.67,6.32,1.57,1.89-.9,4.21-1.48,6.32-1.57,3.16-.12,8.92.14,8.96-4.63v-30.12h-30.55Z"></path><path id="path30" class="cls-7" d="m257.49,93.87c-.2.03-.4.34-.41.56-.35.03-.69.15-1.04.26-.1-.1-.29,0-.46.12-.08.06-.2-.01-.14.24-.31.11-.59.29-.97.46-.29-.25-.74-.23-.46.23.13.23.21.28.2.52-.01.22.14.45.36.46-.16.24-.51.36-.78.63l.28.1c.95.37-1.37,1.48-1.68,1.58l.59.12c.8.22-.98.92-1.24,1.02.12.08.25.15.39.2.36.13.45.2.2.44-.77.74-.92,2.3-1.76,2.89-.29.2-.42.23-.72.06-.92-.53-1.05-2.19-1.85-2.96-.26-.24-.18-.31.2-.44.14-.05.27-.11.39-.2-.59-.21-1.07-.48-1.43-.78l.78-.36c-.92-.23-1.6-.64-1.89-1.37l.42-.23c-.35-.2-.61-.42-.72-.71.22,0,.35-.1.35-.32-.02-.25.02-.24.16-.46.27-.46-.18-.48-.46-.23-.29-.21-.62-.36-.96-.46.05-.25.01-.38-.07-.44-.18-.13-.42-.03-.53.08-.35-.11-.7-.23-1.04-.27-.02-.33-.44-.84-.64-.38-.12.28-.07.6.06.94.13.37.18.27,0,.64-.93.09-1.55.42-1.73,1.07.51.13,1,.35,1.43.65-.15.38-1.33.22-2.36.16.88.66,1.97.46,2.35.62.33.14-.16.87,1.05.98.36.26.77.43,1.22.51.5.1.98.46,1.28.98.36.59.52,1.38.41,1.94-.26,1.3-2.14,1.99-3.24,1.38-1.52-.83-2.6-2.09-3.17-3.69-.46-1.3-.74-2.71-.64-4.21-.6-.16-.55,1.07-.35,2.47-.03.48-.22.48-.35.29-.31-.48-.27-1.65-.2-2.18-.24.05-.36.33-.4.76-.05.53,0,1.3.12,2.15.05.33.14.68.15,1.02-.49-.76-.6-1.89-.74-3.02-.43.25-.29,2.09-.32,2.45-.29-.26-.33-.69-.41-1.15-.43.31-.48,3.44.98,5.59-.35,1.56.1,2.72.91,3.71-.14.36-.05.84.16,1.35.42,1.04,1.17,1.98,1.91,2.8,1.25,1.37,2.81,2.62,4.67,3.76l-4.03,3.68c-.2.23-.65.68-.93.16-.23-.42-.15-1.11-.71-1.08.14.36-.04.64-.26.91-.32-.39-.74-.42-.96-.14.18.2.35.26.37.5.04.42.1.55-.27.76-.3.17-.43.14-.77.12.25.89.78,1.28,1.43,1.49,0,.18,0,.36.03.54.05.33.12.49.11.83.49,0,.9-.33,1.3-.72.57.03,1.22.21,1.6-.26-.12-.18-.4-.32-.56-.53-.21-.27-.25-.61.12-.94,1.56-1.35,3.03-2.83,4.78-3.85.68-.4.67-.05.63.59-.08,1.33-.85,3.41-1.04,4.17.36.18.7.34.98.59l-.49,2.64,1,.31-.08.41c.67.12,1.33.29,1.99.49l.1-.45c.04-.15.09-.2.17-.21.09-.01.66-.01.71.02.2.1.2.18.26.38l.12.38c.57-.05,1.37-.03,2.1-.4l-.12-.61,1.05-.45-.72-2.62c.29-.24.69-.38,1.05-.57-.18-.76-.95-2.85-1.04-4.17-.04-.64-.19-.9.49-.5,1.73,1.02,3.22,2.5,4.77,3.85.18.16.55.47.55.63,0,.13-.1.19-.21.23-.34.12-.45.24-.66.53.38.47,1.17.2,1.74.17.4.4.79.67,1.29.66.08-.61-.04-1.03.16-1.28.07-.08.12-.05.29-.13.51-.25,1-.67,1.19-1.36-.4-.06-.83-.05-1.08-.4-.09-.17-.06-.42.05-.66s.28-.48.33-.66c-.6.03-.77.81-1.15.26-.15-.21-.31-.49-.31-.79-.46.22-.21.91-.48,1.22-.39.42-.73.07-.93-.18l-3.72-3.48c-.31-.53-.23-.42.29-.74,1.55-1.02,2.81-1.73,3.93-2.97.74-.82,1.35-1.89,1.76-2.92.34-.84.18-1.33.62-2.15.8-1.48.46-2.77,1.02-4.45.7-2.11.74-4.08.45-4.19-.08.46-.14.77-.42,1.04-.04-.36.08-1.95-.35-2.2-.14,1.13-.25,2.25-.75,3.02.01-.35.1-.69.16-1.02.01-.18.3-2.75-.12-3.03-.12.75-.18,1.52-.25,2.17-.14,1.2-.52,1.91-.79,2.12.01-.34.7-3.89.26-4.83-.07-.16-.22-.05-.36-.05.1,1.5.05,3.07-.55,4.32-.43.89-.97,1.74-1.63,2.45-1,1.07-1.75,1.68-3.22,1.15-1.71-.63-1.92-1.86-1.07-3.48.46-.87,1.52-.72,2.3-1.3,1.21-.12.83-.89,1.17-1,.4-.14,1.6-.01,2.41-.8-.94.1-2.14.38-2.47.07.28-.39.83-.64,1.52-.7-.17-.66-.83-1-1.77-1.09-.18-.37-.13-.16,0-.53.12-.35.11-.87-.01-1.15-.05-.14-.13-.19-.22-.18Zm-.12,2c.33-.01.59.08.57.08-.46.17-1.5.39-1.83.74.04-.27-.02-.4.16-.52.2-.14.64-.25.96-.3.05,0,.1,0,.14,0Zm-13.96.27c.12,0,.23,0,.35.02.28.04.55.16.32.31-.16.1-.3.04-.46-.03-.25-.1-.51-.11-.77-.21-.03,0,.23-.08.57-.08Zm14.2.23c-.35.35-.44.56-.74.36-.38-.27.59-.36.74-.36Zm-15.59.07c.38-.05.44.58.57.91-.33-.3-.73-.49-1.17-.55.1-.21.31-.33.6-.36h0Zm.59.03c.14,0,1.12.14.74.4-.3.2-.4-.06-.74-.4h0Zm14.3,1.97c.18,0,.37.03.55.08-.08.08-.16.14-.25.21-.29.15-.26-.09-.53-.27.07-.01.15-.02.23-.02Zm-13.46.07c.07,0,.16.03.21.03-.16.09-.26.19-.29.08-.03-.09.01-.12.08-.11h0Zm-.24.13c.11,0,.18.03.13.19-.06.19-.23.02-.49-.13.11-.01.25-.06.36-.06h0Z"></path></g></g></svg> 